<svg xmlns="http://www.w3.org/2000/svg" xmlns:xlink="http://www.w3.org/1999/xlink" width="1366" zoomAndPan="magnify" viewBox="0 0 1024.5 576" height="768" preserveAspectRatio="xMidYMid meet" version="1.0"><defs><clipPath id="494cb9c64a"><path d="M 206 0.140625 L 816 0.140625 L 816 575.859375 L 206 575.859375 Z M 206 0.140625 " clip-rule="nonzero"/></clipPath></defs><g clip-path="url(#494cb9c64a)"><path fill="#ffbd59" d="M 743.601562 574.828125 C 721.390625 574.207031 699.019531 573.277344 676.808594 572.964844 C 655.527344 572.8125 634.246094 573.585938 612.964844 573.585938 C 599.292969 573.585938 585.625 572.34375 571.800781 573.277344 C 552.847656 574.363281 533.742188 574.363281 514.789062 573.277344 C 498.789062 572.5 483.414062 567.683594 469.898438 559.296875 C 449.238281 546.246094 430.753906 530.25 414.910156 511.761719 C 407.296875 503.21875 399.21875 494.988281 390.675781 487.21875 C 376.074219 474.015625 363.800781 458.484375 354.328125 441.394531 C 346.714844 427.726562 338.949219 414.054688 330.5625 400.851562 C 325.433594 392.621094 319.53125 384.851562 313.007812 377.550781 C 297.320312 360.152344 284.113281 340.582031 273.707031 319.609375 C 265.320312 302.367188 254.445312 286.214844 241.550781 272.078125 C 226.796875 256.855469 219.648438 238.214844 216.078125 218.019531 C 213.125 201.554688 210.019531 185.246094 208 168.46875 C 205.359375 147.03125 206.445312 125.441406 211.574219 104.46875 C 215.457031 88.933594 223.84375 75.109375 235.960938 64.546875 C 265.785156 37.054688 302.910156 18.722656 342.988281 11.734375 C 364.890625 7.847656 386.636719 3.964844 408.539062 1.636719 C 423.761719 0.394531 439.140625 0.238281 454.363281 1.171875 C 473.9375 1.792969 493.820312 3.1875 512.304688 10.335938 C 533.121094 18.257812 553.46875 27.109375 573.820312 36.277344 C 579.410156 39.070312 584.691406 42.800781 589.195312 47.148438 C 598.207031 55.070312 607.0625 63.304688 615.605469 71.847656 C 630.984375 87.226562 645.738281 103.539062 655.835938 122.953125 C 665.46875 140.351562 667.488281 161.011719 661.582031 179.964844 C 659.875 185.554688 659.875 191.457031 661.582031 197.050781 C 664.070312 206.679688 665.15625 216.621094 664.691406 226.71875 C 664.847656 235.882812 666.398438 244.894531 669.039062 253.59375 C 677.738281 284.039062 687.835938 314.019531 703.679688 341.980469 C 720.613281 371.960938 739.097656 401.007812 758.046875 429.746094 C 768.765625 446.054688 778.863281 462.675781 789.738281 478.988281 C 793.929688 485.355469 798.902344 491.101562 803.5625 497.160156 C 809.621094 504.929688 813.503906 514.09375 815.058594 523.722656 C 818.628906 544.230469 806.359375 564.113281 786.628906 570.324219 C 772.496094 574.054688 758.046875 575.761719 743.601562 574.828125 Z M 657.699219 200.15625 C 654.90625 193.789062 654.59375 186.640625 656.613281 180.117188 C 663.136719 161.011719 660.808594 140.042969 650.246094 122.644531 C 643.097656 110.527344 634.710938 99.1875 625.078125 88.933594 C 611.097656 74.023438 595.875 60.199219 580.964844 46.0625 C 578.632812 44.042969 575.992188 42.179688 573.042969 40.9375 C 551.449219 30.0625 529.082031 20.898438 506.089844 13.441406 C 489.160156 8.003906 471.605469 6.605469 454.054688 6.140625 C 439.140625 5.207031 424.074219 5.363281 409.003906 6.453125 C 388.5 8.472656 368.308594 12.507812 347.804688 15.617188 C 311.921875 21.363281 277.746094 36.277344 249.007812 59.109375 C 232.542969 71.691406 219.804688 87.382812 215.300781 108.507812 C 211.882812 124.816406 210.640625 141.59375 211.726562 158.371094 C 212.96875 180.738281 217.785156 202.640625 222.289062 224.699219 C 225.242188 240.542969 232.542969 255.457031 243.417969 267.261719 C 257.398438 282.796875 269.203125 300.195312 278.367188 318.988281 C 288.464844 339.804688 301.667969 358.910156 317.355469 375.6875 C 319.53125 378.171875 321.707031 380.660156 323.726562 383.300781 C 335.84375 399.453125 346.40625 416.542969 355.570312 434.5625 C 364.269531 451.183594 375.453125 466.40625 388.8125 479.453125 C 401.703125 492.191406 414.132812 505.238281 426.871094 518.289062 C 440.851562 532.890625 456.695312 545.78125 473.9375 556.5 C 490.714844 566.90625 509.199219 569.394531 528.148438 569.394531 C 545.859375 569.394531 563.566406 568.617188 581.273438 568.460938 C 605.507812 568.460938 629.585938 568.925781 653.816406 568.617188 C 681.621094 568.304688 709.429688 568.617188 737.386719 570.480469 C 752.613281 571.566406 767.988281 570.167969 782.902344 566.441406 C 805.890625 560.695312 812.570312 539.414062 810.085938 523.101562 C 808.53125 512.539062 802.785156 503.996094 796.570312 495.453125 C 787.25 482.714844 778.242188 469.976562 769.542969 456.929688 C 757.582031 438.753906 745.777344 420.582031 734.28125 402.09375 C 710.824219 364.503906 686.4375 327.222656 673.699219 284.039062 C 668.730469 267.105469 664.070312 250.332031 659.71875 233.398438 C 657.390625 223.921875 656.148438 214.449219 654.128906 204.972656 C 653.507812 201.710938 654.59375 200.621094 657.699219 200.15625 Z M 621.039062 160.234375 C 621.039062 173.75 617.3125 186.488281 614.515625 199.378906 C 604.109375 247.691406 601.46875 296.464844 611.875 344.929688 C 615.449219 361.550781 621.351562 377.550781 633.625 390.289062 C 636.730469 393.550781 640.300781 396.503906 643.875 399.144531 C 654.128906 406.753906 663.449219 415.765625 671.371094 425.707031 C 678.050781 434.25 682.398438 444.503906 684.109375 455.375 C 685.195312 460.191406 684.417969 465.316406 681.933594 469.667969 C 679.601562 474.328125 676.652344 478.519531 673.234375 482.558594 C 647.914062 510.832031 615.292969 531.335938 578.789062 541.898438 C 565.742188 545.472656 551.914062 546.09375 538.558594 543.453125 C 522.867188 540.65625 506.867188 538.945312 492.421875 531.957031 C 473.160156 522.792969 454.363281 512.695312 439.296875 497.160156 C 420.964844 477.898438 407.140625 454.597656 398.910156 429.277344 C 387.414062 395.726562 375.296875 362.328125 363.335938 328.929688 C 356.65625 311.84375 345.9375 296.464844 332.113281 284.351562 C 318.597656 271.613281 306.015625 258.253906 293.125 245.050781 C 284.269531 236.039062 275.105469 227.1875 266.71875 217.710938 C 261.746094 211.808594 257.550781 205.4375 253.824219 198.757812 C 249.320312 191.457031 248.699219 182.449219 252.117188 174.679688 C 254.132812 169.710938 255.84375 164.738281 258.484375 160.078125 C 265.941406 145.476562 273.398438 131.03125 281.472656 116.742188 C 295.765625 91.421875 316.582031 74.179688 345.007812 66.101562 C 371.726562 58.800781 398.441406 52.585938 426.25 51.5 C 456.074219 50.566406 485.742188 57.089844 512.460938 70.449219 C 534.207031 81.011719 555.800781 92.199219 577.390625 103.226562 C 587.332031 108.199219 596.496094 114.566406 604.574219 122.175781 C 606.75 124.195312 609.703125 125.285156 611.722656 127.613281 C 614.207031 129.789062 616.226562 132.585938 617.3125 135.691406 C 619.332031 143.613281 620.417969 151.691406 622.128906 159.769531 Z M 429.976562 56.003906 C 400.929688 56.625 371.257812 62.996094 341.746094 72.003906 C 320.773438 78.21875 302.753906 91.730469 290.949219 110.214844 C 278.210938 130.101562 267.027344 151.070312 257.550781 172.664062 C 253.046875 181.980469 254.132812 192.855469 260.191406 201.089844 C 266.871094 211.339844 274.640625 220.972656 283.492188 229.515625 C 293.902344 239.769531 304.308594 250.175781 314.714844 260.582031 C 321.085938 266.953125 326.988281 273.785156 333.667969 279.535156 C 349.511719 293.046875 361.628906 310.601562 368.773438 330.175781 C 380.890625 364.347656 392.851562 398.679688 405.121094 432.695312 C 414.597656 458.949219 428.269531 482.558594 450.015625 500.578125 C 472.695312 519.996094 500.34375 532.734375 529.859375 537.550781 C 548.03125 540.34375 565.742188 541.898438 583.449219 535.839844 C 609.855469 527.140625 634.246094 513.003906 654.90625 494.210938 C 662.207031 487.375 668.886719 480.074219 675.253906 472.308594 C 678.828125 468.269531 680.535156 462.832031 679.914062 457.550781 C 678.828125 448.695312 675.71875 440.308594 670.902344 432.851562 C 662.980469 421.355469 653.039062 411.414062 641.699219 403.335938 C 630.671875 395.414062 621.972656 384.699219 616.382812 372.269531 C 607.371094 353.320312 603.953125 332.660156 602.246094 312.15625 C 598.828125 272.855469 601.777344 233.398438 610.945312 195.03125 C 614.363281 181.359375 617.777344 167.691406 616.382812 153.554688 C 615.292969 143.457031 614.671875 132.742188 603.332031 127.769531 C 602.710938 127.460938 602.089844 126.835938 601.625 126.371094 C 593.703125 118.761719 584.847656 112.546875 575.0625 107.574219 C 553.933594 96.703125 532.808594 85.828125 511.371094 75.421875 C 486.054688 62.683594 458.246094 56.003906 429.976562 56.003906 Z M 649.777344 219.109375 C 650.554688 219.109375 651.332031 218.019531 652.109375 217.242188 C 651.332031 216.46875 650.710938 215.222656 649.933594 214.914062 C 649 214.601562 648.378906 216 646.980469 216.933594 C 648.070312 217.867188 649 219.109375 649.777344 219.109375 Z M 534.050781 497.160156 C 511.683594 495.761719 491.179688 490.792969 474.558594 475.878906 C 468.5 470.132812 463.375 463.609375 459.179688 456.464844 C 449.703125 440.464844 442.558594 423.375 437.742188 405.355469 C 429.511719 376.621094 418.171875 348.660156 404.035156 322.25 C 400.929688 316.503906 397.667969 310.601562 395.179688 304.542969 C 387.101562 284.660156 374.054688 268.195312 359.765625 252.351562 C 349.976562 241.476562 340.8125 229.980469 331.957031 218.332031 C 324.347656 208.699219 320.929688 196.585938 322.171875 184.46875 C 323.726562 169.710938 328.542969 156.351562 340.035156 146.253906 C 354.328125 133.515625 369.238281 122.175781 388.191406 116.894531 C 401.703125 113.480469 415.683594 113.011719 429.355469 115.34375 C 452.34375 118.761719 474.714844 125.59375 495.839844 135.535156 C 503.605469 139.109375 511.683594 141.90625 519.449219 145.789062 C 529.082031 150.605469 538.402344 156.195312 547.878906 161.632812 C 550.207031 163.03125 552.539062 164.738281 554.867188 166.136719 C 557.351562 167.378906 560.769531 167.378906 558.59375 171.730469 C 558.59375 172.039062 559.371094 172.972656 559.839844 173.4375 C 566.828125 180.429688 570.867188 189.75 571.179688 199.535156 C 571.644531 208.546875 573.972656 217.554688 575.0625 226.5625 C 576.613281 242.875 576.148438 259.183594 573.820312 275.339844 C 572.421875 287.457031 570.089844 299.261719 568.847656 311.378906 C 568.226562 317.589844 568.070312 323.804688 568.535156 329.863281 C 568.535156 332.660156 569.3125 335.457031 570.710938 337.785156 C 583.449219 354.5625 588.574219 374.601562 596.1875 393.394531 C 600.070312 402.871094 603.488281 412.503906 606.128906 422.445312 C 610.476562 437.976562 606.75 454.597656 596.03125 466.714844 C 579.722656 486.597656 557.820312 495.140625 533.585938 497.007812 Z M 571.644531 243.183594 C 571.488281 239.457031 571.644531 234.796875 570.867188 230.136719 C 569.46875 219.574219 566.671875 209.167969 566.519531 198.449219 C 566.519531 185.089844 557.820312 176.699219 549.898438 169.246094 C 541.199219 161.324219 529.859375 156.351562 519.140625 150.757812 C 511.0625 146.566406 502.207031 143.457031 493.820312 139.730469 C 473.160156 129.945312 451.101562 123.265625 428.421875 119.847656 C 415.996094 117.828125 403.414062 118.140625 391.140625 120.933594 C 372.035156 125.90625 357.277344 137.089844 343.144531 149.828125 C 332.734375 159.148438 328.386719 171.265625 326.832031 184.625 C 325.277344 197.980469 329.9375 208.855469 337.863281 218.796875 C 346.871094 230.292969 356.191406 241.320312 365.820312 252.195312 C 379.027344 266.953125 390.832031 282.332031 398.597656 300.660156 C 401.082031 306.40625 404.035156 312.15625 406.988281 317.589844 C 421.898438 345.242188 433.859375 374.601562 442.558594 404.734375 C 447.21875 420.734375 453.433594 436.269531 461.355469 451.027344 C 470.363281 468.890625 486.519531 482.09375 505.9375 487.375 C 535.761719 496.382812 562.632812 491.722656 586.246094 470.753906 C 603.332031 455.53125 607.992188 437.046875 600.070312 415.453125 C 596.34375 405.667969 592.769531 395.726562 588.886719 385.941406 C 582.671875 369.941406 577.234375 353.628906 566.984375 339.496094 C 565.121094 336.699219 564.1875 333.4375 564.1875 330.175781 C 563.875 321.785156 564.1875 313.554688 565.273438 305.164062 C 568.847656 284.503906 571.023438 263.691406 571.800781 242.71875 Z M 544.925781 284.816406 C 543.527344 297.554688 542.128906 310.445312 540.730469 323.648438 C 540.578125 325.824219 540.421875 328 540.421875 330.019531 C 540.421875 330.640625 540.421875 331.726562 540.578125 331.882812 C 544.769531 333.746094 542.441406 337.320312 542.75 340.117188 C 543.21875 345.707031 543.683594 351.457031 544.613281 357.046875 C 546.480469 366.210938 546.632812 375.6875 545.082031 385.007812 C 541.507812 401.007812 528.148438 412.8125 511.839844 414.523438 C 491.335938 416.386719 472.382812 402.871094 467.566406 382.832031 C 463.0625 364.347656 455.917969 346.796875 449.082031 329.085938 C 444.578125 317.4375 439.605469 305.941406 435.257812 294.292969 C 427.644531 272.855469 414.132812 253.902344 396.269531 239.769531 C 388.035156 233.398438 381.511719 225.320312 376.851562 216.15625 C 370.949219 203.886719 372.65625 193.476562 382.441406 184 C 385.550781 181.050781 389.121094 178.566406 393.007812 176.855469 C 405.277344 170.796875 418.480469 169.867188 431.839844 169.398438 C 453.121094 169.089844 474.246094 173.4375 493.664062 182.292969 C 502.054688 186.019531 509.199219 192.078125 514.324219 199.691406 C 520.070312 207.921875 525.820312 216 531.101562 224.542969 C 538.089844 235.574219 540.730469 248.15625 542.75 260.738281 C 543.992188 268.503906 544.304688 276.425781 545.082031 284.972656 Z M 540.265625 284.816406 C 539.488281 276.425781 539.023438 268.816406 537.9375 261.359375 C 536.070312 249.710938 533.585938 238.058594 527.371094 227.960938 C 521.78125 218.953125 515.566406 210.253906 509.507812 201.554688 C 504.539062 194.410156 497.546875 188.972656 489.625 185.710938 C 466.015625 175.148438 439.917969 171.574219 414.289062 175.148438 C 405.589844 175.925781 397.199219 178.71875 389.742188 183.535156 C 377.628906 192.234375 374.832031 202.488281 381.511719 215.222656 C 382.753906 217.867188 384.308594 220.351562 386.171875 222.527344 C 390.832031 227.960938 395.957031 233.089844 401.238281 237.902344 C 416.304688 250.019531 427.957031 265.710938 435.414062 283.574219 C 438.832031 292.117188 441.78125 300.816406 445.511719 309.359375 C 456.074219 334.367188 466.792969 359.378906 473.160156 385.941406 C 474.867188 393.242188 479.683594 399.453125 486.363281 402.871094 C 490.558594 405.203125 494.90625 407.066406 499.410156 408.773438 C 514.324219 414.054688 538.402344 402.40625 540.578125 384.074219 C 541.507812 375.222656 541.351562 366.367188 539.953125 357.667969 C 539.023438 351.609375 538.710938 345.398438 538.246094 339.183594 C 538.089844 336.699219 539.488281 333.902344 536.382812 332.347656 C 535.917969 332.195312 535.917969 330.796875 535.917969 329.863281 C 535.917969 327.535156 535.917969 325.046875 536.382812 322.71875 C 537.78125 309.667969 539.332031 296.777344 540.578125 284.660156 Z M 540.265625 284.816406 " fill-opacity="1" fill-rule="nonzero"/></g></svg>