<svg xmlns="http://www.w3.org/2000/svg" xmlns:xlink="http://www.w3.org/1999/xlink" width="1366" zoomAndPan="magnify" viewBox="0 0 1024.5 386.250002" height="515" preserveAspectRatio="xMidYMid meet" version="1.0"><defs><clipPath id="a68c995f07"><path d="M 288 123 L 357 123 L 357 222 L 288 222 Z M 288 123 " clip-rule="nonzero"/></clipPath><clipPath id="43e41382cb"><path d="M 431.441406 -306.226562 L 1023.359375 124.550781 L 592.582031 716.46875 L 0.664062 285.691406 Z M 431.441406 -306.226562 " clip-rule="nonzero"/></clipPath><clipPath id="0c1d379bcd"><path d="M 431.441406 -306.226562 L 1023.359375 124.550781 L 592.582031 716.46875 L 0.664062 285.691406 Z M 431.441406 -306.226562 " clip-rule="nonzero"/></clipPath><clipPath id="6775cb27c3"><path d="M 431.441406 -306.226562 L 1023.359375 124.550781 L 592.582031 716.46875 L 0.664062 285.691406 Z M 431.441406 -306.226562 " clip-rule="nonzero"/></clipPath><clipPath id="8b3b1e7435"><path d="M 331 106 L 419 106 L 419 210 L 331 210 Z M 331 106 " clip-rule="nonzero"/></clipPath><clipPath id="5b3fecef1f"><path d="M 431.441406 -306.226562 L 1023.359375 124.550781 L 592.582031 716.46875 L 0.664062 285.691406 Z M 431.441406 -306.226562 " clip-rule="nonzero"/></clipPath><clipPath id="77326f0efa"><path d="M 431.441406 -306.226562 L 1023.359375 124.550781 L 592.582031 716.46875 L 0.664062 285.691406 Z M 431.441406 -306.226562 " clip-rule="nonzero"/></clipPath><clipPath id="62f7e4fe17"><path d="M 431.441406 -306.226562 L 1023.359375 124.550781 L 592.582031 716.46875 L 0.664062 285.691406 Z M 431.441406 -306.226562 " clip-rule="nonzero"/></clipPath><clipPath id="a55352646a"><path d="M 393 92 L 482 92 L 482 195 L 393 195 Z M 393 92 " clip-rule="nonzero"/></clipPath><clipPath id="85169a2200"><path d="M 431.441406 -306.226562 L 1023.359375 124.550781 L 592.582031 716.46875 L 0.664062 285.691406 Z M 431.441406 -306.226562 " clip-rule="nonzero"/></clipPath><clipPath id="72adecfda1"><path d="M 431.441406 -306.226562 L 1023.359375 124.550781 L 592.582031 716.46875 L 0.664062 285.691406 Z M 431.441406 -306.226562 " clip-rule="nonzero"/></clipPath><clipPath id="e05dcf79b0"><path d="M 431.441406 -306.226562 L 1023.359375 124.550781 L 592.582031 716.46875 L 0.664062 285.691406 Z M 431.441406 -306.226562 " clip-rule="nonzero"/></clipPath><clipPath id="a6fda2797e"><path d="M 456 81 L 545 81 L 545 183 L 456 183 Z M 456 81 " clip-rule="nonzero"/></clipPath><clipPath id="5f13ea0240"><path d="M 431.441406 -306.226562 L 1023.359375 124.550781 L 592.582031 716.46875 L 0.664062 285.691406 Z M 431.441406 -306.226562 " clip-rule="nonzero"/></clipPath><clipPath id="f8d8818d35"><path d="M 431.441406 -306.226562 L 1023.359375 124.550781 L 592.582031 716.46875 L 0.664062 285.691406 Z M 431.441406 -306.226562 " clip-rule="nonzero"/></clipPath><clipPath id="67f2cd0924"><path d="M 431.441406 -306.226562 L 1023.359375 124.550781 L 592.582031 716.46875 L 0.664062 285.691406 Z M 431.441406 -306.226562 " clip-rule="nonzero"/></clipPath><clipPath id="c58ec85efe"><path d="M 519 73 L 609 73 L 609 174 L 519 174 Z M 519 73 " clip-rule="nonzero"/></clipPath><clipPath id="d6e0dfb86d"><path d="M 431.441406 -306.226562 L 1023.359375 124.550781 L 592.582031 716.46875 L 0.664062 285.691406 Z M 431.441406 -306.226562 " clip-rule="nonzero"/></clipPath><clipPath id="424cd01e19"><path d="M 431.441406 -306.226562 L 1023.359375 124.550781 L 592.582031 716.46875 L 0.664062 285.691406 Z M 431.441406 -306.226562 " clip-rule="nonzero"/></clipPath><clipPath id="9db78b4aef"><path d="M 431.441406 -306.226562 L 1023.359375 124.550781 L 592.582031 716.46875 L 0.664062 285.691406 Z M 431.441406 -306.226562 " clip-rule="nonzero"/></clipPath><clipPath id="67c822cb1e"><path d="M 583 68 L 673 68 L 673 168 L 583 168 Z M 583 68 " clip-rule="nonzero"/></clipPath><clipPath id="f650518254"><path d="M 431.441406 -306.226562 L 1023.359375 124.550781 L 592.582031 716.46875 L 0.664062 285.691406 Z M 431.441406 -306.226562 " clip-rule="nonzero"/></clipPath><clipPath id="b94ed29d38"><path d="M 431.441406 -306.226562 L 1023.359375 124.550781 L 592.582031 716.46875 L 0.664062 285.691406 Z M 431.441406 -306.226562 " clip-rule="nonzero"/></clipPath><clipPath id="413eb92786"><path d="M 431.441406 -306.226562 L 1023.359375 124.550781 L 592.582031 716.46875 L 0.664062 285.691406 Z M 431.441406 -306.226562 " clip-rule="nonzero"/></clipPath><clipPath id="2d717f57c7"><path d="M 647 66 L 719 66 L 719 165 L 647 165 Z M 647 66 " clip-rule="nonzero"/></clipPath><clipPath id="f8e888257a"><path d="M 431.441406 -306.226562 L 1023.359375 124.550781 L 592.582031 716.46875 L 0.664062 285.691406 Z M 431.441406 -306.226562 " clip-rule="nonzero"/></clipPath><clipPath id="39fac36c0a"><path d="M 431.441406 -306.226562 L 1023.359375 124.550781 L 592.582031 716.46875 L 0.664062 285.691406 Z M 431.441406 -306.226562 " clip-rule="nonzero"/></clipPath><clipPath id="299ca9d62c"><path d="M 431.441406 -306.226562 L 1023.359375 124.550781 L 592.582031 716.46875 L 0.664062 285.691406 Z M 431.441406 -306.226562 " clip-rule="nonzero"/></clipPath><clipPath id="9fd8cd5fbe"><path d="M 288 156 L 357 156 L 357 222 L 288 222 Z M 288 156 " clip-rule="nonzero"/></clipPath><clipPath id="5253696759"><path d="M 431.441406 -306.226562 L 1023.359375 124.550781 L 592.582031 716.46875 L 0.664062 285.691406 Z M 431.441406 -306.226562 " clip-rule="nonzero"/></clipPath><clipPath id="8fdab749cc"><path d="M 431.441406 -306.226562 L 1023.359375 124.550781 L 592.582031 716.46875 L 0.664062 285.691406 Z M 431.441406 -306.226562 " clip-rule="nonzero"/></clipPath><clipPath id="43872c8290"><path d="M 431.441406 -306.226562 L 1023.359375 124.550781 L 592.582031 716.46875 L 0.664062 285.691406 Z M 431.441406 -306.226562 " clip-rule="nonzero"/></clipPath><clipPath id="c321f13959"><path d="M 331 121 L 419 121 L 419 210 L 331 210 Z M 331 121 " clip-rule="nonzero"/></clipPath><clipPath id="c2c426166b"><path d="M 431.441406 -306.226562 L 1023.359375 124.550781 L 592.582031 716.46875 L 0.664062 285.691406 Z M 431.441406 -306.226562 " clip-rule="nonzero"/></clipPath><clipPath id="a1bf0cb4f7"><path d="M 431.441406 -306.226562 L 1023.359375 124.550781 L 592.582031 716.46875 L 0.664062 285.691406 Z M 431.441406 -306.226562 " clip-rule="nonzero"/></clipPath><clipPath id="9d69943ef9"><path d="M 431.441406 -306.226562 L 1023.359375 124.550781 L 592.582031 716.46875 L 0.664062 285.691406 Z M 431.441406 -306.226562 " clip-rule="nonzero"/></clipPath><clipPath id="f82867a7ef"><path d="M 393 105 L 482 105 L 482 195 L 393 195 Z M 393 105 " clip-rule="nonzero"/></clipPath><clipPath id="fcaac7cfd2"><path d="M 431.441406 -306.226562 L 1023.359375 124.550781 L 592.582031 716.46875 L 0.664062 285.691406 Z M 431.441406 -306.226562 " clip-rule="nonzero"/></clipPath><clipPath id="c2114689b6"><path d="M 431.441406 -306.226562 L 1023.359375 124.550781 L 592.582031 716.46875 L 0.664062 285.691406 Z M 431.441406 -306.226562 " clip-rule="nonzero"/></clipPath><clipPath id="b239e8de74"><path d="M 431.441406 -306.226562 L 1023.359375 124.550781 L 592.582031 716.46875 L 0.664062 285.691406 Z M 431.441406 -306.226562 " clip-rule="nonzero"/></clipPath><clipPath id="16062741bb"><path d="M 456 92 L 545 92 L 545 183 L 456 183 Z M 456 92 " clip-rule="nonzero"/></clipPath><clipPath id="836ab1609a"><path d="M 431.441406 -306.226562 L 1023.359375 124.550781 L 592.582031 716.46875 L 0.664062 285.691406 Z M 431.441406 -306.226562 " clip-rule="nonzero"/></clipPath><clipPath id="aff48a1f20"><path d="M 431.441406 -306.226562 L 1023.359375 124.550781 L 592.582031 716.46875 L 0.664062 285.691406 Z M 431.441406 -306.226562 " clip-rule="nonzero"/></clipPath><clipPath id="d118c39590"><path d="M 431.441406 -306.226562 L 1023.359375 124.550781 L 592.582031 716.46875 L 0.664062 285.691406 Z M 431.441406 -306.226562 " clip-rule="nonzero"/></clipPath><clipPath id="73a3906c49"><path d="M 519 82 L 609 82 L 609 174 L 519 174 Z M 519 82 " clip-rule="nonzero"/></clipPath><clipPath id="0d35a1bb6f"><path d="M 431.441406 -306.226562 L 1023.359375 124.550781 L 592.582031 716.46875 L 0.664062 285.691406 Z M 431.441406 -306.226562 " clip-rule="nonzero"/></clipPath><clipPath id="45699fac14"><path d="M 431.441406 -306.226562 L 1023.359375 124.550781 L 592.582031 716.46875 L 0.664062 285.691406 Z M 431.441406 -306.226562 " clip-rule="nonzero"/></clipPath><clipPath id="bc9fcbb376"><path d="M 431.441406 -306.226562 L 1023.359375 124.550781 L 592.582031 716.46875 L 0.664062 285.691406 Z M 431.441406 -306.226562 " clip-rule="nonzero"/></clipPath><clipPath id="8137ed6fe4"><path d="M 583 75 L 673 75 L 673 168 L 583 168 Z M 583 75 " clip-rule="nonzero"/></clipPath><clipPath id="0d4f2b6d71"><path d="M 431.441406 -306.226562 L 1023.359375 124.550781 L 592.582031 716.46875 L 0.664062 285.691406 Z M 431.441406 -306.226562 " clip-rule="nonzero"/></clipPath><clipPath id="3e675348d1"><path d="M 431.441406 -306.226562 L 1023.359375 124.550781 L 592.582031 716.46875 L 0.664062 285.691406 Z M 431.441406 -306.226562 " clip-rule="nonzero"/></clipPath><clipPath id="0d4e501706"><path d="M 431.441406 -306.226562 L 1023.359375 124.550781 L 592.582031 716.46875 L 0.664062 285.691406 Z M 431.441406 -306.226562 " clip-rule="nonzero"/></clipPath><clipPath id="99303feeef"><path d="M 647 71 L 719 71 L 719 165 L 647 165 Z M 647 71 " clip-rule="nonzero"/></clipPath><clipPath id="888f253ef1"><path d="M 431.441406 -306.226562 L 1023.359375 124.550781 L 592.582031 716.46875 L 0.664062 285.691406 Z M 431.441406 -306.226562 " clip-rule="nonzero"/></clipPath><clipPath id="072dbd323b"><path d="M 431.441406 -306.226562 L 1023.359375 124.550781 L 592.582031 716.46875 L 0.664062 285.691406 Z M 431.441406 -306.226562 " clip-rule="nonzero"/></clipPath><clipPath id="cdbc611c3a"><path d="M 431.441406 -306.226562 L 1023.359375 124.550781 L 592.582031 716.46875 L 0.664062 285.691406 Z M 431.441406 -306.226562 " clip-rule="nonzero"/></clipPath><clipPath id="bfdda658cc"><path d="M 15 177 L 220 177 L 220 370 L 15 370 Z M 15 177 " clip-rule="nonzero"/></clipPath><clipPath id="c150746d46"><path d="M 431.441406 -306.226562 L 1023.359375 124.550781 L 592.582031 716.46875 L 0.664062 285.691406 Z M 431.441406 -306.226562 " clip-rule="nonzero"/></clipPath><clipPath id="8a378ba211"><path d="M 431.441406 -306.226562 L 1023.359375 124.550781 L 592.582031 716.46875 L 0.664062 285.691406 Z M 431.441406 -306.226562 " clip-rule="nonzero"/></clipPath><clipPath id="6502c3a526"><path d="M 431.441406 -306.226562 L 1023.359375 124.550781 L 592.582031 716.46875 L 0.664062 285.691406 Z M 431.441406 -306.226562 " clip-rule="nonzero"/></clipPath><clipPath id="8c25dced16"><path d="M 116 177 L 220 177 L 220 370 L 116 370 Z M 116 177 " clip-rule="nonzero"/></clipPath><clipPath id="5fcc1b43b9"><path d="M 431.441406 -306.226562 L 1023.359375 124.550781 L 592.582031 716.46875 L 0.664062 285.691406 Z M 431.441406 -306.226562 " clip-rule="nonzero"/></clipPath><clipPath id="0c40e4dccb"><path d="M 431.441406 -306.226562 L 1023.359375 124.550781 L 592.582031 716.46875 L 0.664062 285.691406 Z M 431.441406 -306.226562 " clip-rule="nonzero"/></clipPath><clipPath id="6ebac92ef2"><path d="M 431.441406 -306.226562 L 1023.359375 124.550781 L 592.582031 716.46875 L 0.664062 285.691406 Z M 431.441406 -306.226562 " clip-rule="nonzero"/></clipPath><clipPath id="ee52f11a1a"><path d="M 279 185 L 349 185 L 349 277 L 279 277 Z M 279 185 " clip-rule="nonzero"/></clipPath><clipPath id="6fab608c21"><path d="M 431.441406 -306.226562 L 1023.359375 124.550781 L 592.582031 716.46875 L 0.664062 285.691406 Z M 431.441406 -306.226562 " clip-rule="nonzero"/></clipPath><clipPath id="f758c32d62"><path d="M 431.441406 -306.226562 L 1023.359375 124.550781 L 592.582031 716.46875 L 0.664062 285.691406 Z M 431.441406 -306.226562 " clip-rule="nonzero"/></clipPath><clipPath id="33fa35e7fb"><path d="M 431.441406 -306.226562 L 1023.359375 124.550781 L 592.582031 716.46875 L 0.664062 285.691406 Z M 431.441406 -306.226562 " clip-rule="nonzero"/></clipPath><clipPath id="2facd2192e"><path d="M 210 91 L 305 91 L 305 298 L 210 298 Z M 210 91 " clip-rule="nonzero"/></clipPath><clipPath id="7ef699ae4f"><path d="M 431.441406 -306.226562 L 1023.359375 124.550781 L 592.582031 716.46875 L 0.664062 285.691406 Z M 431.441406 -306.226562 " clip-rule="nonzero"/></clipPath><clipPath id="ce14d61c6d"><path d="M 431.441406 -306.226562 L 1023.359375 124.550781 L 592.582031 716.46875 L 0.664062 285.691406 Z M 431.441406 -306.226562 " clip-rule="nonzero"/></clipPath><clipPath id="9cfa237b91"><path d="M 431.441406 -306.226562 L 1023.359375 124.550781 L 592.582031 716.46875 L 0.664062 285.691406 Z M 431.441406 -306.226562 " clip-rule="nonzero"/></clipPath><clipPath id="f33d0c3fad"><path d="M 210 93 L 305 93 L 305 298 L 210 298 Z M 210 93 " clip-rule="nonzero"/></clipPath><clipPath id="9b9c69f745"><path d="M 431.441406 -306.226562 L 1023.359375 124.550781 L 592.582031 716.46875 L 0.664062 285.691406 Z M 431.441406 -306.226562 " clip-rule="nonzero"/></clipPath><clipPath id="bee0a309f8"><path d="M 431.441406 -306.226562 L 1023.359375 124.550781 L 592.582031 716.46875 L 0.664062 285.691406 Z M 431.441406 -306.226562 " clip-rule="nonzero"/></clipPath><clipPath id="72a002cfd5"><path d="M 431.441406 -306.226562 L 1023.359375 124.550781 L 592.582031 716.46875 L 0.664062 285.691406 Z M 431.441406 -306.226562 " clip-rule="nonzero"/></clipPath><clipPath id="f84d55a67f"><path d="M 170 112 L 238 112 L 238 210 L 170 210 Z M 170 112 " clip-rule="nonzero"/></clipPath><clipPath id="cdd134d4cf"><path d="M 431.441406 -306.226562 L 1023.359375 124.550781 L 592.582031 716.46875 L 0.664062 285.691406 Z M 431.441406 -306.226562 " clip-rule="nonzero"/></clipPath><clipPath id="bffaf4fe38"><path d="M 431.441406 -306.226562 L 1023.359375 124.550781 L 592.582031 716.46875 L 0.664062 285.691406 Z M 431.441406 -306.226562 " clip-rule="nonzero"/></clipPath><clipPath id="e318a37699"><path d="M 431.441406 -306.226562 L 1023.359375 124.550781 L 592.582031 716.46875 L 0.664062 285.691406 Z M 431.441406 -306.226562 " clip-rule="nonzero"/></clipPath><clipPath id="bb2e8efb43"><path d="M 791 78 L 1007 78 L 1007 244 L 791 244 Z M 791 78 " clip-rule="nonzero"/></clipPath><clipPath id="78d6bd4606"><path d="M 431.441406 -306.226562 L 1023.359375 124.550781 L 592.582031 716.46875 L 0.664062 285.691406 Z M 431.441406 -306.226562 " clip-rule="nonzero"/></clipPath><clipPath id="3f3d1b0927"><path d="M 431.441406 -306.226562 L 1023.359375 124.550781 L 592.582031 716.46875 L 0.664062 285.691406 Z M 431.441406 -306.226562 " clip-rule="nonzero"/></clipPath><clipPath id="430f261b45"><path d="M 431.441406 -306.226562 L 1023.359375 124.550781 L 592.582031 716.46875 L 0.664062 285.691406 Z M 431.441406 -306.226562 " clip-rule="nonzero"/></clipPath><clipPath id="ba4074448b"><path d="M 791 78 L 927 78 L 927 244 L 791 244 Z M 791 78 " clip-rule="nonzero"/></clipPath><clipPath id="9a54a4e8d5"><path d="M 431.441406 -306.226562 L 1023.359375 124.550781 L 592.582031 716.46875 L 0.664062 285.691406 Z M 431.441406 -306.226562 " clip-rule="nonzero"/></clipPath><clipPath id="933f314569"><path d="M 431.441406 -306.226562 L 1023.359375 124.550781 L 592.582031 716.46875 L 0.664062 285.691406 Z M 431.441406 -306.226562 " clip-rule="nonzero"/></clipPath><clipPath id="ebe4d1f758"><path d="M 431.441406 -306.226562 L 1023.359375 124.550781 L 592.582031 716.46875 L 0.664062 285.691406 Z M 431.441406 -306.226562 " clip-rule="nonzero"/></clipPath><clipPath id="0dad70bb69"><path d="M 678 118 L 750 118 L 750 215 L 678 215 Z M 678 118 " clip-rule="nonzero"/></clipPath><clipPath id="71767939be"><path d="M 431.441406 -306.226562 L 1023.359375 124.550781 L 592.582031 716.46875 L 0.664062 285.691406 Z M 431.441406 -306.226562 " clip-rule="nonzero"/></clipPath><clipPath id="35cb7f9011"><path d="M 431.441406 -306.226562 L 1023.359375 124.550781 L 592.582031 716.46875 L 0.664062 285.691406 Z M 431.441406 -306.226562 " clip-rule="nonzero"/></clipPath><clipPath id="a6c27b556e"><path d="M 431.441406 -306.226562 L 1023.359375 124.550781 L 592.582031 716.46875 L 0.664062 285.691406 Z M 431.441406 -306.226562 " clip-rule="nonzero"/></clipPath><clipPath id="eb431eec99"><path d="M 680 21 L 820 21 L 820 216 L 680 216 Z M 680 21 " clip-rule="nonzero"/></clipPath><clipPath id="8b5c04dfd0"><path d="M 431.441406 -306.226562 L 1023.359375 124.550781 L 592.582031 716.46875 L 0.664062 285.691406 Z M 431.441406 -306.226562 " clip-rule="nonzero"/></clipPath><clipPath id="56733b5596"><path d="M 431.441406 -306.226562 L 1023.359375 124.550781 L 592.582031 716.46875 L 0.664062 285.691406 Z M 431.441406 -306.226562 " clip-rule="nonzero"/></clipPath><clipPath id="ddb0611cc1"><path d="M 431.441406 -306.226562 L 1023.359375 124.550781 L 592.582031 716.46875 L 0.664062 285.691406 Z M 431.441406 -306.226562 " clip-rule="nonzero"/></clipPath><clipPath id="0126519514"><path d="M 680 28 L 820 28 L 820 216 L 680 216 Z M 680 28 " clip-rule="nonzero"/></clipPath><clipPath id="cadb05d84e"><path d="M 431.441406 -306.226562 L 1023.359375 124.550781 L 592.582031 716.46875 L 0.664062 285.691406 Z M 431.441406 -306.226562 " clip-rule="nonzero"/></clipPath><clipPath id="6dd0764eea"><path d="M 431.441406 -306.226562 L 1023.359375 124.550781 L 592.582031 716.46875 L 0.664062 285.691406 Z M 431.441406 -306.226562 " clip-rule="nonzero"/></clipPath><clipPath id="3d569bfdcc"><path d="M 431.441406 -306.226562 L 1023.359375 124.550781 L 592.582031 716.46875 L 0.664062 285.691406 Z M 431.441406 -306.226562 " clip-rule="nonzero"/></clipPath><clipPath id="c44ed287b1"><path d="M 751 22 L 822 22 L 822 120 L 751 120 Z M 751 22 " clip-rule="nonzero"/></clipPath><clipPath id="8b1fe0f81f"><path d="M 431.441406 -306.226562 L 1023.359375 124.550781 L 592.582031 716.46875 L 0.664062 285.691406 Z M 431.441406 -306.226562 " clip-rule="nonzero"/></clipPath><clipPath id="04500833ca"><path d="M 431.441406 -306.226562 L 1023.359375 124.550781 L 592.582031 716.46875 L 0.664062 285.691406 Z M 431.441406 -306.226562 " clip-rule="nonzero"/></clipPath><clipPath id="d76bcdfbff"><path d="M 431.441406 -306.226562 L 1023.359375 124.550781 L 592.582031 716.46875 L 0.664062 285.691406 Z M 431.441406 -306.226562 " clip-rule="nonzero"/></clipPath><clipPath id="bbca00e78f"><path d="M 294 115 L 365 115 L 365 230 L 294 230 Z M 294 115 " clip-rule="nonzero"/></clipPath><clipPath id="22b968e143"><path d="M 431.441406 -306.226562 L 1023.359375 124.550781 L 592.582031 716.46875 L 0.664062 285.691406 Z M 431.441406 -306.226562 " clip-rule="nonzero"/></clipPath><clipPath id="6f1627ffb2"><path d="M 431.441406 -306.226562 L 1023.359375 124.550781 L 592.582031 716.46875 L 0.664062 285.691406 Z M 431.441406 -306.226562 " clip-rule="nonzero"/></clipPath><clipPath id="d7fb8fb360"><path d="M 431.441406 -306.226562 L 1023.359375 124.550781 L 592.582031 716.46875 L 0.664062 285.691406 Z M 431.441406 -306.226562 " clip-rule="nonzero"/></clipPath><clipPath id="8539d51080"><path d="M 323 98 L 427 98 L 427 218 L 323 218 Z M 323 98 " clip-rule="nonzero"/></clipPath><clipPath id="ffa94334f5"><path d="M 431.441406 -306.226562 L 1023.359375 124.550781 L 592.582031 716.46875 L 0.664062 285.691406 Z M 431.441406 -306.226562 " clip-rule="nonzero"/></clipPath><clipPath id="b4571efd94"><path d="M 431.441406 -306.226562 L 1023.359375 124.550781 L 592.582031 716.46875 L 0.664062 285.691406 Z M 431.441406 -306.226562 " clip-rule="nonzero"/></clipPath><clipPath id="4a70ce6ffd"><path d="M 431.441406 -306.226562 L 1023.359375 124.550781 L 592.582031 716.46875 L 0.664062 285.691406 Z M 431.441406 -306.226562 " clip-rule="nonzero"/></clipPath><clipPath id="5bddd059e2"><path d="M 385 84 L 490 84 L 490 203 L 385 203 Z M 385 84 " clip-rule="nonzero"/></clipPath><clipPath id="b6960a05c4"><path d="M 431.441406 -306.226562 L 1023.359375 124.550781 L 592.582031 716.46875 L 0.664062 285.691406 Z M 431.441406 -306.226562 " clip-rule="nonzero"/></clipPath><clipPath id="8fc8dc787f"><path d="M 431.441406 -306.226562 L 1023.359375 124.550781 L 592.582031 716.46875 L 0.664062 285.691406 Z M 431.441406 -306.226562 " clip-rule="nonzero"/></clipPath><clipPath id="f8c4396093"><path d="M 431.441406 -306.226562 L 1023.359375 124.550781 L 592.582031 716.46875 L 0.664062 285.691406 Z M 431.441406 -306.226562 " clip-rule="nonzero"/></clipPath><clipPath id="75a71f1745"><path d="M 448 73 L 553 73 L 553 191 L 448 191 Z M 448 73 " clip-rule="nonzero"/></clipPath><clipPath id="a4e51b1329"><path d="M 431.441406 -306.226562 L 1023.359375 124.550781 L 592.582031 716.46875 L 0.664062 285.691406 Z M 431.441406 -306.226562 " clip-rule="nonzero"/></clipPath><clipPath id="3ba0689ad7"><path d="M 431.441406 -306.226562 L 1023.359375 124.550781 L 592.582031 716.46875 L 0.664062 285.691406 Z M 431.441406 -306.226562 " clip-rule="nonzero"/></clipPath><clipPath id="dffa50d8c1"><path d="M 431.441406 -306.226562 L 1023.359375 124.550781 L 592.582031 716.46875 L 0.664062 285.691406 Z M 431.441406 -306.226562 " clip-rule="nonzero"/></clipPath><clipPath id="a19ccd3f3c"><path d="M 511 65 L 617 65 L 617 182 L 511 182 Z M 511 65 " clip-rule="nonzero"/></clipPath><clipPath id="7d90307abd"><path d="M 431.441406 -306.226562 L 1023.359375 124.550781 L 592.582031 716.46875 L 0.664062 285.691406 Z M 431.441406 -306.226562 " clip-rule="nonzero"/></clipPath><clipPath id="946a61df60"><path d="M 431.441406 -306.226562 L 1023.359375 124.550781 L 592.582031 716.46875 L 0.664062 285.691406 Z M 431.441406 -306.226562 " clip-rule="nonzero"/></clipPath><clipPath id="9ea1163760"><path d="M 431.441406 -306.226562 L 1023.359375 124.550781 L 592.582031 716.46875 L 0.664062 285.691406 Z M 431.441406 -306.226562 " clip-rule="nonzero"/></clipPath><clipPath id="922d526a62"><path d="M 575 60 L 681 60 L 681 176 L 575 176 Z M 575 60 " clip-rule="nonzero"/></clipPath><clipPath id="9603c40d10"><path d="M 431.441406 -306.226562 L 1023.359375 124.550781 L 592.582031 716.46875 L 0.664062 285.691406 Z M 431.441406 -306.226562 " clip-rule="nonzero"/></clipPath><clipPath id="c2ea490832"><path d="M 431.441406 -306.226562 L 1023.359375 124.550781 L 592.582031 716.46875 L 0.664062 285.691406 Z M 431.441406 -306.226562 " clip-rule="nonzero"/></clipPath><clipPath id="ac8e19030b"><path d="M 431.441406 -306.226562 L 1023.359375 124.550781 L 592.582031 716.46875 L 0.664062 285.691406 Z M 431.441406 -306.226562 " clip-rule="nonzero"/></clipPath><clipPath id="e70ba88e7f"><path d="M 639 58 L 697 58 L 697 173 L 639 173 Z M 639 58 " clip-rule="nonzero"/></clipPath><clipPath id="ca60b88bb4"><path d="M 431.441406 -306.226562 L 1023.359375 124.550781 L 592.582031 716.46875 L 0.664062 285.691406 Z M 431.441406 -306.226562 " clip-rule="nonzero"/></clipPath><clipPath id="13cfa3adf7"><path d="M 431.441406 -306.226562 L 1023.359375 124.550781 L 592.582031 716.46875 L 0.664062 285.691406 Z M 431.441406 -306.226562 " clip-rule="nonzero"/></clipPath><clipPath id="c44232ae80"><path d="M 431.441406 -306.226562 L 1023.359375 124.550781 L 592.582031 716.46875 L 0.664062 285.691406 Z M 431.441406 -306.226562 " clip-rule="nonzero"/></clipPath><clipPath id="c3b0348a5b"><path d="M 7 169 L 220 169 L 220 378 L 7 378 Z M 7 169 " clip-rule="nonzero"/></clipPath><clipPath id="f4df5c073c"><path d="M 431.441406 -306.226562 L 1023.359375 124.550781 L 592.582031 716.46875 L 0.664062 285.691406 Z M 431.441406 -306.226562 " clip-rule="nonzero"/></clipPath><clipPath id="0ce480ed09"><path d="M 431.441406 -306.226562 L 1023.359375 124.550781 L 592.582031 716.46875 L 0.664062 285.691406 Z M 431.441406 -306.226562 " clip-rule="nonzero"/></clipPath><clipPath id="088e2afcbc"><path d="M 431.441406 -306.226562 L 1023.359375 124.550781 L 592.582031 716.46875 L 0.664062 285.691406 Z M 431.441406 -306.226562 " clip-rule="nonzero"/></clipPath><clipPath id="201d63d80a"><path d="M 121.34375 119.867188 L 253.449219 216.011719 L 132.914062 381.636719 L 0.804688 285.496094 Z M 121.34375 119.867188 " clip-rule="nonzero"/></clipPath><clipPath id="d13f6a70a3"><path d="M 121.34375 119.867188 L 253.449219 216.011719 L 132.921875 381.625 L 0.8125 285.484375 Z M 121.34375 119.867188 " clip-rule="nonzero"/></clipPath><clipPath id="78ef2ad61f"><path d="M 60 219 L 157 219 L 157 283 L 60 283 Z M 60 219 " clip-rule="nonzero"/></clipPath><clipPath id="6a7ab85adc"><path d="M 431.441406 -306.226562 L 1023.359375 124.550781 L 592.582031 716.46875 L 0.664062 285.691406 Z M 431.441406 -306.226562 " clip-rule="nonzero"/></clipPath><clipPath id="98fe7e67e6"><path d="M 431.441406 -306.226562 L 1023.359375 124.550781 L 592.582031 716.46875 L 0.664062 285.691406 Z M 431.441406 -306.226562 " clip-rule="nonzero"/></clipPath><clipPath id="934dd5c067"><path d="M 431.441406 -306.226562 L 1023.359375 124.550781 L 592.582031 716.46875 L 0.664062 285.691406 Z M 431.441406 -306.226562 " clip-rule="nonzero"/></clipPath><clipPath id="2dd343c45f"><path d="M 110 247 L 178 247 L 178 334 L 110 334 Z M 110 247 " clip-rule="nonzero"/></clipPath><clipPath id="272f0b5557"><path d="M 431.441406 -306.226562 L 1023.359375 124.550781 L 592.582031 716.46875 L 0.664062 285.691406 Z M 431.441406 -306.226562 " clip-rule="nonzero"/></clipPath><clipPath id="969606f5e4"><path d="M 431.441406 -306.226562 L 1023.359375 124.550781 L 592.582031 716.46875 L 0.664062 285.691406 Z M 431.441406 -306.226562 " clip-rule="nonzero"/></clipPath><clipPath id="aad3df51c1"><path d="M 431.441406 -306.226562 L 1023.359375 124.550781 L 592.582031 716.46875 L 0.664062 285.691406 Z M 431.441406 -306.226562 " clip-rule="nonzero"/></clipPath><clipPath id="04e58cd4a0"><path d="M 270 177 L 357 177 L 357 285 L 270 285 Z M 270 177 " clip-rule="nonzero"/></clipPath><clipPath id="e5d7e65b81"><path d="M 431.441406 -306.226562 L 1023.359375 124.550781 L 592.582031 716.46875 L 0.664062 285.691406 Z M 431.441406 -306.226562 " clip-rule="nonzero"/></clipPath><clipPath id="4ed3b16bf1"><path d="M 431.441406 -306.226562 L 1023.359375 124.550781 L 592.582031 716.46875 L 0.664062 285.691406 Z M 431.441406 -306.226562 " clip-rule="nonzero"/></clipPath><clipPath id="727a1e0b7d"><path d="M 431.441406 -306.226562 L 1023.359375 124.550781 L 592.582031 716.46875 L 0.664062 285.691406 Z M 431.441406 -306.226562 " clip-rule="nonzero"/></clipPath><clipPath id="3046053d06"><path d="M 162 104 L 246 104 L 246 218 L 162 218 Z M 162 104 " clip-rule="nonzero"/></clipPath><clipPath id="568297692b"><path d="M 431.441406 -306.226562 L 1023.359375 124.550781 L 592.582031 716.46875 L 0.664062 285.691406 Z M 431.441406 -306.226562 " clip-rule="nonzero"/></clipPath><clipPath id="5d58ac183e"><path d="M 431.441406 -306.226562 L 1023.359375 124.550781 L 592.582031 716.46875 L 0.664062 285.691406 Z M 431.441406 -306.226562 " clip-rule="nonzero"/></clipPath><clipPath id="4f6916995b"><path d="M 431.441406 -306.226562 L 1023.359375 124.550781 L 592.582031 716.46875 L 0.664062 285.691406 Z M 431.441406 -306.226562 " clip-rule="nonzero"/></clipPath><clipPath id="8cf2eea35a"><path d="M 202 82 L 313 82 L 313 306 L 202 306 Z M 202 82 " clip-rule="nonzero"/></clipPath><clipPath id="1169d78d6c"><path d="M 431.441406 -306.226562 L 1023.359375 124.550781 L 592.582031 716.46875 L 0.664062 285.691406 Z M 431.441406 -306.226562 " clip-rule="nonzero"/></clipPath><clipPath id="43bc0469e0"><path d="M 431.441406 -306.226562 L 1023.359375 124.550781 L 592.582031 716.46875 L 0.664062 285.691406 Z M 431.441406 -306.226562 " clip-rule="nonzero"/></clipPath><clipPath id="e05baa523b"><path d="M 431.441406 -306.226562 L 1023.359375 124.550781 L 592.582031 716.46875 L 0.664062 285.691406 Z M 431.441406 -306.226562 " clip-rule="nonzero"/></clipPath><clipPath id="371251f009"><path d="M 805 70 L 1015 70 L 1015 252 L 805 252 Z M 805 70 " clip-rule="nonzero"/></clipPath><clipPath id="f6fa661b7d"><path d="M 431.441406 -306.226562 L 1023.359375 124.550781 L 592.582031 716.46875 L 0.664062 285.691406 Z M 431.441406 -306.226562 " clip-rule="nonzero"/></clipPath><clipPath id="807f6923a3"><path d="M 431.441406 -306.226562 L 1023.359375 124.550781 L 592.582031 716.46875 L 0.664062 285.691406 Z M 431.441406 -306.226562 " clip-rule="nonzero"/></clipPath><clipPath id="03b93fe7f5"><path d="M 431.441406 -306.226562 L 1023.359375 124.550781 L 592.582031 716.46875 L 0.664062 285.691406 Z M 431.441406 -306.226562 " clip-rule="nonzero"/></clipPath><clipPath id="c0dcffcdac"><path d="M 856 106 L 964 106 L 964 145 L 856 145 Z M 856 106 " clip-rule="nonzero"/></clipPath><clipPath id="210e4701f1"><path d="M 431.441406 -306.226562 L 1023.359375 124.550781 L 592.582031 716.46875 L 0.664062 285.691406 Z M 431.441406 -306.226562 " clip-rule="nonzero"/></clipPath><clipPath id="4f87be5819"><path d="M 431.441406 -306.226562 L 1023.359375 124.550781 L 592.582031 716.46875 L 0.664062 285.691406 Z M 431.441406 -306.226562 " clip-rule="nonzero"/></clipPath><clipPath id="b013ea0c57"><path d="M 431.441406 -306.226562 L 1023.359375 124.550781 L 592.582031 716.46875 L 0.664062 285.691406 Z M 431.441406 -306.226562 " clip-rule="nonzero"/></clipPath><clipPath id="5c61b67c9a"><path d="M 845 139 L 931 139 L 931 207 L 845 207 Z M 845 139 " clip-rule="nonzero"/></clipPath><clipPath id="d6503f0349"><path d="M 431.441406 -306.226562 L 1023.359375 124.550781 L 592.582031 716.46875 L 0.664062 285.691406 Z M 431.441406 -306.226562 " clip-rule="nonzero"/></clipPath><clipPath id="0dfc1ee333"><path d="M 431.441406 -306.226562 L 1023.359375 124.550781 L 592.582031 716.46875 L 0.664062 285.691406 Z M 431.441406 -306.226562 " clip-rule="nonzero"/></clipPath><clipPath id="76c91a3d50"><path d="M 431.441406 -306.226562 L 1023.359375 124.550781 L 592.582031 716.46875 L 0.664062 285.691406 Z M 431.441406 -306.226562 " clip-rule="nonzero"/></clipPath><clipPath id="1efb98ebc6"><path d="M 670 109 L 758 109 L 758 223 L 670 223 Z M 670 109 " clip-rule="nonzero"/></clipPath><clipPath id="88a802f4b7"><path d="M 431.441406 -306.226562 L 1023.359375 124.550781 L 592.582031 716.46875 L 0.664062 285.691406 Z M 431.441406 -306.226562 " clip-rule="nonzero"/></clipPath><clipPath id="6c08be4d49"><path d="M 431.441406 -306.226562 L 1023.359375 124.550781 L 592.582031 716.46875 L 0.664062 285.691406 Z M 431.441406 -306.226562 " clip-rule="nonzero"/></clipPath><clipPath id="b8cf45dcf6"><path d="M 431.441406 -306.226562 L 1023.359375 124.550781 L 592.582031 716.46875 L 0.664062 285.691406 Z M 431.441406 -306.226562 " clip-rule="nonzero"/></clipPath><clipPath id="796ea46d25"><path d="M 743 14 L 831 14 L 831 128 L 743 128 Z M 743 14 " clip-rule="nonzero"/></clipPath><clipPath id="3db87a9bbe"><path d="M 431.441406 -306.226562 L 1023.359375 124.550781 L 592.582031 716.46875 L 0.664062 285.691406 Z M 431.441406 -306.226562 " clip-rule="nonzero"/></clipPath><clipPath id="b70c1a02f1"><path d="M 431.441406 -306.226562 L 1023.359375 124.550781 L 592.582031 716.46875 L 0.664062 285.691406 Z M 431.441406 -306.226562 " clip-rule="nonzero"/></clipPath><clipPath id="2fd433687d"><path d="M 431.441406 -306.226562 L 1023.359375 124.550781 L 592.582031 716.46875 L 0.664062 285.691406 Z M 431.441406 -306.226562 " clip-rule="nonzero"/></clipPath><clipPath id="23aa6c23ea"><path d="M 672 13 L 828 13 L 828 224 L 672 224 Z M 672 13 " clip-rule="nonzero"/></clipPath><clipPath id="9348f9e9af"><path d="M 431.441406 -306.226562 L 1023.359375 124.550781 L 592.582031 716.46875 L 0.664062 285.691406 Z M 431.441406 -306.226562 " clip-rule="nonzero"/></clipPath><clipPath id="82d54f7890"><path d="M 431.441406 -306.226562 L 1023.359375 124.550781 L 592.582031 716.46875 L 0.664062 285.691406 Z M 431.441406 -306.226562 " clip-rule="nonzero"/></clipPath><clipPath id="f58b3602e9"><path d="M 431.441406 -306.226562 L 1023.359375 124.550781 L 592.582031 716.46875 L 0.664062 285.691406 Z M 431.441406 -306.226562 " clip-rule="nonzero"/></clipPath></defs><g clip-path="url(#a68c995f07)"><g clip-path="url(#43e41382cb)"><g clip-path="url(#0c1d379bcd)"><g clip-path="url(#6775cb27c3)"><path fill="#ffffff" d="M 341 218.855469 C 338.265625 219.6875 335.546875 220.488281 332.808594 221.316406 C 317.296875 209.792969 302.601562 197.886719 288.71875 185.761719 L 288.695312 185.746094 C 292.382812 166.515625 297.007812 146.917969 302.597656 127.140625 C 305.183594 126.289062 307.789062 125.476562 310.394531 124.679688 C 318.5 122.128906 326.472656 125.730469 329.679688 133.203125 C 330.796875 135.816406 331.914062 138.425781 333.042969 141.050781 C 333.066406 141.121094 333.082031 141.171875 333.105469 141.210938 C 337.261719 150.902344 341.429688 160.628906 345.597656 170.351562 C 348.660156 177.546875 351.738281 184.722656 354.832031 191.929688 C 359.035156 202.472656 352.316406 215.480469 341 218.855469 " fill-opacity="1" fill-rule="nonzero"/></g></g></g></g><g clip-path="url(#8b3b1e7435)"><g clip-path="url(#5b3fecef1f)"><g clip-path="url(#77326f0efa)"><g clip-path="url(#62f7e4fe17)"><path fill="#08c5d1" d="M 402.914062 202.097656 C 394.441406 204.175781 385.96875 206.304688 377.515625 208.582031 C 369.320312 210.753906 361.308594 207.074219 358.082031 199.554688 C 357 197.019531 355.921875 194.476562 354.832031 191.929688 C 351.738281 184.722656 348.660156 177.546875 345.597656 170.351562 C 341.429688 160.628906 337.261719 150.902344 333.105469 141.210938 C 333.082031 141.171875 333.066406 141.121094 333.042969 141.050781 C 328.644531 130.527344 335.355469 117.132812 346.796875 113.90625 C 355.214844 111.574219 363.683594 109.3125 372.128906 107.125 C 380.335938 105.03125 388.402344 108.953125 391.652344 116.539062 C 392.792969 119.214844 393.914062 121.851562 395.046875 124.523438 C 395.070312 124.5625 395.0625 124.59375 395.09375 124.648438 C 395.832031 126.324219 396.523438 128.003906 397.234375 129.714844 C 403.75 145 410.257812 160.3125 416.792969 175.621094 C 421.363281 186.363281 414.53125 199.253906 402.914062 202.097656 " fill-opacity="1" fill-rule="nonzero"/></g></g></g></g><g clip-path="url(#a55352646a)"><g clip-path="url(#85169a2200)"><g clip-path="url(#72adecfda1)"><g clip-path="url(#e05dcf79b0)"><path fill="#ffffff" d="M 465.542969 188.433594 C 456.96875 190.074219 448.414062 191.820312 439.871094 193.648438 C 431.585938 195.394531 423.492188 191.367188 420.25 183.746094 C 411.863281 164.011719 403.476562 144.3125 395.09375 124.648438 C 390.542969 113.960938 397.34375 100.871094 408.984375 98.238281 C 417.511719 96.308594 426.046875 94.472656 434.601562 92.726562 C 442.894531 91.023438 451.039062 95.308594 454.292969 103.007812 C 462.722656 122.921875 471.152344 142.867188 479.59375 162.84375 C 484.199219 173.734375 477.265625 186.191406 465.542969 188.433594 " fill-opacity="1" fill-rule="nonzero"/></g></g></g></g><g clip-path="url(#a6fda2797e)"><g clip-path="url(#5f13ea0240)"><g clip-path="url(#f8d8818d35)"><g clip-path="url(#67f2cd0924)"><path fill="#08c5d1" d="M 528.753906 177.921875 C 520.105469 179.144531 511.472656 180.453125 502.847656 181.84375 C 494.496094 183.179688 486.335938 178.792969 483.078125 171.070312 C 474.632812 151.074219 466.203125 131.132812 457.757812 111.207031 C 453.1875 100.375 460.066406 87.71875 471.828125 85.664062 C 480.425781 84.164062 489.042969 82.753906 497.679688 81.429688 C 506.042969 80.140625 514.238281 84.804688 517.503906 92.585938 C 525.980469 112.765625 534.460938 132.96875 542.941406 153.207031 C 547.558594 164.230469 540.582031 176.253906 528.753906 177.921875 " fill-opacity="1" fill-rule="nonzero"/></g></g></g></g><g clip-path="url(#c58ec85efe)"><g clip-path="url(#d6e0dfb86d)"><g clip-path="url(#424cd01e19)"><g clip-path="url(#9db78b4aef)"><path fill="#ffffff" d="M 592.421875 170.554688 C 583.714844 171.339844 575.03125 172.21875 566.347656 173.1875 C 557.929688 174.128906 549.71875 169.359375 546.429688 161.53125 C 537.957031 141.296875 529.480469 121.078125 521.003906 100.902344 C 516.410156 89.921875 523.355469 77.695312 535.199219 76.230469 C 543.875 75.164062 552.554688 74.191406 561.234375 73.296875 C 569.664062 72.417969 577.917969 77.445312 581.191406 85.324219 C 589.703125 105.769531 598.203125 126.242188 606.714844 146.714844 C 611.332031 157.886719 604.304688 169.476562 592.421875 170.554688 " fill-opacity="1" fill-rule="nonzero"/></g></g></g></g><g clip-path="url(#67c822cb1e)"><g clip-path="url(#f650518254)"><g clip-path="url(#b94ed29d38)"><g clip-path="url(#413eb92786)"><path fill="#08c5d1" d="M 656.40625 166.355469 C 647.675781 166.726562 638.933594 167.164062 630.21875 167.6875 C 621.773438 168.210938 613.5 163.082031 610.203125 155.164062 C 609.027344 152.355469 607.871094 149.527344 606.695312 146.714844 C 599.367188 129.039062 592.03125 111.371094 584.691406 93.734375 C 580.066406 82.644531 587.078125 70.847656 599 69.992188 C 607.714844 69.351562 616.445312 68.785156 625.171875 68.320312 C 633.625 67.875 641.90625 73.265625 645.195312 81.265625 C 646.378906 84.09375 647.53125 86.925781 648.714844 89.773438 C 656.058594 107.628906 663.425781 125.503906 670.773438 143.433594 C 675.417969 154.734375 668.355469 165.882812 656.40625 166.355469 " fill-opacity="1" fill-rule="nonzero"/></g></g></g></g><g clip-path="url(#2d717f57c7)"><g clip-path="url(#f8e888257a)"><g clip-path="url(#39fac36c0a)"><g clip-path="url(#299ca9d62c)"><path fill="#ffffff" d="M 687.949219 164.398438 C 681.929688 162.488281 676.742188 157.9375 674.292969 151.960938 C 673.132812 149.109375 671.964844 146.273438 670.773438 143.433594 C 663.425781 125.503906 656.058594 107.628906 648.714844 89.773438 C 644.078125 78.515625 651.125 67.15625 663.078125 66.886719 C 671.058594 66.695312 679.003906 66.582031 686.976562 66.5625 C 698.367188 83.675781 708.789062 100.882812 718.226562 118.050781 L 718.210938 118.074219 C 708.960938 133.546875 698.882812 149.027344 687.949219 164.398438 " fill-opacity="1" fill-rule="nonzero"/></g></g></g></g><g clip-path="url(#9fd8cd5fbe)"><g clip-path="url(#5253696759)"><g clip-path="url(#8fdab749cc)"><g clip-path="url(#43872c8290)"><path fill="#e6e6e6" d="M 354.832031 191.929688 C 351.738281 184.722656 348.660156 177.546875 345.597656 170.351562 L 345.574219 170.335938 C 342.933594 174.015625 339.144531 176.9375 334.609375 178.296875 C 331.863281 179.117188 329.144531 179.921875 326.421875 180.757812 C 315.570312 172.6875 305.132812 164.445312 295.085938 156.039062 C 292.703125 166.023438 290.570312 175.933594 288.695312 185.746094 L 288.71875 185.761719 C 302.601562 197.886719 317.296875 209.792969 332.808594 221.316406 C 335.546875 220.488281 338.265625 219.6875 341 218.855469 C 352.316406 215.480469 359.035156 202.472656 354.832031 191.929688 " fill-opacity="1" fill-rule="nonzero"/></g></g></g></g><g clip-path="url(#c321f13959)"><g clip-path="url(#c2c426166b)"><g clip-path="url(#a1bf0cb4f7)"><g clip-path="url(#9d69943ef9)"><path fill="#09aeb2" d="M 416.792969 175.621094 C 413.730469 168.457031 410.699219 161.320312 407.65625 154.152344 C 404.96875 157.691406 401.117188 160.402344 396.523438 161.523438 C 388.050781 163.597656 379.574219 165.75 371.121094 168 C 362.933594 170.183594 354.914062 166.496094 351.6875 158.980469 C 350.609375 156.4375 349.519531 153.890625 348.433594 151.351562 C 345.347656 144.167969 342.269531 136.972656 339.210938 129.792969 C 338.066406 127.117188 336.933594 124.484375 335.789062 121.804688 C 331.785156 127.375 330.414062 134.726562 333.042969 141.050781 C 333.066406 141.121094 333.082031 141.171875 333.105469 141.210938 C 337.261719 150.902344 341.429688 160.628906 345.597656 170.351562 C 348.660156 177.546875 351.738281 184.722656 354.832031 191.929688 C 355.921875 194.476562 357 197.019531 358.082031 199.554688 C 361.308594 207.074219 369.320312 210.753906 377.515625 208.582031 C 385.96875 206.304688 394.441406 204.175781 402.914062 202.097656 C 414.53125 199.253906 421.363281 186.363281 416.792969 175.621094 " fill-opacity="1" fill-rule="nonzero"/></g></g></g></g><g clip-path="url(#f82867a7ef)"><g clip-path="url(#fcaac7cfd2)"><g clip-path="url(#c2114689b6)"><g clip-path="url(#b239e8de74)"><path fill="#e6e6e6" d="M 479.59375 162.84375 C 476.546875 155.578125 473.460938 148.339844 470.402344 141.089844 C 467.675781 144.460938 463.808594 146.976562 459.15625 147.875 C 450.582031 149.519531 442.023438 151.246094 433.488281 153.058594 C 425.195312 154.839844 417.105469 150.796875 413.871094 143.175781 C 408.515625 130.601562 403.183594 118.058594 397.839844 105.53125 C 393.753906 110.894531 392.34375 118.199219 395.09375 124.648438 C 403.476562 144.3125 411.863281 164.011719 420.25 183.746094 C 423.492188 191.367188 431.585938 195.394531 439.871094 193.648438 C 448.414062 191.820312 456.96875 190.074219 465.542969 188.433594 C 477.265625 186.191406 484.199219 173.734375 479.59375 162.84375 " fill-opacity="1" fill-rule="nonzero"/></g></g></g></g><g clip-path="url(#16062741bb)"><g clip-path="url(#836ab1609a)"><g clip-path="url(#aff48a1f20)"><g clip-path="url(#d118c39590)"><path fill="#09aeb2" d="M 542.941406 153.207031 C 539.859375 145.84375 536.78125 138.519531 533.699219 131.179688 C 530.945312 134.386719 527.050781 136.6875 522.351562 137.351562 C 513.714844 138.566406 505.078125 139.878906 496.464844 141.273438 C 488.105469 142.625 479.941406 138.21875 476.675781 130.507812 C 471.300781 117.769531 465.929688 105.078125 460.558594 92.363281 C 456.425781 97.488281 455.007812 104.679688 457.757812 111.207031 C 466.203125 131.132812 474.632812 151.074219 483.078125 171.070312 C 486.335938 178.792969 494.496094 183.179688 502.847656 181.84375 C 511.472656 180.453125 520.105469 179.144531 528.753906 177.921875 C 540.582031 176.253906 547.558594 164.230469 542.941406 153.207031 " fill-opacity="1" fill-rule="nonzero"/></g></g></g></g><g clip-path="url(#73a3906c49)"><g clip-path="url(#0d35a1bb6f)"><g clip-path="url(#45699fac14)"><g clip-path="url(#bc9fcbb376)"><path fill="#e6e6e6" d="M 606.714844 146.714844 C 603.621094 139.269531 600.523438 131.84375 597.4375 124.414062 C 594.671875 127.460938 590.742188 129.558594 586.019531 129.992188 C 577.324219 130.785156 568.625 131.652344 559.957031 132.609375 C 551.53125 133.550781 543.3125 128.777344 540.042969 120.972656 C 534.640625 108.074219 529.230469 95.207031 523.847656 82.335938 C 519.667969 87.234375 518.226562 94.285156 521.003906 100.902344 C 529.480469 121.078125 537.957031 141.296875 546.429688 161.53125 C 549.71875 169.359375 557.929688 174.128906 566.347656 173.1875 C 575.03125 172.21875 583.714844 171.339844 592.421875 170.554688 C 604.304688 169.476562 611.332031 157.886719 606.714844 146.714844 " fill-opacity="1" fill-rule="nonzero"/></g></g></g></g><g clip-path="url(#8137ed6fe4)"><g clip-path="url(#0d4f2b6d71)"><g clip-path="url(#3e675348d1)"><g clip-path="url(#0d4e501706)"><path fill="#09aeb2" d="M 670.773438 143.433594 C 667.675781 135.863281 664.578125 128.367188 661.476562 120.832031 C 658.710938 123.714844 654.753906 125.59375 650.015625 125.800781 C 641.28125 126.144531 632.542969 126.601562 623.828125 127.125 C 615.375 127.632812 607.097656 122.515625 603.824219 114.59375 C 602.648438 111.789062 601.488281 108.957031 600.3125 106.152344 C 596.0625 95.917969 591.808594 85.695312 587.570312 75.46875 C 583.367188 80.117188 581.910156 87.042969 584.691406 93.734375 C 592.03125 111.371094 599.367188 129.039062 606.695312 146.714844 C 607.871094 149.527344 609.027344 152.355469 610.203125 155.164062 C 613.5 163.082031 621.773438 168.210938 630.21875 167.6875 C 638.933594 167.164062 647.675781 166.726562 656.40625 166.355469 C 668.355469 165.882812 675.417969 154.734375 670.773438 143.433594 " fill-opacity="1" fill-rule="nonzero"/></g></g></g></g><g clip-path="url(#99303feeef)"><g clip-path="url(#888f253ef1)"><g clip-path="url(#072dbd323b)"><g clip-path="url(#cdbc611c3a)"><path fill="#e6e6e6" d="M 718.210938 118.074219 L 718.226562 118.050781 C 713.414062 109.308594 708.335938 100.535156 703.011719 91.777344 C 696.261719 102.503906 689.121094 113.179688 681.550781 123.832031 C 675.535156 121.910156 670.339844 117.375 667.902344 111.40625 C 666.742188 108.535156 665.554688 105.6875 664.378906 102.859375 C 660.128906 92.476562 655.871094 82.125 651.597656 71.773438 C 647.394531 76.191406 645.917969 82.984375 648.714844 89.773438 C 656.058594 107.628906 663.425781 125.503906 670.773438 143.433594 C 671.964844 146.273438 673.132812 149.109375 674.292969 151.960938 C 676.742188 157.9375 681.929688 162.488281 687.949219 164.398438 C 698.882812 149.027344 708.960938 133.546875 718.210938 118.074219 " fill-opacity="1" fill-rule="nonzero"/></g></g></g></g><g clip-path="url(#bfdda658cc)"><g clip-path="url(#c150746d46)"><g clip-path="url(#8a378ba211)"><g clip-path="url(#6502c3a526)"><path fill="#ffffff" d="M 129.476562 369.070312 C 125.144531 354.851562 121.566406 340.1875 118.757812 325.09375 C 103.09375 323.289062 87.039062 322.34375 70.707031 322.304688 C 69.363281 307.40625 68.75 292.132812 68.992188 276.617188 C 51.582031 276.292969 33.832031 276.9375 15.84375 278.648438 C 36.773438 250.636719 84.390625 217.492188 127.226562 198.730469 C 149.578125 188.347656 170.589844 181.832031 185.53125 177.9375 C 196.128906 188.667969 207.371094 199.234375 219.195312 209.59375 L 219.21875 209.609375 C 216.007812 226.296875 213.46875 242.746094 211.652344 258.90625 C 204.785156 266.386719 197.1875 275.082031 189.839844 284.503906 C 166.019531 313.492188 144.324219 349.535156 129.476562 369.070312 " fill-opacity="1" fill-rule="nonzero"/></g></g></g></g><g clip-path="url(#8c25dced16)"><g clip-path="url(#5fcc1b43b9)"><g clip-path="url(#0c40e4dccb)"><g clip-path="url(#6ebac92ef2)"><path fill="#e6e6e6" d="M 189.839844 284.503906 C 197.1875 275.082031 204.785156 266.386719 211.652344 258.90625 C 213.46875 242.746094 216.007812 226.296875 219.21875 209.609375 L 219.195312 209.59375 C 207.371094 199.234375 196.128906 188.667969 185.53125 177.9375 C 183.773438 178.398438 181.933594 178.882812 180.011719 179.417969 C 183.296875 182.402344 186.601562 185.367188 189.953125 188.3125 L 189.976562 188.332031 C 189 193.394531 188.082031 198.433594 187.25 203.453125 C 183.574219 225.199219 174.402344 245.578125 160.824219 262.941406 C 160.757812 263.03125 160.6875 263.128906 160.601562 263.222656 C 144.375 282.984375 129.136719 306.011719 116.359375 324.867188 C 117.164062 324.945312 117.960938 324.996094 118.757812 325.09375 C 121.566406 340.1875 125.144531 354.851562 129.476562 369.070312 C 144.324219 349.535156 166.019531 313.492188 189.839844 284.503906 " fill-opacity="1" fill-rule="nonzero"/></g></g></g></g><g clip-path="url(#ee52f11a1a)"><g clip-path="url(#6fab608c21)"><g clip-path="url(#f758c32d62)"><g clip-path="url(#33fa35e7fb)"><path fill="#09aeb2" d="M 344.921875 256.671875 C 341.839844 260.578125 338.804688 264.476562 335.78125 268.355469 C 328.535156 277.675781 312.691406 279.070312 300.722656 271.320312 C 293.367188 266.46875 286.140625 261.59375 279.101562 256.609375 C 280.851562 233.589844 284.035156 209.90625 288.71875 185.761719 C 302.601562 197.886719 317.296875 209.792969 332.808594 221.316406 C 334.46875 222.5625 336.128906 223.789062 337.820312 225.019531 C 348.914062 233.222656 352.285156 247.296875 344.921875 256.671875 " fill-opacity="1" fill-rule="nonzero"/></g></g></g></g><g clip-path="url(#2facd2192e)"><g clip-path="url(#7ef699ae4f)"><g clip-path="url(#ce14d61c6d)"><g clip-path="url(#9cfa237b91)"><path fill="#ffffff" d="M 251.648438 297.234375 C 245.78125 296.433594 239.957031 295.59375 234.105469 294.734375 C 220.058594 292.722656 209.359375 281.136719 210.617188 268.707031 C 210.929688 265.46875 211.289062 262.191406 211.652344 258.90625 C 213.46875 242.746094 216.007812 226.296875 219.21875 209.609375 C 223.847656 185.429688 229.941406 160.742188 237.585938 135.730469 C 240.078125 127.4375 242.761719 119.121094 245.597656 110.808594 C 250.277344 97.320312 263.644531 88.699219 275.074219 91.59375 C 279.847656 92.8125 284.632812 94.015625 289.464844 95.199219 C 301.042969 98.074219 307.042969 111.265625 303.3125 124.566406 C 303.066406 125.402344 302.816406 126.269531 302.597656 127.140625 C 297.007812 146.917969 292.382812 166.515625 288.695312 185.746094 L 288.71875 185.761719 C 284.035156 209.90625 280.851562 233.589844 279.101562 256.609375 C 278.476562 264.203125 278.058594 271.726562 277.761719 279.191406 C 277.378906 291.222656 265.847656 299.214844 251.648438 297.234375 " fill-opacity="1" fill-rule="nonzero"/></g></g></g></g><g clip-path="url(#f33d0c3fad)"><g clip-path="url(#9b9c69f745)"><g clip-path="url(#bee0a309f8)"><g clip-path="url(#72a002cfd5)"><path fill="#e6e6e6" d="M 277.761719 279.191406 C 278.058594 271.726562 278.476562 264.203125 279.101562 256.609375 C 280.851562 233.589844 284.035156 209.90625 288.71875 185.761719 L 288.695312 185.746094 C 292.382812 166.515625 297.007812 146.917969 302.597656 127.140625 C 302.816406 126.269531 303.066406 125.402344 303.3125 124.566406 C 307.042969 111.265625 301.042969 98.074219 289.464844 95.199219 C 287.492188 94.722656 285.566406 94.222656 283.617188 93.746094 C 283.460938 94.535156 283.28125 95.347656 283.050781 96.15625 C 282.792969 97.015625 282.546875 97.871094 282.320312 98.734375 C 276.742188 118.523438 272.113281 138.09375 268.429688 157.34375 L 268.441406 157.351562 C 263.757812 181.5 260.585938 205.1875 258.824219 228.203125 C 258.210938 235.800781 257.773438 243.332031 257.496094 250.792969 C 257.101562 262.835938 245.5625 270.820312 231.367188 268.84375 C 225.511719 268.015625 219.679688 267.207031 213.839844 266.335938 C 212.855469 266.199219 211.882812 265.996094 210.933594 265.761719 C 210.828125 266.75 210.710938 267.730469 210.617188 268.707031 C 209.359375 281.136719 220.058594 292.722656 234.105469 294.734375 C 239.957031 295.59375 245.78125 296.433594 251.648438 297.234375 C 265.847656 299.214844 277.378906 291.222656 277.761719 279.191406 " fill-opacity="1" fill-rule="nonzero"/></g></g></g></g><g clip-path="url(#f84d55a67f)"><g clip-path="url(#cdd134d4cf)"><g clip-path="url(#bffaf4fe38)"><g clip-path="url(#e318a37699)"><path fill="#08c5d1" d="M 219.21875 209.609375 L 219.195312 209.59375 C 207.371094 199.234375 196.128906 188.667969 185.53125 177.9375 C 182.3125 174.714844 179.179688 171.492188 176.117188 168.246094 C 167.46875 159.191406 168.792969 143.503906 178.664062 133.253906 C 182.71875 129.011719 186.8125 124.757812 190.957031 120.503906 C 200.933594 110.226562 214.945312 109.453125 222.660156 118.699219 C 227.449219 124.394531 232.414062 130.066406 237.5625 135.714844 L 237.585938 135.730469 C 229.941406 160.742188 223.847656 185.429688 219.21875 209.609375 " fill-opacity="1" fill-rule="nonzero"/></g></g></g></g><g clip-path="url(#bb2e8efb43)"><g clip-path="url(#78d6bd4606)"><g clip-path="url(#3f3d1b0927)"><g clip-path="url(#430f261b45)"><path fill="#ffffff" d="M 926.09375 243.546875 C 905.957031 229.527344 874.242188 201.910156 842.648438 181.628906 C 832.761719 174.9375 822.871094 169.007812 814.039062 164.003906 C 807.324219 149.175781 799.859375 134.289062 791.675781 119.402344 L 791.691406 119.378906 C 799.75 105.898438 807.191406 92.398438 813.988281 78.90625 C 829.402344 78.027344 851.40625 77.75 875.855469 80.792969 C 922.382812 85.453125 977.90625 102.355469 1006.410156 122.558594 C 988.765625 126.476562 971.695312 131.300781 955.226562 136.964844 C 960.222656 151.664062 964.328125 166.371094 967.628906 180.988281 C 952.109375 186.042969 937.125 191.878906 922.78125 198.414062 C 924.738281 213.636719 925.847656 228.6875 926.09375 243.546875 " fill-opacity="1" fill-rule="nonzero"/></g></g></g></g><g clip-path="url(#ba4074448b)"><g clip-path="url(#9a54a4e8d5)"><g clip-path="url(#933f314569)"><g clip-path="url(#ebe4d1f758)"><path fill="#e6e6e6" d="M 926.136719 196.9375 C 908.113281 182.839844 886.328125 165.429688 864.582031 151.488281 C 863.34375 150.660156 862.117188 149.835938 860.886719 149.015625 C 844.726562 138.351562 831.570312 123.664062 822.746094 106.453125 C 819.8125 100.714844 816.765625 94.996094 813.609375 89.257812 L 813.628906 89.234375 C 815.738281 85.695312 817.808594 82.15625 819.839844 78.621094 C 817.800781 78.71875 815.847656 78.8125 813.988281 78.90625 C 807.191406 92.398438 799.75 105.898438 791.691406 119.378906 L 791.675781 119.402344 C 799.859375 134.289062 807.324219 149.175781 814.039062 164.003906 C 822.871094 169.007812 832.761719 174.9375 842.648438 181.628906 C 874.242188 201.910156 905.957031 229.527344 926.09375 243.546875 C 925.847656 228.6875 924.738281 213.636719 922.78125 198.414062 C 923.882812 197.898438 925.035156 197.433594 926.136719 196.9375 " fill-opacity="1" fill-rule="nonzero"/></g></g></g></g><g clip-path="url(#0dad70bb69)"><g clip-path="url(#71767939be)"><g clip-path="url(#35cb7f9011)"><g clip-path="url(#a6c27b556e)"><path fill="#09aeb2" d="M 749.148438 182.539062 C 743.96875 189.453125 738.59375 196.320312 733.085938 203.191406 C 724.089844 214.257812 708.578125 217.789062 698.824219 211.144531 C 694.761719 208.40625 690.667969 205.625 686.539062 202.855469 C 676.632812 196.191406 675.523438 181.75 683.554688 170.542969 C 685.039062 168.5 686.507812 166.460938 687.949219 164.398438 C 698.882812 149.027344 708.960938 133.546875 718.210938 118.074219 C 730.082031 139.621094 740.402344 161.164062 749.148438 182.539062 " fill-opacity="1" fill-rule="nonzero"/></g></g></g></g><g clip-path="url(#eb431eec99)"><g clip-path="url(#8b5c04dfd0)"><g clip-path="url(#56733b5596)"><g clip-path="url(#ddb0611cc1)"><path fill="#ffffff" d="M 803.679688 204.992188 C 798.394531 207.605469 793.089844 210.175781 787.761719 212.773438 C 774.871094 219.015625 761.441406 214.957031 757.359375 203.625 C 754.789062 196.625 752.070312 189.578125 749.148438 182.539062 C 740.402344 161.164062 730.082031 139.621094 718.210938 118.074219 L 718.226562 118.050781 C 708.789062 100.882812 698.367188 83.675781 686.976562 66.5625 C 686.492188 65.8125 686 65.074219 685.496094 64.332031 C 677.867188 52.847656 679.523438 38.445312 689.652344 32.136719 C 693.878906 29.53125 698.046875 26.910156 702.230469 24.292969 C 712.207031 18.027344 727.597656 22.125 736.160156 33.511719 C 741.449219 40.558594 746.550781 47.636719 751.476562 54.75 C 766.425781 76.21875 779.828125 97.832031 791.675781 119.402344 C 799.859375 134.289062 807.324219 149.175781 814.039062 164.003906 C 815.386719 166.996094 816.726562 170.015625 818.03125 173 C 823.066406 184.441406 816.449219 198.753906 803.679688 204.992188 " fill-opacity="1" fill-rule="nonzero"/></g></g></g></g><g clip-path="url(#0126519514)"><g clip-path="url(#cadb05d84e)"><g clip-path="url(#6dd0764eea)"><g clip-path="url(#3d569bfdcc)"><path fill="#e6e6e6" d="M 818.03125 173 C 817.878906 172.679688 817.738281 172.359375 817.589844 172.035156 C 816.914062 172.425781 816.21875 172.828125 815.492188 173.179688 C 810.195312 175.785156 804.90625 178.367188 799.574219 180.941406 C 786.679688 187.179688 773.242188 183.132812 769.179688 171.804688 C 766.601562 164.789062 763.878906 157.75 760.960938 150.726562 C 752.207031 129.371094 741.902344 107.800781 730.019531 86.265625 L 730.039062 86.238281 C 720.621094 69.078125 710.191406 51.855469 698.800781 34.746094 C 698.316406 33.992188 697.800781 33.257812 697.308594 32.515625 C 696.488281 31.289062 695.789062 29.984375 695.179688 28.6875 C 693.339844 29.847656 691.511719 30.988281 689.652344 32.136719 C 679.523438 38.445312 677.867188 52.847656 685.496094 64.332031 C 686 65.074219 686.492188 65.8125 686.976562 66.5625 C 698.367188 83.675781 708.789062 100.882812 718.226562 118.050781 L 718.210938 118.074219 C 730.082031 139.621094 740.402344 161.164062 749.148438 182.539062 C 752.070312 189.578125 754.789062 196.625 757.359375 203.625 C 761.441406 214.957031 774.871094 219.015625 787.761719 212.773438 C 793.089844 210.175781 798.394531 207.605469 803.679688 204.992188 C 816.449219 198.753906 823.066406 184.441406 818.03125 173 " fill-opacity="1" fill-rule="nonzero"/></g></g></g></g><g clip-path="url(#c44ed287b1)"><g clip-path="url(#8b1fe0f81f)"><g clip-path="url(#04500833ca)"><g clip-path="url(#d76bcdfbff)"><path fill="#08c5d1" d="M 791.691406 119.378906 L 791.675781 119.402344 C 779.828125 97.832031 766.425781 76.21875 751.476562 54.75 L 751.484375 54.738281 C 754.65625 47.800781 757.621094 40.867188 760.425781 33.957031 C 764.945312 22.785156 778.53125 19.21875 791.171875 25.925781 C 796.410156 28.707031 801.613281 31.496094 806.789062 34.289062 C 819.328125 40.992188 825.394531 55.535156 819.960938 66.800781 C 818.03125 70.820312 816.042969 74.871094 813.988281 78.90625 C 807.191406 92.398438 799.75 105.898438 791.691406 119.378906 " fill-opacity="1" fill-rule="nonzero"/></g></g></g></g><g clip-path="url(#bbca00e78f)"><g clip-path="url(#22b968e143)"><g clip-path="url(#6f1627ffb2)"><g clip-path="url(#d7fb8fb360)"><path fill="#1e1e1e" d="M 328.027344 227.886719 C 326.65625 226.890625 325.570312 225.453125 325.039062 223.695312 C 323.714844 219.402344 326.152344 214.867188 330.433594 213.554688 C 333.179688 212.710938 335.929688 211.890625 338.667969 211.078125 C 342.082031 210.058594 345.097656 207.371094 346.722656 203.910156 C 348.179688 200.792969 348.355469 197.445312 347.191406 194.722656 C 338.847656 175.253906 330.535156 155.824219 322.210938 136.40625 C 320.636719 132.710938 316.929688 131.148438 312.804688 132.4375 C 310.214844 133.246094 307.628906 134.035156 305.050781 134.875 C 300.765625 136.238281 296.195312 133.851562 294.84375 129.597656 C 293.476562 125.308594 295.832031 120.734375 300.105469 119.378906 C 302.738281 118.546875 305.363281 117.726562 307.984375 116.90625 C 320.011719 113.144531 332.300781 118.671875 337.171875 130.011719 C 345.472656 149.414062 353.804688 168.871094 362.132812 188.328125 C 365.117188 195.3125 364.863281 203.5 361.449219 210.8125 C 357.828125 218.539062 351.214844 224.296875 343.316406 226.652344 C 340.601562 227.453125 337.902344 228.277344 335.1875 229.105469 C 332.652344 229.882812 330.023438 229.34375 328.027344 227.886719 " fill-opacity="1" fill-rule="nonzero"/></g></g></g></g><g clip-path="url(#8539d51080)"><g clip-path="url(#ffa94334f5)"><g clip-path="url(#b4571efd94)"><g clip-path="url(#4a70ce6ffd)"><path fill="#1e1e1e" d="M 381.4375 116.242188 C 379.402344 114.761719 376.824219 114.335938 374.15625 115.015625 C 365.734375 117.167969 357.261719 119.445312 348.984375 121.753906 C 345.648438 122.691406 342.757812 125.21875 341.113281 128.644531 C 339.59375 131.828125 339.402344 135.246094 340.578125 138.003906 C 348.898438 157.421875 357.238281 176.867188 365.570312 196.347656 C 367.164062 200.074219 371.21875 201.828125 375.433594 200.707031 C 383.945312 198.453125 392.546875 196.273438 401 194.195312 C 404.363281 193.375 407.234375 191.050781 408.847656 187.8125 C 410.324219 184.859375 410.511719 181.578125 409.320312 178.792969 C 400.921875 159.082031 392.542969 139.390625 384.171875 119.734375 C 383.558594 118.300781 382.640625 117.121094 381.4375 116.242188 Z M 358.527344 212.734375 C 355.066406 210.214844 352.339844 206.75 350.625 202.75 C 342.28125 183.265625 333.964844 163.835938 325.648438 144.40625 C 322.609375 137.328125 322.90625 129.023438 326.457031 121.628906 C 330.121094 113.960938 336.746094 108.292969 344.609375 106.097656 C 352.992188 103.753906 361.570312 101.449219 370.105469 99.265625 C 377.449219 97.375 385.054688 98.777344 391 103.101562 C 394.570312 105.703125 397.378906 109.242188 399.132812 113.363281 C 407.503906 133.035156 415.886719 152.722656 424.285156 172.433594 C 427.34375 179.613281 427.011719 187.871094 423.378906 195.101562 C 419.621094 202.59375 412.882812 208.03125 404.847656 209.996094 C 396.515625 212.03125 388.015625 214.199219 379.609375 216.433594 C 372.167969 218.414062 364.476562 217.0625 358.527344 212.734375 " fill-opacity="1" fill-rule="nonzero"/></g></g></g></g><g clip-path="url(#5bddd059e2)"><g clip-path="url(#b6960a05c4)"><g clip-path="url(#8fc8dc787f)"><g clip-path="url(#f8c4396093)"><path fill="#1e1e1e" d="M 443.71875 102.257812 C 441.570312 100.691406 438.90625 100.125 436.230469 100.675781 C 427.757812 102.425781 419.195312 104.257812 410.789062 106.171875 C 407.523438 106.90625 404.726562 109.128906 403.113281 112.296875 C 401.574219 115.300781 401.382812 118.648438 402.585938 121.460938 C 410.949219 141.125 419.347656 160.835938 427.734375 180.566406 C 429.4375 184.535156 433.765625 186.636719 438.179688 185.691406 C 446.695312 183.882812 455.382812 182.125 464.015625 180.445312 C 467.285156 179.828125 470.0625 177.777344 471.648438 174.832031 C 472.519531 173.1875 473.742188 169.863281 472.105469 166 C 463.675781 146.03125 455.238281 126.078125 446.808594 106.164062 C 446.140625 104.59375 445.066406 103.238281 443.71875 102.257812 Z M 421.042969 197.359375 C 417.40625 194.710938 414.554688 191.101562 412.765625 186.921875 C 404.371094 167.203125 396 147.507812 387.613281 127.832031 C 384.523438 120.574219 384.898438 112.207031 388.636719 104.90625 C 392.457031 97.417969 399.21875 92.109375 407.199219 90.304688 C 415.707031 88.378906 424.378906 86.519531 432.96875 84.757812 C 440.085938 83.304688 447.480469 84.890625 453.285156 89.113281 C 457.019531 91.832031 459.96875 95.53125 461.789062 99.839844 C 470.21875 119.75 478.648438 139.699219 487.089844 159.675781 C 490.199219 167.050781 489.792969 175.359375 485.96875 182.503906 C 482.070312 189.792969 475.179688 194.863281 467.074219 196.414062 C 458.554688 198.0625 449.96875 199.800781 441.570312 201.59375 C 434.34375 203.132812 426.859375 201.59375 421.042969 197.359375 " fill-opacity="1" fill-rule="nonzero"/></g></g></g></g><g clip-path="url(#75a71f1745)"><g clip-path="url(#a4e51b1329)"><g clip-path="url(#3ba0689ad7)"><g clip-path="url(#dffa50d8c1)"><path fill="#1e1e1e" d="M 506.546875 91.351562 C 504.300781 89.71875 501.601562 89.054688 498.910156 89.464844 C 490.402344 90.777344 481.761719 92.195312 473.214844 93.675781 C 470.058594 94.234375 467.347656 96.203125 465.78125 99.074219 C 464.242188 101.910156 464.042969 105.1875 465.265625 108.027344 C 473.679688 127.964844 482.117188 147.921875 490.5625 167.917969 C 492.308594 172.078125 496.980469 174.554688 501.5625 173.816406 C 510.136719 172.429688 518.910156 171.097656 527.621094 169.859375 C 530.796875 169.421875 533.46875 167.644531 534.988281 164.957031 C 536.511719 162.316406 536.664062 159.246094 535.433594 156.34375 C 526.960938 136.117188 518.484375 115.914062 510.015625 95.722656 C 509.285156 94 508.082031 92.46875 506.546875 91.351562 Z M 484.242188 185.152344 C 480.414062 182.367188 477.421875 178.597656 475.589844 174.230469 C 467.136719 154.246094 458.722656 134.289062 450.273438 114.367188 C 447.125 106.917969 447.566406 98.511719 451.515625 91.292969 C 455.457031 84.042969 462.367188 79.070312 470.433594 77.652344 C 479.089844 76.140625 487.839844 74.722656 496.429688 73.398438 C 503.402344 72.320312 510.378906 74.035156 516.113281 78.207031 C 520.046875 81.070312 523.128906 84.964844 525.007812 89.433594 C 533.480469 109.617188 541.972656 129.828125 550.441406 150.054688 C 553.601562 157.617188 553.128906 165.96875 549.128906 173 C 545.097656 180.082031 538.078125 184.8125 529.890625 185.976562 C 521.289062 187.183594 512.632812 188.496094 504.164062 189.871094 C 497.058594 191.011719 489.988281 189.332031 484.242188 185.152344 " fill-opacity="1" fill-rule="nonzero"/></g></g></g></g><g clip-path="url(#a19ccd3f3c)"><g clip-path="url(#7d90307abd)"><g clip-path="url(#946a61df60)"><g clip-path="url(#9ea1163760)"><path fill="#1e1e1e" d="M 569.785156 83.550781 C 567.484375 81.875 564.742188 81.09375 562.070312 81.390625 C 553.476562 82.261719 544.773438 83.25 536.191406 84.308594 C 533.136719 84.671875 530.511719 86.394531 529.007812 89.003906 C 527.472656 91.664062 527.28125 94.855469 528.503906 97.75 C 536.96875 117.9375 545.457031 138.148438 553.941406 158.390625 C 555.761719 162.746094 560.714844 165.628906 565.457031 165.101562 C 574.164062 164.136719 582.992188 163.242188 591.675781 162.453125 C 594.785156 162.191406 597.308594 160.679688 598.789062 158.226562 C 600.285156 155.777344 600.429688 152.789062 599.199219 149.835938 C 590.703125 129.347656 582.191406 108.890625 573.679688 88.464844 C 572.878906 86.507812 571.535156 84.824219 569.785156 83.550781 Z M 548.023438 176.136719 C 543.992188 173.203125 540.847656 169.230469 538.933594 164.675781 C 530.449219 144.4375 521.976562 124.226562 513.507812 104.046875 C 510.316406 96.410156 510.824219 87.960938 514.9375 80.863281 C 519.027344 73.804688 526.050781 69.171875 534.210938 68.167969 C 542.894531 67.089844 551.707031 66.109375 560.398438 65.203125 C 567.074219 64.527344 573.808594 66.355469 579.359375 70.394531 C 583.523438 73.425781 586.75 77.511719 588.695312 82.21875 C 597.199219 102.652344 605.707031 123.113281 614.21875 143.605469 C 617.4375 151.335938 616.882812 159.753906 612.703125 166.660156 C 608.546875 173.539062 601.429688 177.90625 593.140625 178.65625 C 584.570312 179.433594 575.855469 180.304688 567.234375 181.261719 C 560.425781 182.019531 553.601562 180.195312 548.023438 176.136719 " fill-opacity="1" fill-rule="nonzero"/></g></g></g></g><g clip-path="url(#922d526a62)"><g clip-path="url(#9603c40d10)"><g clip-path="url(#c2ea490832)"><g clip-path="url(#ac8e19030b)"><path fill="#1e1e1e" d="M 633.332031 78.863281 C 630.992188 77.164062 628.230469 76.3125 625.582031 76.449219 C 616.988281 76.902344 608.234375 77.453125 599.585938 78.082031 C 596.585938 78.304688 594.132812 79.738281 592.675781 82.113281 C 591.148438 84.582031 590.96875 87.6875 592.195312 90.625 C 600.710938 111.066406 609.210938 131.535156 617.714844 152.042969 C 619.621094 156.628906 624.820312 159.871094 629.734375 159.578125 C 638.472656 159.050781 647.335938 158.597656 656.089844 158.242188 C 659.085938 158.125 661.503906 156.863281 662.894531 154.675781 C 664.359375 152.398438 664.484375 149.488281 663.261719 146.5 C 654.742188 125.765625 646.214844 105.042969 637.691406 84.351562 C 636.804688 82.195312 635.292969 80.292969 633.332031 78.863281 Z M 612.257812 170.328125 C 608 167.230469 604.6875 163.0625 602.707031 158.28125 C 594.191406 137.78125 585.683594 117.304688 577.191406 96.882812 C 573.925781 89.042969 574.527344 80.566406 578.828125 73.589844 C 583.035156 66.742188 590.179688 62.46875 598.398438 61.875 C 607.152344 61.226562 616.019531 60.664062 624.738281 60.210938 C 631.09375 59.882812 637.539062 61.828125 642.894531 65.726562 C 647.292969 68.925781 650.691406 73.226562 652.722656 78.15625 C 661.234375 98.847656 669.773438 119.566406 678.304688 140.347656 C 681.546875 148.257812 680.941406 156.691406 676.585938 163.46875 C 672.3125 170.136719 665.074219 174.144531 656.746094 174.484375 C 648.097656 174.839844 639.347656 175.292969 630.71875 175.8125 C 624.210938 176.207031 617.660156 174.257812 612.257812 170.328125 " fill-opacity="1" fill-rule="nonzero"/></g></g></g></g><g clip-path="url(#e70ba88e7f)"><g clip-path="url(#ca60b88bb4)"><g clip-path="url(#13cfa3adf7)"><g clip-path="url(#c44232ae80)"><path fill="#1e1e1e" d="M 676.847656 167.777344 C 672.40625 164.542969 668.859375 160.125 666.765625 155.054688 C 658.253906 134.304688 649.710938 113.570312 641.199219 92.871094 C 637.898438 84.867188 638.5625 76.347656 643.019531 69.523438 C 647.359375 62.878906 654.605469 58.949219 662.894531 58.761719 C 670.839844 58.578125 678.933594 58.464844 686.9375 58.417969 C 691.433594 58.398438 695.09375 62.019531 695.109375 66.515625 C 695.132812 71.011719 691.507812 74.671875 687.011719 74.6875 C 679.121094 74.730469 671.121094 74.839844 663.265625 75.019531 C 660.378906 75.085938 658.019531 76.296875 656.644531 78.40625 C 655.152344 80.683594 655.011719 83.710938 656.230469 86.679688 C 664.757812 107.378906 673.277344 128.117188 681.816406 148.882812 C 683.277344 152.460938 686.582031 155.445312 690.417969 156.660156 C 694.703125 158.023438 697.0625 162.605469 695.6875 166.882812 C 694.335938 171.15625 689.753906 173.519531 685.488281 172.148438 C 682.375 171.167969 679.464844 169.679688 676.847656 167.777344 " fill-opacity="1" fill-rule="nonzero"/></g></g></g></g><g clip-path="url(#c3b0348a5b)"><g clip-path="url(#f4df5c073c)"><g clip-path="url(#0ce480ed09)"><g clip-path="url(#088e2afcbc)"><g clip-path="url(#201d63d80a)"><g clip-path="url(#d13f6a70a3)"><path fill="#1e1e1e" d="M 124.695312 375.640625 C 123.289062 374.617188 122.21875 373.152344 121.707031 371.425781 C 117.851562 358.785156 114.570312 345.726562 111.917969 332.550781 C 98.359375 331.183594 84.511719 330.472656 70.699219 330.433594 C 66.503906 330.414062 63.007812 327.222656 62.628906 323.042969 C 61.476562 310.449219 60.863281 297.570312 60.808594 284.652344 C 46.1875 284.644531 31.355469 285.347656 16.625 286.738281 C 13.417969 287.046875 10.34375 285.425781 8.769531 282.628906 C 7.195312 279.824219 7.421875 276.355469 9.335938 273.773438 C 30.453125 245.527344 77.59375 211.605469 123.988281 191.308594 C 142.261719 182.769531 162.320312 175.601562 183.445312 170.074219 C 187.800781 168.9375 192.257812 171.535156 193.390625 175.882812 C 194.515625 180.230469 191.921875 184.667969 187.578125 185.8125 C 167.394531 191.082031 148.246094 197.917969 130.675781 206.117188 C 94.953125 221.765625 57.929688 246.453125 35.136719 269.078125 C 46.515625 268.464844 57.890625 268.265625 69.125 268.484375 C 73.582031 268.566406 77.15625 272.25 77.085938 276.722656 C 76.925781 289.292969 77.304688 301.882812 78.21875 314.265625 C 92.167969 314.523438 106.078125 315.464844 119.699219 317.042969 C 123.234375 317.449219 126.097656 320.125 126.753906 323.625 C 128.4375 332.679688 130.445312 341.699219 132.71875 350.582031 C 135.8125 346.105469 139.101562 341.234375 142.625 336.023438 C 154.828125 317.964844 168.652344 297.472656 183.574219 279.332031 C 190.066406 271.007812 197.539062 262.230469 205.675781 253.40625 C 208.710938 250.109375 213.832031 249.859375 217.160156 252.929688 C 220.453125 255.980469 220.667969 261.128906 217.628906 264.414062 C 209.800781 272.929688 202.613281 281.363281 196.269531 289.488281 C 181.699219 307.21875 168.089844 327.363281 156.101562 345.125 C 148.421875 356.476562 141.796875 366.300781 135.953125 373.980469 C 134.109375 376.417969 131.050781 377.609375 128.042969 377.070312 C 126.820312 376.84375 125.675781 376.355469 124.695312 375.640625 " fill-opacity="1" fill-rule="nonzero"/></g></g></g></g></g></g><g clip-path="url(#78ef2ad61f)"><g clip-path="url(#6a7ab85adc)"><g clip-path="url(#98fe7e67e6)"><g clip-path="url(#934dd5c067)"><path fill="#1e1e1e" d="M 60.945312 277.882812 C 60.171875 272.984375 62.9375 270.925781 67.515625 267.511719 C 69.699219 265.878906 72.839844 263.578125 76.644531 260.886719 C 83.554688 255.988281 94.042969 248.796875 104.847656 242.378906 C 122.84375 231.191406 141.226562 222.371094 145.066406 220.574219 C 145.125 220.542969 145.203125 220.507812 145.265625 220.484375 C 149.332031 218.613281 154.222656 220.371094 156.105469 224.414062 C 157.976562 228.46875 156.160156 233.332031 152.117188 235.234375 C 150.03125 236.210938 131.21875 245.117188 113.304688 256.269531 C 94.78125 267.289062 76.261719 281.183594 74.105469 282.902344 L 69.078125 276.589844 L 68.96875 276.597656 L 60.945312 277.882812 " fill-opacity="1" fill-rule="nonzero"/></g></g></g></g><g clip-path="url(#2dd343c45f)"><g clip-path="url(#272f0b5557)"><g clip-path="url(#969606f5e4)"><g clip-path="url(#aad3df51c1)"><path fill="#1e1e1e" d="M 113.964844 331.671875 C 110.660156 329.265625 109.621094 324.683594 111.71875 321.054688 C 126.214844 295.945312 143.488281 272.183594 163.089844 250.414062 C 166.09375 247.085938 171.25 246.824219 174.585938 249.828125 C 177.914062 252.832031 178.1875 257.96875 175.1875 261.296875 C 156.332031 282.234375 139.722656 305.058594 125.804688 329.175781 C 123.550781 333.066406 118.582031 334.402344 114.699219 332.15625 C 114.449219 332.007812 114.207031 331.847656 113.964844 331.671875 " fill-opacity="1" fill-rule="nonzero"/></g></g></g></g><g clip-path="url(#04e58cd4a0)"><g clip-path="url(#e5d7e65b81)"><g clip-path="url(#4ed3b16bf1)"><g clip-path="url(#727a1e0b7d)"><path fill="#1e1e1e" d="M 274.304688 263.175781 C 270.722656 260.566406 269.882812 255.5625 272.441406 251.925781 C 275.019531 248.253906 280.09375 247.371094 283.761719 249.953125 C 290.765625 254.890625 297.976562 259.789062 305.1875 264.511719 C 313.417969 269.871094 324.722656 269.34375 329.355469 263.375 C 332.394531 259.472656 335.457031 255.566406 338.53125 251.664062 C 340.757812 248.800781 340.886719 245.621094 340.585938 243.449219 C 339.980469 239.015625 337.214844 234.6875 332.988281 231.558594 C 315.6875 218.90625 298.972656 205.554688 283.347656 191.847656 C 279.960938 188.898438 279.621094 183.75 282.578125 180.382812 C 285.539062 177.007812 290.652344 176.648438 294.050781 179.625 C 309.335938 193.007812 325.664062 206.070312 342.613281 218.457031 C 350.386719 224.1875 355.503906 232.488281 356.703125 241.25 C 357.710938 248.714844 355.800781 255.984375 351.328125 261.699219 C 348.242188 265.597656 345.210938 269.488281 342.191406 273.363281 C 332.355469 286.039062 311.761719 288.171875 296.304688 278.136719 C 288.90625 273.292969 281.546875 268.28125 274.414062 263.253906 C 274.363281 263.214844 274.339844 263.199219 274.304688 263.175781 " fill-opacity="1" fill-rule="nonzero"/></g></g></g></g><g clip-path="url(#3046053d06)"><g clip-path="url(#568297692b)"><g clip-path="url(#5d58ac183e)"><g clip-path="url(#4f6916995b)"><path fill="#1e1e1e" d="M 214.429688 216.164062 C 214.230469 216.019531 214.027344 215.875 213.847656 215.699219 C 198.476562 202.238281 183.78125 188.148438 170.226562 173.832031 C 158.714844 161.804688 159.875 141.058594 172.800781 127.613281 C 176.863281 123.371094 180.972656 119.117188 185.101562 114.835938 C 192.058594 107.710938 201.058594 103.8125 209.839844 104.148438 C 217.335938 104.429688 224.105469 107.746094 228.902344 113.480469 C 233.589844 119.0625 238.539062 124.707031 243.578125 130.234375 C 246.597656 133.554688 246.351562 138.695312 243.042969 141.722656 C 239.71875 144.746094 234.566406 144.503906 231.550781 141.1875 C 226.363281 135.5 221.289062 129.707031 216.433594 123.929688 C 214.097656 121.148438 211.230469 120.472656 209.230469 120.390625 C 205.039062 120.230469 200.496094 122.351562 196.769531 126.179688 C 192.683594 130.402344 188.585938 134.636719 184.53125 138.878906 C 177.667969 146.019531 176.5 156.886719 182 162.621094 C 195.253906 176.609375 209.558594 190.339844 224.554688 203.464844 C 227.929688 206.425781 228.273438 211.578125 225.316406 214.941406 C 222.519531 218.144531 217.800781 218.617188 214.429688 216.164062 " fill-opacity="1" fill-rule="nonzero"/></g></g></g></g><g clip-path="url(#8cf2eea35a)"><g clip-path="url(#1169d78d6c)"><g clip-path="url(#43bc0469e0)"><g clip-path="url(#e05baa523b)"><path fill="#1e1e1e" d="M 291 104.722656 C 289.960938 103.964844 288.773438 103.40625 287.503906 103.085938 C 282.679688 101.890625 277.867188 100.699219 273.074219 99.488281 C 265.75 97.632812 256.511719 104.15625 253.304688 113.460938 C 235.308594 166.140625 223.652344 218.644531 218.710938 269.484375 C 218.210938 274.347656 220.789062 279.296875 225.585938 282.789062 C 228.402344 284.839844 231.742188 286.179688 235.273438 286.695312 C 241.101562 287.535156 246.933594 288.382812 252.78125 289.199219 C 258.050781 289.929688 262.933594 288.8125 266.128906 286.113281 C 267.671875 284.8125 269.539062 282.519531 269.648438 278.914062 C 271.574219 228.351562 280.273438 175.675781 295.507812 122.324219 C 297.449219 115.332031 295.609375 108.074219 291 104.722656 Z M 216.023438 295.929688 C 206.496094 288.996094 201.453125 278.511719 202.519531 267.882812 C 207.585938 215.808594 219.503906 162.070312 237.921875 108.183594 C 243.941406 90.726562 261.5 79.765625 277.078125 83.726562 C 281.832031 84.925781 286.601562 86.117188 291.414062 87.308594 C 294.746094 88.144531 297.820312 89.585938 300.5625 91.582031 C 310.714844 98.96875 314.972656 113.09375 311.136719 126.757812 C 296.265625 178.890625 287.78125 230.273438 285.902344 279.511719 C 285.648438 286.941406 282.34375 293.71875 276.601562 298.546875 C 269.878906 304.210938 260.386719 306.667969 250.535156 305.300781 C 244.632812 304.472656 238.769531 303.632812 232.945312 302.789062 C 226.820312 301.910156 220.964844 299.527344 216.023438 295.929688 " fill-opacity="1" fill-rule="nonzero"/></g></g></g></g><g clip-path="url(#371251f009)"><g clip-path="url(#f6fa661b7d)"><g clip-path="url(#807f6923a3)"><g clip-path="url(#03b93fe7f5)"><path fill="#1e1e1e" d="M 809.238281 170.566406 C 805.941406 168.167969 804.902344 163.632812 806.960938 160.011719 C 809.160156 156.101562 814.113281 154.710938 818.035156 156.917969 C 828.464844 162.804688 838.285156 168.867188 847.210938 174.914062 C 866.8125 187.480469 886.253906 202.695312 903.429688 216.136719 C 908.375 220.023438 913.019531 223.65625 917.308594 226.945312 C 916.765625 217.8125 915.902344 208.613281 914.710938 199.46875 C 914.257812 195.917969 916.15625 192.511719 919.410156 191.027344 C 931.875 185.347656 944.84375 180.175781 958.023438 175.632812 C 955.074219 163.578125 951.558594 151.46875 947.539062 139.578125 C 946.109375 135.335938 948.351562 130.730469 952.59375 129.28125 C 963.214844 125.617188 974.097656 122.3125 985.128906 119.382812 C 956.480469 104.863281 913.679688 92.769531 875.050781 88.886719 C 855.601562 86.464844 835.28125 85.847656 814.464844 87.023438 C 809.980469 87.269531 806.136719 83.859375 805.882812 79.367188 C 805.632812 74.886719 809.0625 71.050781 813.527344 70.796875 C 835.328125 69.558594 856.640625 70.207031 876.875 72.746094 C 927.039062 77.761719 982.324219 95.539062 1011.117188 115.9375 C 1011.140625 115.953125 1011.167969 115.972656 1011.191406 115.988281 C 1013.765625 117.863281 1015.019531 121.066406 1014.378906 124.179688 C 1013.742188 127.335938 1011.320312 129.800781 1008.175781 130.519531 C 993.722656 133.703125 979.402344 137.601562 965.488281 142.121094 C 969.390625 154.394531 972.773438 166.835938 975.558594 179.207031 C 976.488281 183.300781 974.144531 187.414062 970.152344 188.722656 C 957.003906 193.003906 944.050781 197.933594 931.582031 203.394531 C 933.113281 216.769531 934.007812 230.195312 934.222656 243.40625 C 934.277344 246.46875 932.625 249.277344 929.921875 250.710938 C 927.230469 252.152344 923.945312 251.96875 921.453125 250.222656 C 913.523438 244.707031 904.207031 237.402344 893.40625 228.941406 C 876.515625 215.730469 857.378906 200.734375 838.242188 188.476562 C 829.527344 182.5625 820.09375 176.746094 810.046875 171.078125 C 809.757812 170.921875 809.488281 170.75 809.238281 170.566406 " fill-opacity="1" fill-rule="nonzero"/></g></g></g></g><g clip-path="url(#c0dcffcdac)"><g clip-path="url(#210e4701f1)"><g clip-path="url(#4f87be5819)"><g clip-path="url(#b013ea0c57)"><path fill="#1e1e1e" d="M 859.601562 121.644531 C 857.28125 119.957031 855.914062 117.117188 856.285156 114.101562 C 856.820312 109.640625 860.925781 106.484375 865.382812 107.011719 C 865.449219 107.027344 865.5 107.027344 865.5625 107.039062 C 868.640625 107.433594 889.671875 110.230469 910.722656 115.464844 C 922.828125 118.210938 935.023438 121.828125 943.113281 124.351562 C 947.535156 125.742188 951.246094 126.984375 953.84375 127.859375 C 959.21875 129.691406 962.480469 130.800781 963.265625 135.65625 L 955.238281 136.972656 L 952.265625 144.539062 C 949.703125 143.558594 927.863281 136.03125 906.960938 131.269531 C 886.238281 126.132812 865.667969 123.441406 863.390625 123.160156 C 861.972656 122.976562 860.6875 122.433594 859.601562 121.644531 " fill-opacity="1" fill-rule="nonzero"/></g></g></g></g><g clip-path="url(#5c61b67c9a)"><g clip-path="url(#d6503f0349)"><g clip-path="url(#0dfc1ee333)"><g clip-path="url(#76c91a3d50)"><path fill="#1e1e1e" d="M 918 205.007812 C 917.777344 204.847656 917.546875 204.660156 917.339844 204.453125 C 896.671875 185.800781 873.851562 169.191406 849.472656 155.0625 C 845.570312 152.820312 844.261719 147.835938 846.515625 143.945312 C 848.769531 140.054688 853.742188 138.734375 857.613281 140.992188 C 882.972656 155.683594 906.730469 172.972656 928.234375 192.386719 C 931.554688 195.398438 931.824219 200.550781 928.820312 203.878906 C 925.992188 206.992188 921.320312 207.425781 918 205.007812 " fill-opacity="1" fill-rule="nonzero"/></g></g></g></g><g clip-path="url(#1efb98ebc6)"><g clip-path="url(#88a802f4b7)"><g clip-path="url(#6c08be4d49)"><g clip-path="url(#b8cf45dcf6)"><path fill="#1e1e1e" d="M 681.230469 209.058594 C 675.613281 204.972656 671.855469 198.890625 670.578125 191.800781 C 669.027344 183.097656 671.339844 173.605469 676.957031 165.792969 C 689.289062 148.773438 700.820312 131.308594 711.25 113.878906 C 713.550781 110.019531 718.53125 108.765625 722.386719 111.066406 C 726.253906 113.375 727.492188 118.363281 725.191406 122.21875 C 714.539062 140.0625 702.742188 157.914062 690.132812 175.3125 C 687.105469 179.546875 685.796875 184.527344 686.585938 188.929688 C 686.964844 191.09375 688.101562 194.121094 691.089844 196.113281 C 695.207031 198.898438 699.308594 201.664062 703.394531 204.417969 C 709.648438 208.683594 720.558594 205.699219 726.761719 198.066406 C 732.164062 191.367188 737.519531 184.484375 742.664062 177.65625 C 745.332031 174.085938 750.359375 173.347656 753.953125 175.960938 C 753.976562 175.980469 754.007812 176.003906 754.035156 176.039062 C 757.640625 178.742188 758.351562 183.828125 755.664062 187.425781 C 750.398438 194.40625 744.933594 201.417969 739.414062 208.285156 C 727.765625 222.628906 707.523438 226.910156 694.25 217.871094 C 690.191406 215.128906 686.117188 212.382812 681.992188 209.597656 C 681.738281 209.429688 681.476562 209.238281 681.230469 209.058594 " fill-opacity="1" fill-rule="nonzero"/></g></g></g></g><g clip-path="url(#796ea46d25)"><g clip-path="url(#3db87a9bbe)"><g clip-path="url(#b70c1a02f1)"><g clip-path="url(#2fd433687d)"><path fill="#1e1e1e" d="M 786.886719 125.964844 C 783.515625 123.511719 782.53125 118.855469 784.699219 115.226562 C 794.933594 98.109375 804.332031 80.625 812.636719 63.277344 C 816.101562 56.109375 811.65625 46.113281 802.953125 41.457031 C 797.757812 38.652344 792.582031 35.882812 787.359375 33.09375 C 782.644531 30.605469 777.695312 30 773.757812 31.4375 C 771.878906 32.132812 769.339844 33.664062 767.980469 36.996094 C 765.117188 44.0625 762.046875 51.15625 758.894531 58.097656 C 757.035156 62.191406 752.214844 64 748.125 62.140625 C 744.023438 60.273438 742.238281 55.472656 744.09375 51.378906 C 747.160156 44.628906 750.132812 37.714844 752.929688 30.890625 C 755.714844 23.988281 761.113281 18.746094 768.167969 16.160156 C 776.414062 13.160156 786.183594 14.085938 794.964844 18.742188 C 800.242188 21.527344 805.453125 24.332031 810.640625 27.113281 C 827.0625 35.953125 834.539062 55.3125 827.285156 70.324219 C 818.785156 88.089844 809.15625 106.015625 798.664062 123.566406 C 796.363281 127.425781 791.359375 128.679688 787.511719 126.367188 C 787.292969 126.246094 787.085938 126.113281 786.886719 125.964844 " fill-opacity="1" fill-rule="nonzero"/></g></g></g></g><g clip-path="url(#23aa6c23ea)"><g clip-path="url(#9348f9e9af)"><g clip-path="url(#82d54f7890)"><g clip-path="url(#f58b3602e9)"><path fill="#1e1e1e" d="M 724.8125 33.605469 C 718.785156 29.21875 711.269531 28.214844 706.582031 31.183594 C 702.371094 33.8125 698.164062 36.433594 693.945312 39.050781 C 690.851562 40.960938 689.660156 43.925781 689.199219 46.074219 C 688.246094 50.4375 689.359375 55.460938 692.269531 59.839844 C 723.144531 105.902344 747.613281 153.339844 764.988281 200.839844 C 767.425781 207.628906 776.046875 209.402344 784.226562 205.464844 C 789.535156 202.890625 794.820312 200.296875 800.078125 197.691406 C 808.980469 193.355469 813.777344 183.542969 810.574219 176.257812 C 790.226562 129.375 763.003906 82.984375 729.65625 38.378906 C 728.308594 36.578125 726.667969 34.957031 724.8125 33.605469 Z M 758.800781 218.5625 C 754.628906 215.527344 751.488281 211.320312 749.703125 206.390625 C 732.789062 160.148438 708.90625 113.871094 678.746094 68.855469 C 673.40625 60.8125 671.433594 51.253906 673.304688 42.621094 C 674.90625 35.253906 679.1875 29.070312 685.351562 25.246094 C 689.589844 22.632812 693.769531 20.015625 697.921875 17.417969 C 708.265625 10.898438 722.925781 12.125 734.378906 20.460938 C 737.546875 22.769531 740.320312 25.511719 742.675781 28.632812 C 776.792969 74.269531 804.636719 121.746094 825.476562 169.746094 C 832.171875 184.996094 824.003906 204.09375 807.238281 212.300781 C 801.984375 214.894531 796.660156 217.492188 791.328125 220.105469 C 780.023438 225.542969 767.578125 224.953125 758.800781 218.5625 " fill-opacity="1" fill-rule="nonzero"/></g></g></g></g></svg>