<svg xmlns="http://www.w3.org/2000/svg" xmlns:xlink="http://www.w3.org/1999/xlink" width="797" zoomAndPan="magnify" viewBox="0 0 597.75 576" height="768" preserveAspectRatio="xMidYMid meet" version="1.0"><defs><clipPath id="aaa7e6faaf"><path d="M 186 0.121094 L 494 0.121094 L 494 318 L 186 318 Z M 186 0.121094 " clip-rule="nonzero"/></clipPath><clipPath id="5fdc8dea08"><path d="M 493.039062 200.382812 C 488.984375 215.320312 455.132812 216.675781 447.101562 228.960938 C 438.789062 241.75 450.9375 273.179688 439.339844 282.515625 C 427.738281 291.847656 399.425781 273.242188 385.355469 278.601562 C 371.289062 283.960938 362.835938 316.667969 347.628906 317.410156 C 332.972656 318.125 321.195312 286.542969 306.269531 282.5 C 291.34375 278.460938 265.203125 299.75 252.914062 291.722656 C 240.125 283.410156 249.308594 250.804688 239.972656 239.179688 C 230.636719 227.554688 196.769531 229.332031 191.375 215.28125 C 185.976562 201.226562 212.476562 180.347656 211.734375 165.15625 C 211.019531 150.488281 182.5 132.214844 186.539062 117.28125 C 190.582031 102.347656 224.445312 100.976562 232.476562 88.691406 C 240.804688 75.902344 228.640625 44.484375 240.242188 35.152344 C 251.839844 25.816406 280.15625 44.410156 294.222656 38.988281 C 308.289062 33.566406 316.78125 0.996094 332 0.242188 C 346.65625 -0.472656 358.4375 31.109375 373.375 35.164062 C 388.3125 39.21875 414.425781 17.902344 426.714844 25.929688 C 439.503906 34.253906 430.335938 66.851562 439.660156 78.472656 C 448.980469 90.097656 482.859375 88.320312 488.257812 102.382812 C 493.652344 116.449219 467.15625 137.304688 467.898438 152.507812 C 468.574219 167.164062 497.082031 185.449219 493.039062 200.382812 Z M 493.039062 200.382812 " clip-rule="nonzero"/></clipPath><clipPath id="c7c0f67885"><path d="M 218 26 L 466 26 L 466 277 L 218 277 Z M 218 26 " clip-rule="nonzero"/></clipPath><clipPath id="53ae376511"><path d="M 493.039062 200.382812 C 488.984375 215.320312 455.132812 216.675781 447.101562 228.960938 C 438.789062 241.75 450.9375 273.179688 439.339844 282.515625 C 427.738281 291.847656 399.425781 273.242188 385.355469 278.601562 C 371.289062 283.960938 362.835938 316.667969 347.628906 317.410156 C 332.972656 318.125 321.195312 286.542969 306.269531 282.5 C 291.34375 278.460938 265.203125 299.75 252.914062 291.722656 C 240.125 283.410156 249.308594 250.804688 239.972656 239.179688 C 230.636719 227.554688 196.769531 229.332031 191.375 215.28125 C 185.976562 201.226562 212.476562 180.347656 211.734375 165.15625 C 211.019531 150.488281 182.5 132.214844 186.539062 117.28125 C 190.582031 102.347656 224.445312 100.976562 232.476562 88.691406 C 240.804688 75.902344 228.640625 44.484375 240.242188 35.152344 C 251.839844 25.816406 280.15625 44.410156 294.222656 38.988281 C 308.289062 33.566406 316.78125 0.996094 332 0.242188 C 346.65625 -0.472656 358.4375 31.109375 373.375 35.164062 C 388.3125 39.21875 414.425781 17.902344 426.714844 25.929688 C 439.503906 34.253906 430.335938 66.851562 439.660156 78.472656 C 448.980469 90.097656 482.859375 88.320312 488.257812 102.382812 C 493.652344 116.449219 467.15625 137.304688 467.898438 152.507812 C 468.574219 167.164062 497.082031 185.449219 493.039062 200.382812 Z M 493.039062 200.382812 " clip-rule="nonzero"/></clipPath><clipPath id="12ea3b426c"><path d="M 186 0.121094 L 463 0.121094 L 463 253 L 186 253 Z M 186 0.121094 " clip-rule="nonzero"/></clipPath><clipPath id="c7a008dbe0"><path d="M 493.039062 200.382812 C 488.984375 215.320312 455.132812 216.675781 447.101562 228.960938 C 438.789062 241.75 450.9375 273.179688 439.339844 282.515625 C 427.738281 291.847656 399.425781 273.242188 385.355469 278.601562 C 371.289062 283.960938 362.835938 316.667969 347.628906 317.410156 C 332.972656 318.125 321.195312 286.542969 306.269531 282.5 C 291.34375 278.460938 265.203125 299.75 252.914062 291.722656 C 240.125 283.410156 249.308594 250.804688 239.972656 239.179688 C 230.636719 227.554688 196.769531 229.332031 191.375 215.28125 C 185.976562 201.226562 212.476562 180.347656 211.734375 165.15625 C 211.019531 150.488281 182.5 132.214844 186.539062 117.28125 C 190.582031 102.347656 224.445312 100.976562 232.476562 88.691406 C 240.804688 75.902344 228.640625 44.484375 240.242188 35.152344 C 251.839844 25.816406 280.15625 44.410156 294.222656 38.988281 C 308.289062 33.566406 316.78125 0.996094 332 0.242188 C 346.65625 -0.472656 358.4375 31.109375 373.375 35.164062 C 388.3125 39.21875 414.425781 17.902344 426.714844 25.929688 C 439.503906 34.253906 430.335938 66.851562 439.660156 78.472656 C 448.980469 90.097656 482.859375 88.320312 488.257812 102.382812 C 493.652344 116.449219 467.15625 137.304688 467.898438 152.507812 C 468.574219 167.164062 497.082031 185.449219 493.039062 200.382812 Z M 493.039062 200.382812 " clip-rule="nonzero"/></clipPath><clipPath id="275027f822"><path d="M 0 148.238281 L 271.894531 148.238281 L 271.894531 420.601562 L 0 420.601562 Z M 0 148.238281 " clip-rule="nonzero"/></clipPath><clipPath id="bb69127d15"><path d="M 0.0625 284.558594 C 0.0625 280.113281 0.28125 275.679688 0.71875 271.253906 C 1.152344 266.832031 1.804688 262.4375 2.671875 258.078125 C 3.539062 253.71875 4.621094 249.410156 5.910156 245.15625 C 7.199219 240.902344 8.695312 236.71875 10.398438 232.613281 C 12.101562 228.503906 14 224.492188 16.09375 220.570312 C 18.191406 216.648438 20.472656 212.839844 22.945312 209.144531 C 25.414062 205.445312 28.0625 201.878906 30.882812 198.445312 C 33.703125 195.007812 36.683594 191.71875 39.828125 188.574219 C 42.972656 185.429688 46.265625 182.449219 49.703125 179.628906 C 53.140625 176.804688 56.707031 174.160156 60.402344 171.691406 C 64.101562 169.222656 67.910156 166.9375 71.832031 164.84375 C 75.753906 162.746094 79.765625 160.847656 83.875 159.148438 C 87.984375 157.445312 92.164062 155.949219 96.421875 154.660156 C 100.675781 153.367188 104.984375 152.289062 109.34375 151.421875 C 113.707031 150.554688 118.097656 149.902344 122.523438 149.46875 C 126.949219 149.03125 131.386719 148.8125 135.832031 148.8125 C 140.277344 148.8125 144.714844 149.03125 149.140625 149.46875 C 153.5625 149.902344 157.957031 150.554688 162.320312 151.421875 C 166.679688 152.289062 170.988281 153.367188 175.242188 154.660156 C 179.496094 155.949219 183.679688 157.445312 187.789062 159.148438 C 191.894531 160.847656 195.910156 162.746094 199.832031 164.84375 C 203.753906 166.9375 207.5625 169.222656 211.261719 171.691406 C 214.957031 174.160156 218.523438 176.804688 221.960938 179.628906 C 225.398438 182.449219 228.691406 185.429688 231.832031 188.574219 C 234.976562 191.71875 237.960938 195.007812 240.78125 198.445312 C 243.601562 201.878906 246.246094 205.445312 248.71875 209.144531 C 251.1875 212.839844 253.472656 216.648438 255.566406 220.570312 C 257.664062 224.492188 259.5625 228.503906 261.265625 232.613281 C 262.964844 236.71875 264.460938 240.902344 265.753906 245.15625 C 267.042969 249.410156 268.121094 253.71875 268.992188 258.078125 C 269.859375 262.4375 270.507812 266.832031 270.945312 271.253906 C 271.382812 275.679688 271.597656 280.113281 271.597656 284.558594 C 271.597656 289.007812 271.382812 293.441406 270.945312 297.867188 C 270.507812 302.289062 269.859375 306.683594 268.992188 311.042969 C 268.121094 315.402344 267.042969 319.710938 265.753906 323.964844 C 264.460938 328.21875 262.964844 332.402344 261.265625 336.507812 C 259.5625 340.617188 257.664062 344.628906 255.566406 348.550781 C 253.472656 352.472656 251.1875 356.28125 248.71875 359.976562 C 246.246094 363.671875 243.601562 367.238281 240.78125 370.675781 C 237.960938 374.113281 234.976562 377.402344 231.832031 380.546875 C 228.691406 383.691406 225.398438 386.671875 221.960938 389.492188 C 218.523438 392.3125 214.957031 394.960938 211.261719 397.429688 C 207.5625 399.898438 203.753906 402.183594 199.832031 404.277344 C 195.910156 406.375 191.894531 408.273438 187.789062 409.972656 C 183.679688 411.675781 179.496094 413.171875 175.242188 414.460938 C 170.988281 415.75 166.679688 416.832031 162.320312 417.699219 C 157.957031 418.566406 153.5625 419.21875 149.140625 419.652344 C 144.714844 420.089844 140.277344 420.304688 135.832031 420.304688 C 131.386719 420.304688 126.949219 420.089844 122.523438 419.652344 C 118.097656 419.21875 113.707031 418.566406 109.34375 417.699219 C 104.984375 416.832031 100.675781 415.753906 96.421875 414.460938 C 92.164062 413.171875 87.984375 411.675781 83.875 409.972656 C 79.765625 408.273438 75.753906 406.375 71.832031 404.277344 C 67.910156 402.183594 64.101562 399.898438 60.402344 397.429688 C 56.707031 394.960938 53.140625 392.3125 49.703125 389.492188 C 46.265625 386.671875 42.972656 383.691406 39.828125 380.546875 C 36.683594 377.402344 33.703125 374.113281 30.882812 370.675781 C 28.0625 367.238281 25.414062 363.671875 22.945312 359.976562 C 20.472656 356.28125 18.191406 352.472656 16.09375 348.550781 C 14 344.628906 12.101562 340.617188 10.398438 336.507812 C 8.695312 332.402344 7.199219 328.21875 5.910156 323.964844 C 4.621094 319.710938 3.539062 315.402344 2.671875 311.042969 C 1.804688 306.683594 1.152344 302.289062 0.71875 297.867188 C 0.28125 293.441406 0.0625 289.007812 0.0625 284.558594 Z M 0.0625 284.558594 " clip-rule="nonzero"/></clipPath><clipPath id="4d17b6c341"><path d="M 92 181 L 271.894531 181 L 271.894531 420.601562 L 92 420.601562 Z M 92 181 " clip-rule="nonzero"/></clipPath><clipPath id="722d4c703b"><path d="M 0.0625 284.558594 C 0.0625 280.113281 0.28125 275.679688 0.71875 271.253906 C 1.152344 266.832031 1.804688 262.4375 2.671875 258.078125 C 3.539062 253.71875 4.621094 249.410156 5.910156 245.15625 C 7.199219 240.902344 8.695312 236.71875 10.398438 232.613281 C 12.101562 228.503906 14 224.492188 16.09375 220.570312 C 18.191406 216.648438 20.472656 212.839844 22.945312 209.144531 C 25.414062 205.445312 28.0625 201.878906 30.882812 198.445312 C 33.703125 195.007812 36.683594 191.71875 39.828125 188.574219 C 42.972656 185.429688 46.265625 182.449219 49.703125 179.628906 C 53.140625 176.804688 56.707031 174.160156 60.402344 171.691406 C 64.101562 169.222656 67.910156 166.9375 71.832031 164.84375 C 75.753906 162.746094 79.765625 160.847656 83.875 159.148438 C 87.984375 157.445312 92.164062 155.949219 96.421875 154.660156 C 100.675781 153.367188 104.984375 152.289062 109.34375 151.421875 C 113.707031 150.554688 118.097656 149.902344 122.523438 149.46875 C 126.949219 149.03125 131.386719 148.8125 135.832031 148.8125 C 140.277344 148.8125 144.714844 149.03125 149.140625 149.46875 C 153.5625 149.902344 157.957031 150.554688 162.320312 151.421875 C 166.679688 152.289062 170.988281 153.367188 175.242188 154.660156 C 179.496094 155.949219 183.679688 157.445312 187.789062 159.148438 C 191.894531 160.847656 195.910156 162.746094 199.832031 164.84375 C 203.753906 166.9375 207.5625 169.222656 211.261719 171.691406 C 214.957031 174.160156 218.523438 176.804688 221.960938 179.628906 C 225.398438 182.449219 228.691406 185.429688 231.832031 188.574219 C 234.976562 191.71875 237.960938 195.007812 240.78125 198.445312 C 243.601562 201.878906 246.246094 205.445312 248.71875 209.144531 C 251.1875 212.839844 253.472656 216.648438 255.566406 220.570312 C 257.664062 224.492188 259.5625 228.503906 261.265625 232.613281 C 262.964844 236.71875 264.460938 240.902344 265.753906 245.15625 C 267.042969 249.410156 268.121094 253.71875 268.992188 258.078125 C 269.859375 262.4375 270.507812 266.832031 270.945312 271.253906 C 271.382812 275.679688 271.597656 280.113281 271.597656 284.558594 C 271.597656 289.007812 271.382812 293.441406 270.945312 297.867188 C 270.507812 302.289062 269.859375 306.683594 268.992188 311.042969 C 268.121094 315.402344 267.042969 319.710938 265.753906 323.964844 C 264.460938 328.21875 262.964844 332.402344 261.265625 336.507812 C 259.5625 340.617188 257.664062 344.628906 255.566406 348.550781 C 253.472656 352.472656 251.1875 356.28125 248.71875 359.976562 C 246.246094 363.671875 243.601562 367.238281 240.78125 370.675781 C 237.960938 374.113281 234.976562 377.402344 231.832031 380.546875 C 228.691406 383.691406 225.398438 386.671875 221.960938 389.492188 C 218.523438 392.3125 214.957031 394.960938 211.261719 397.429688 C 207.5625 399.898438 203.753906 402.183594 199.832031 404.277344 C 195.910156 406.375 191.894531 408.273438 187.789062 409.972656 C 183.679688 411.675781 179.496094 413.171875 175.242188 414.460938 C 170.988281 415.75 166.679688 416.832031 162.320312 417.699219 C 157.957031 418.566406 153.5625 419.21875 149.140625 419.652344 C 144.714844 420.089844 140.277344 420.304688 135.832031 420.304688 C 131.386719 420.304688 126.949219 420.089844 122.523438 419.652344 C 118.097656 419.21875 113.707031 418.566406 109.34375 417.699219 C 104.984375 416.832031 100.675781 415.753906 96.421875 414.460938 C 92.164062 413.171875 87.984375 411.675781 83.875 409.972656 C 79.765625 408.273438 75.753906 406.375 71.832031 404.277344 C 67.910156 402.183594 64.101562 399.898438 60.402344 397.429688 C 56.707031 394.960938 53.140625 392.3125 49.703125 389.492188 C 46.265625 386.671875 42.972656 383.691406 39.828125 380.546875 C 36.683594 377.402344 33.703125 374.113281 30.882812 370.675781 C 28.0625 367.238281 25.414062 363.671875 22.945312 359.976562 C 20.472656 356.28125 18.191406 352.472656 16.09375 348.550781 C 14 344.628906 12.101562 340.617188 10.398438 336.507812 C 8.695312 332.402344 7.199219 328.21875 5.910156 323.964844 C 4.621094 319.710938 3.539062 315.402344 2.671875 311.042969 C 1.804688 306.683594 1.152344 302.289062 0.71875 297.867188 C 0.28125 293.441406 0.0625 289.007812 0.0625 284.558594 Z M 0.0625 284.558594 " clip-rule="nonzero"/></clipPath><clipPath id="28bce88ee2"><path d="M 32 148.238281 L 76 148.238281 L 76 420.601562 L 32 420.601562 Z M 32 148.238281 " clip-rule="nonzero"/></clipPath><clipPath id="1119b802da"><path d="M 0.0625 284.558594 C 0.0625 280.113281 0.28125 275.679688 0.71875 271.253906 C 1.152344 266.832031 1.804688 262.4375 2.671875 258.078125 C 3.539062 253.71875 4.621094 249.410156 5.910156 245.15625 C 7.199219 240.902344 8.695312 236.71875 10.398438 232.613281 C 12.101562 228.503906 14 224.492188 16.09375 220.570312 C 18.191406 216.648438 20.472656 212.839844 22.945312 209.144531 C 25.414062 205.445312 28.0625 201.878906 30.882812 198.445312 C 33.703125 195.007812 36.683594 191.71875 39.828125 188.574219 C 42.972656 185.429688 46.265625 182.449219 49.703125 179.628906 C 53.140625 176.804688 56.707031 174.160156 60.402344 171.691406 C 64.101562 169.222656 67.910156 166.9375 71.832031 164.84375 C 75.753906 162.746094 79.765625 160.847656 83.875 159.148438 C 87.984375 157.445312 92.164062 155.949219 96.421875 154.660156 C 100.675781 153.367188 104.984375 152.289062 109.34375 151.421875 C 113.707031 150.554688 118.097656 149.902344 122.523438 149.46875 C 126.949219 149.03125 131.386719 148.8125 135.832031 148.8125 C 140.277344 148.8125 144.714844 149.03125 149.140625 149.46875 C 153.5625 149.902344 157.957031 150.554688 162.320312 151.421875 C 166.679688 152.289062 170.988281 153.367188 175.242188 154.660156 C 179.496094 155.949219 183.679688 157.445312 187.789062 159.148438 C 191.894531 160.847656 195.910156 162.746094 199.832031 164.84375 C 203.753906 166.9375 207.5625 169.222656 211.261719 171.691406 C 214.957031 174.160156 218.523438 176.804688 221.960938 179.628906 C 225.398438 182.449219 228.691406 185.429688 231.832031 188.574219 C 234.976562 191.71875 237.960938 195.007812 240.78125 198.445312 C 243.601562 201.878906 246.246094 205.445312 248.71875 209.144531 C 251.1875 212.839844 253.472656 216.648438 255.566406 220.570312 C 257.664062 224.492188 259.5625 228.503906 261.265625 232.613281 C 262.964844 236.71875 264.460938 240.902344 265.753906 245.15625 C 267.042969 249.410156 268.121094 253.71875 268.992188 258.078125 C 269.859375 262.4375 270.507812 266.832031 270.945312 271.253906 C 271.382812 275.679688 271.597656 280.113281 271.597656 284.558594 C 271.597656 289.007812 271.382812 293.441406 270.945312 297.867188 C 270.507812 302.289062 269.859375 306.683594 268.992188 311.042969 C 268.121094 315.402344 267.042969 319.710938 265.753906 323.964844 C 264.460938 328.21875 262.964844 332.402344 261.265625 336.507812 C 259.5625 340.617188 257.664062 344.628906 255.566406 348.550781 C 253.472656 352.472656 251.1875 356.28125 248.71875 359.976562 C 246.246094 363.671875 243.601562 367.238281 240.78125 370.675781 C 237.960938 374.113281 234.976562 377.402344 231.832031 380.546875 C 228.691406 383.691406 225.398438 386.671875 221.960938 389.492188 C 218.523438 392.3125 214.957031 394.960938 211.261719 397.429688 C 207.5625 399.898438 203.753906 402.183594 199.832031 404.277344 C 195.910156 406.375 191.894531 408.273438 187.789062 409.972656 C 183.679688 411.675781 179.496094 413.171875 175.242188 414.460938 C 170.988281 415.75 166.679688 416.832031 162.320312 417.699219 C 157.957031 418.566406 153.5625 419.21875 149.140625 419.652344 C 144.714844 420.089844 140.277344 420.304688 135.832031 420.304688 C 131.386719 420.304688 126.949219 420.089844 122.523438 419.652344 C 118.097656 419.21875 113.707031 418.566406 109.34375 417.699219 C 104.984375 416.832031 100.675781 415.753906 96.421875 414.460938 C 92.164062 413.171875 87.984375 411.675781 83.875 409.972656 C 79.765625 408.273438 75.753906 406.375 71.832031 404.277344 C 67.910156 402.183594 64.101562 399.898438 60.402344 397.429688 C 56.707031 394.960938 53.140625 392.3125 49.703125 389.492188 C 46.265625 386.671875 42.972656 383.691406 39.828125 380.546875 C 36.683594 377.402344 33.703125 374.113281 30.882812 370.675781 C 28.0625 367.238281 25.414062 363.671875 22.945312 359.976562 C 20.472656 356.28125 18.191406 352.472656 16.09375 348.550781 C 14 344.628906 12.101562 340.617188 10.398438 336.507812 C 8.695312 332.402344 7.199219 328.21875 5.910156 323.964844 C 4.621094 319.710938 3.539062 315.402344 2.671875 311.042969 C 1.804688 306.683594 1.152344 302.289062 0.71875 297.867188 C 0.28125 293.441406 0.0625 289.007812 0.0625 284.558594 Z M 0.0625 284.558594 " clip-rule="nonzero"/></clipPath><clipPath id="8f1b28392a"><path d="M 195 149 L 244 149 L 244 420 L 195 420 Z M 195 149 " clip-rule="nonzero"/></clipPath><clipPath id="3f298e75c4"><path d="M 0.0625 284.558594 C 0.0625 280.113281 0.28125 275.679688 0.71875 271.253906 C 1.152344 266.832031 1.804688 262.4375 2.671875 258.078125 C 3.539062 253.71875 4.621094 249.410156 5.910156 245.15625 C 7.199219 240.902344 8.695312 236.71875 10.398438 232.613281 C 12.101562 228.503906 14 224.492188 16.09375 220.570312 C 18.191406 216.648438 20.472656 212.839844 22.945312 209.144531 C 25.414062 205.445312 28.0625 201.878906 30.882812 198.445312 C 33.703125 195.007812 36.683594 191.71875 39.828125 188.574219 C 42.972656 185.429688 46.265625 182.449219 49.703125 179.628906 C 53.140625 176.804688 56.707031 174.160156 60.402344 171.691406 C 64.101562 169.222656 67.910156 166.9375 71.832031 164.84375 C 75.753906 162.746094 79.765625 160.847656 83.875 159.148438 C 87.984375 157.445312 92.164062 155.949219 96.421875 154.660156 C 100.675781 153.367188 104.984375 152.289062 109.34375 151.421875 C 113.707031 150.554688 118.097656 149.902344 122.523438 149.46875 C 126.949219 149.03125 131.386719 148.8125 135.832031 148.8125 C 140.277344 148.8125 144.714844 149.03125 149.140625 149.46875 C 153.5625 149.902344 157.957031 150.554688 162.320312 151.421875 C 166.679688 152.289062 170.988281 153.367188 175.242188 154.660156 C 179.496094 155.949219 183.679688 157.445312 187.789062 159.148438 C 191.894531 160.847656 195.910156 162.746094 199.832031 164.84375 C 203.753906 166.9375 207.5625 169.222656 211.261719 171.691406 C 214.957031 174.160156 218.523438 176.804688 221.960938 179.628906 C 225.398438 182.449219 228.691406 185.429688 231.832031 188.574219 C 234.976562 191.71875 237.960938 195.007812 240.78125 198.445312 C 243.601562 201.878906 246.246094 205.445312 248.71875 209.144531 C 251.1875 212.839844 253.472656 216.648438 255.566406 220.570312 C 257.664062 224.492188 259.5625 228.503906 261.265625 232.613281 C 262.964844 236.71875 264.460938 240.902344 265.753906 245.15625 C 267.042969 249.410156 268.121094 253.71875 268.992188 258.078125 C 269.859375 262.4375 270.507812 266.832031 270.945312 271.253906 C 271.382812 275.679688 271.597656 280.113281 271.597656 284.558594 C 271.597656 289.007812 271.382812 293.441406 270.945312 297.867188 C 270.507812 302.289062 269.859375 306.683594 268.992188 311.042969 C 268.121094 315.402344 267.042969 319.710938 265.753906 323.964844 C 264.460938 328.21875 262.964844 332.402344 261.265625 336.507812 C 259.5625 340.617188 257.664062 344.628906 255.566406 348.550781 C 253.472656 352.472656 251.1875 356.28125 248.71875 359.976562 C 246.246094 363.671875 243.601562 367.238281 240.78125 370.675781 C 237.960938 374.113281 234.976562 377.402344 231.832031 380.546875 C 228.691406 383.691406 225.398438 386.671875 221.960938 389.492188 C 218.523438 392.3125 214.957031 394.960938 211.261719 397.429688 C 207.5625 399.898438 203.753906 402.183594 199.832031 404.277344 C 195.910156 406.375 191.894531 408.273438 187.789062 409.972656 C 183.679688 411.675781 179.496094 413.171875 175.242188 414.460938 C 170.988281 415.75 166.679688 416.832031 162.320312 417.699219 C 157.957031 418.566406 153.5625 419.21875 149.140625 419.652344 C 144.714844 420.089844 140.277344 420.304688 135.832031 420.304688 C 131.386719 420.304688 126.949219 420.089844 122.523438 419.652344 C 118.097656 419.21875 113.707031 418.566406 109.34375 417.699219 C 104.984375 416.832031 100.675781 415.753906 96.421875 414.460938 C 92.164062 413.171875 87.984375 411.675781 83.875 409.972656 C 79.765625 408.273438 75.753906 406.375 71.832031 404.277344 C 67.910156 402.183594 64.101562 399.898438 60.402344 397.429688 C 56.707031 394.960938 53.140625 392.3125 49.703125 389.492188 C 46.265625 386.671875 42.972656 383.691406 39.828125 380.546875 C 36.683594 377.402344 33.703125 374.113281 30.882812 370.675781 C 28.0625 367.238281 25.414062 363.671875 22.945312 359.976562 C 20.472656 356.28125 18.191406 352.472656 16.09375 348.550781 C 14 344.628906 12.101562 340.617188 10.398438 336.507812 C 8.695312 332.402344 7.199219 328.21875 5.910156 323.964844 C 4.621094 319.710938 3.539062 315.402344 2.671875 311.042969 C 1.804688 306.683594 1.152344 302.289062 0.71875 297.867188 C 0.28125 293.441406 0.0625 289.007812 0.0625 284.558594 Z M 0.0625 284.558594 " clip-rule="nonzero"/></clipPath><clipPath id="5a6eeda949"><path d="M 14 161 L 149 161 L 149 260 L 14 260 Z M 14 161 " clip-rule="nonzero"/></clipPath><clipPath id="6b3dfbeca8"><path d="M 0.0625 284.558594 C 0.0625 280.113281 0.28125 275.679688 0.71875 271.253906 C 1.152344 266.832031 1.804688 262.4375 2.671875 258.078125 C 3.539062 253.71875 4.621094 249.410156 5.910156 245.15625 C 7.199219 240.902344 8.695312 236.71875 10.398438 232.613281 C 12.101562 228.503906 14 224.492188 16.09375 220.570312 C 18.191406 216.648438 20.472656 212.839844 22.945312 209.144531 C 25.414062 205.445312 28.0625 201.878906 30.882812 198.445312 C 33.703125 195.007812 36.683594 191.71875 39.828125 188.574219 C 42.972656 185.429688 46.265625 182.449219 49.703125 179.628906 C 53.140625 176.804688 56.707031 174.160156 60.402344 171.691406 C 64.101562 169.222656 67.910156 166.9375 71.832031 164.84375 C 75.753906 162.746094 79.765625 160.847656 83.875 159.148438 C 87.984375 157.445312 92.164062 155.949219 96.421875 154.660156 C 100.675781 153.367188 104.984375 152.289062 109.34375 151.421875 C 113.707031 150.554688 118.097656 149.902344 122.523438 149.46875 C 126.949219 149.03125 131.386719 148.8125 135.832031 148.8125 C 140.277344 148.8125 144.714844 149.03125 149.140625 149.46875 C 153.5625 149.902344 157.957031 150.554688 162.320312 151.421875 C 166.679688 152.289062 170.988281 153.367188 175.242188 154.660156 C 179.496094 155.949219 183.679688 157.445312 187.789062 159.148438 C 191.894531 160.847656 195.910156 162.746094 199.832031 164.84375 C 203.753906 166.9375 207.5625 169.222656 211.261719 171.691406 C 214.957031 174.160156 218.523438 176.804688 221.960938 179.628906 C 225.398438 182.449219 228.691406 185.429688 231.832031 188.574219 C 234.976562 191.71875 237.960938 195.007812 240.78125 198.445312 C 243.601562 201.878906 246.246094 205.445312 248.71875 209.144531 C 251.1875 212.839844 253.472656 216.648438 255.566406 220.570312 C 257.664062 224.492188 259.5625 228.503906 261.265625 232.613281 C 262.964844 236.71875 264.460938 240.902344 265.753906 245.15625 C 267.042969 249.410156 268.121094 253.71875 268.992188 258.078125 C 269.859375 262.4375 270.507812 266.832031 270.945312 271.253906 C 271.382812 275.679688 271.597656 280.113281 271.597656 284.558594 C 271.597656 289.007812 271.382812 293.441406 270.945312 297.867188 C 270.507812 302.289062 269.859375 306.683594 268.992188 311.042969 C 268.121094 315.402344 267.042969 319.710938 265.753906 323.964844 C 264.460938 328.21875 262.964844 332.402344 261.265625 336.507812 C 259.5625 340.617188 257.664062 344.628906 255.566406 348.550781 C 253.472656 352.472656 251.1875 356.28125 248.71875 359.976562 C 246.246094 363.671875 243.601562 367.238281 240.78125 370.675781 C 237.960938 374.113281 234.976562 377.402344 231.832031 380.546875 C 228.691406 383.691406 225.398438 386.671875 221.960938 389.492188 C 218.523438 392.3125 214.957031 394.960938 211.261719 397.429688 C 207.5625 399.898438 203.753906 402.183594 199.832031 404.277344 C 195.910156 406.375 191.894531 408.273438 187.789062 409.972656 C 183.679688 411.675781 179.496094 413.171875 175.242188 414.460938 C 170.988281 415.75 166.679688 416.832031 162.320312 417.699219 C 157.957031 418.566406 153.5625 419.21875 149.140625 419.652344 C 144.714844 420.089844 140.277344 420.304688 135.832031 420.304688 C 131.386719 420.304688 126.949219 420.089844 122.523438 419.652344 C 118.097656 419.21875 113.707031 418.566406 109.34375 417.699219 C 104.984375 416.832031 100.675781 415.753906 96.421875 414.460938 C 92.164062 413.171875 87.984375 411.675781 83.875 409.972656 C 79.765625 408.273438 75.753906 406.375 71.832031 404.277344 C 67.910156 402.183594 64.101562 399.898438 60.402344 397.429688 C 56.707031 394.960938 53.140625 392.3125 49.703125 389.492188 C 46.265625 386.671875 42.972656 383.691406 39.828125 380.546875 C 36.683594 377.402344 33.703125 374.113281 30.882812 370.675781 C 28.0625 367.238281 25.414062 363.671875 22.945312 359.976562 C 20.472656 356.28125 18.191406 352.472656 16.09375 348.550781 C 14 344.628906 12.101562 340.617188 10.398438 336.507812 C 8.695312 332.402344 7.199219 328.21875 5.910156 323.964844 C 4.621094 319.710938 3.539062 315.402344 2.671875 311.042969 C 1.804688 306.683594 1.152344 302.289062 0.71875 297.867188 C 0.28125 293.441406 0.0625 289.007812 0.0625 284.558594 Z M 0.0625 284.558594 " clip-rule="nonzero"/></clipPath><clipPath id="56da3dfeff"><path d="M 204.113281 206 L 592.894531 206 L 592.894531 575.878906 L 204.113281 575.878906 Z M 204.113281 206 " clip-rule="nonzero"/></clipPath><clipPath id="1ec677a298"><path d="M 532.660156 272.925781 C 533.359375 269.75 533.769531 266.542969 533.898438 263.296875 C 534.027344 260.050781 533.867188 256.816406 533.421875 253.601562 C 532.972656 250.382812 532.246094 247.230469 531.242188 244.140625 C 530.234375 241.050781 528.964844 238.078125 527.429688 235.214844 C 525.890625 232.351562 524.117188 229.644531 522.101562 227.097656 C 520.085938 224.550781 517.859375 222.199219 515.425781 220.046875 C 512.992188 217.898438 510.386719 215.976562 507.613281 214.285156 C 504.835938 212.597656 501.9375 211.164062 498.90625 209.992188 C 495.875 208.816406 492.769531 207.917969 489.578125 207.296875 C 486.390625 206.675781 483.171875 206.339844 479.921875 206.289062 C 476.671875 206.238281 473.445312 206.476562 470.238281 207 C 467.03125 207.523438 463.898438 208.324219 460.832031 209.402344 C 457.769531 210.484375 454.824219 211.824219 452 213.429688 C 449.171875 215.03125 446.511719 216.871094 444.011719 218.949219 C 441.511719 221.023438 439.214844 223.304688 437.121094 225.789062 C 435.027344 228.273438 433.171875 230.921875 431.546875 233.734375 C 429.925781 236.550781 428.5625 239.484375 427.460938 242.542969 C 426.359375 245.597656 425.535156 248.726562 424.992188 251.929688 C 424.445312 255.132812 424.1875 258.355469 424.214844 261.605469 C 424.242188 264.855469 424.554688 268.074219 425.15625 271.265625 C 425.753906 274.460938 426.632812 277.574219 427.785156 280.613281 C 428.9375 283.648438 430.351562 286.558594 432.023438 289.347656 C 433.691406 292.132812 435.597656 294.75 437.730469 297.199219 C 439.867188 299.644531 442.203125 301.886719 444.734375 303.917969 L 305.964844 425.816406 C 304.273438 423.042969 302.351562 420.441406 300.199219 418.007812 C 298.042969 415.574219 295.691406 413.351562 293.144531 411.335938 C 290.597656 409.320312 287.890625 407.546875 285.027344 406.011719 C 282.164062 404.476562 279.1875 403.207031 276.097656 402.203125 C 273.007812 401.195312 269.855469 400.472656 266.636719 400.023438 C 263.417969 399.578125 260.1875 399.421875 256.9375 399.550781 C 253.691406 399.679688 250.484375 400.09375 247.308594 400.789062 C 244.136719 401.488281 241.050781 402.460938 238.050781 403.710938 C 235.050781 404.957031 232.183594 406.457031 229.449219 408.214844 C 226.71875 409.96875 224.160156 411.953125 221.78125 414.164062 C 219.398438 416.375 217.230469 418.777344 215.277344 421.371094 C 213.324219 423.96875 211.613281 426.714844 210.148438 429.613281 C 208.683594 432.511719 207.484375 435.519531 206.550781 438.628906 C 205.621094 441.742188 204.96875 444.914062 204.601562 448.140625 C 204.234375 451.367188 204.152344 454.601562 204.359375 457.84375 C 204.5625 461.085938 205.054688 464.285156 205.828125 467.4375 C 206.601562 470.59375 207.648438 473.65625 208.96875 476.625 C 210.285156 479.59375 211.855469 482.421875 213.675781 485.113281 C 215.5 487.804688 217.542969 490.3125 219.808594 492.636719 C 222.078125 494.964844 224.53125 497.074219 227.171875 498.964844 C 229.8125 500.855469 232.601562 502.5 235.535156 503.894531 C 238.46875 505.292969 241.503906 506.417969 244.636719 507.277344 C 247.769531 508.132812 250.957031 508.707031 254.191406 508.996094 C 257.425781 509.289062 260.664062 509.292969 263.898438 509.007812 C 263.410156 511.234375 263.0625 513.476562 262.851562 515.746094 C 262.644531 518.011719 262.574219 520.285156 262.648438 522.558594 C 262.722656 524.835938 262.9375 527.097656 263.292969 529.34375 C 263.648438 531.59375 264.140625 533.8125 264.773438 536 C 265.402344 538.1875 266.167969 540.324219 267.066406 542.417969 C 267.964844 544.511719 268.988281 546.539062 270.136719 548.503906 C 271.289062 550.46875 272.554688 552.355469 273.941406 554.160156 C 275.328125 555.96875 276.820312 557.679688 278.417969 559.300781 C 280.015625 560.921875 281.710938 562.4375 283.496094 563.851562 C 285.285156 565.261719 287.152344 566.554688 289.101562 567.730469 C 291.050781 568.910156 293.0625 569.960938 295.144531 570.890625 C 297.222656 571.816406 299.351562 572.609375 301.53125 573.273438 C 303.707031 573.933594 305.917969 574.460938 308.164062 574.847656 C 310.40625 575.234375 312.667969 575.480469 314.941406 575.585938 C 317.214844 575.691406 319.488281 575.65625 321.757812 575.476562 C 324.027344 575.300781 326.277344 574.984375 328.507812 574.523438 C 330.738281 574.066406 332.933594 573.472656 335.089844 572.742188 C 337.246094 572.011719 339.347656 571.152344 341.398438 570.160156 C 343.449219 569.167969 345.425781 568.050781 347.335938 566.8125 C 349.246094 565.574219 351.074219 564.222656 352.816406 562.753906 C 354.558594 561.289062 356.203125 559.722656 357.75 558.050781 C 359.296875 556.378906 360.734375 554.621094 362.058594 552.769531 C 363.386719 550.921875 364.59375 548.996094 365.683594 546.996094 C 366.769531 544.996094 367.730469 542.9375 368.5625 540.816406 C 369.394531 538.695312 370.089844 536.535156 370.652344 534.328125 C 371.214844 532.121094 371.636719 529.890625 371.921875 527.628906 C 372.207031 525.371094 372.347656 523.105469 372.351562 520.828125 C 372.351562 518.550781 372.210938 516.28125 371.929688 514.023438 C 371.648438 511.765625 371.230469 509.53125 370.671875 507.324219 C 370.113281 505.117188 369.417969 502.953125 368.589844 500.832031 C 367.761719 498.710938 366.804688 496.652344 365.722656 494.648438 C 364.636719 492.648438 363.429688 490.722656 362.105469 488.871094 L 500.046875 367.699219 C 501.714844 369.253906 503.46875 370.695312 505.316406 372.03125 C 507.160156 373.363281 509.082031 374.578125 511.078125 375.671875 C 513.074219 376.765625 515.132812 377.734375 517.25 378.570312 C 519.367188 379.410156 521.527344 380.113281 523.730469 380.683594 C 525.9375 381.253906 528.167969 381.683594 530.425781 381.976562 C 532.683594 382.265625 534.953125 382.417969 537.230469 382.425781 C 539.507812 382.433594 541.777344 382.304688 544.035156 382.03125 C 546.296875 381.757812 548.53125 381.34375 550.742188 380.792969 C 552.949219 380.242188 555.117188 379.554688 557.242188 378.734375 C 559.363281 377.914062 561.429688 376.964844 563.433594 375.886719 C 565.441406 374.808594 567.371094 373.609375 569.226562 372.289062 C 571.085938 370.972656 572.851562 369.542969 574.53125 368.003906 C 576.207031 366.464844 577.785156 364.828125 579.261719 363.09375 C 580.734375 361.359375 582.097656 359.539062 583.34375 357.636719 C 584.59375 355.730469 585.71875 353.757812 586.71875 351.710938 C 587.722656 349.667969 588.59375 347.570312 589.332031 345.417969 C 590.074219 343.261719 590.679688 341.074219 591.148438 338.84375 C 591.613281 336.617188 591.941406 334.367188 592.128906 332.097656 C 592.320312 329.832031 592.367188 327.558594 592.269531 325.285156 C 592.175781 323.007812 591.941406 320.75 591.5625 318.503906 C 591.1875 316.257812 590.671875 314.042969 590.019531 311.863281 C 589.367188 309.679688 588.582031 307.550781 587.667969 305.464844 C 586.75 303.382812 585.707031 301.363281 584.535156 299.410156 C 583.367188 297.453125 582.082031 295.582031 580.679688 293.789062 C 579.277344 291.992188 577.769531 290.292969 576.15625 288.6875 C 574.539062 287.082031 572.832031 285.582031 571.03125 284.1875 C 569.230469 282.796875 567.351562 281.519531 565.390625 280.359375 C 563.433594 279.199219 561.40625 278.167969 559.320312 277.257812 C 557.230469 276.351562 555.09375 275.578125 552.910156 274.9375 C 550.722656 274.292969 548.507812 273.792969 546.261719 273.425781 C 544.011719 273.058594 541.75 272.835938 539.476562 272.75 C 537.199219 272.667969 534.929688 272.726562 532.660156 272.925781 Z M 532.660156 272.925781 " clip-rule="nonzero"/></clipPath><clipPath id="0b91cf264d"><path d="M 264 310 L 592.894531 310 L 592.894531 575.878906 L 264 575.878906 Z M 264 310 " clip-rule="nonzero"/></clipPath><clipPath id="e788baae37"><path d="M 532.660156 272.925781 C 533.359375 269.75 533.769531 266.542969 533.898438 263.296875 C 534.027344 260.050781 533.867188 256.816406 533.421875 253.601562 C 532.972656 250.382812 532.246094 247.230469 531.242188 244.140625 C 530.234375 241.050781 528.964844 238.078125 527.429688 235.214844 C 525.890625 232.351562 524.117188 229.644531 522.101562 227.097656 C 520.085938 224.550781 517.859375 222.199219 515.425781 220.046875 C 512.992188 217.898438 510.386719 215.976562 507.613281 214.285156 C 504.835938 212.597656 501.9375 211.164062 498.90625 209.992188 C 495.875 208.816406 492.769531 207.917969 489.578125 207.296875 C 486.390625 206.675781 483.171875 206.339844 479.921875 206.289062 C 476.671875 206.238281 473.445312 206.476562 470.238281 207 C 467.03125 207.523438 463.898438 208.324219 460.832031 209.402344 C 457.769531 210.484375 454.824219 211.824219 452 213.429688 C 449.171875 215.03125 446.511719 216.871094 444.011719 218.949219 C 441.511719 221.023438 439.214844 223.304688 437.121094 225.789062 C 435.027344 228.273438 433.171875 230.921875 431.546875 233.734375 C 429.925781 236.550781 428.5625 239.484375 427.460938 242.542969 C 426.359375 245.597656 425.535156 248.726562 424.992188 251.929688 C 424.445312 255.132812 424.1875 258.355469 424.214844 261.605469 C 424.242188 264.855469 424.554688 268.074219 425.15625 271.265625 C 425.753906 274.460938 426.632812 277.574219 427.785156 280.613281 C 428.9375 283.648438 430.351562 286.558594 432.023438 289.347656 C 433.691406 292.132812 435.597656 294.75 437.730469 297.199219 C 439.867188 299.644531 442.203125 301.886719 444.734375 303.917969 L 305.964844 425.816406 C 304.273438 423.042969 302.351562 420.441406 300.199219 418.007812 C 298.042969 415.574219 295.691406 413.351562 293.144531 411.335938 C 290.597656 409.320312 287.890625 407.546875 285.027344 406.011719 C 282.164062 404.476562 279.1875 403.207031 276.097656 402.203125 C 273.007812 401.195312 269.855469 400.472656 266.636719 400.023438 C 263.417969 399.578125 260.1875 399.421875 256.9375 399.550781 C 253.691406 399.679688 250.484375 400.09375 247.308594 400.789062 C 244.136719 401.488281 241.050781 402.460938 238.050781 403.710938 C 235.050781 404.957031 232.183594 406.457031 229.449219 408.214844 C 226.71875 409.96875 224.160156 411.953125 221.78125 414.164062 C 219.398438 416.375 217.230469 418.777344 215.277344 421.371094 C 213.324219 423.96875 211.613281 426.714844 210.148438 429.613281 C 208.683594 432.511719 207.484375 435.519531 206.550781 438.628906 C 205.621094 441.742188 204.96875 444.914062 204.601562 448.140625 C 204.234375 451.367188 204.152344 454.601562 204.359375 457.84375 C 204.5625 461.085938 205.054688 464.285156 205.828125 467.4375 C 206.601562 470.59375 207.648438 473.65625 208.96875 476.625 C 210.285156 479.59375 211.855469 482.421875 213.675781 485.113281 C 215.5 487.804688 217.542969 490.3125 219.808594 492.636719 C 222.078125 494.964844 224.53125 497.074219 227.171875 498.964844 C 229.8125 500.855469 232.601562 502.5 235.535156 503.894531 C 238.46875 505.292969 241.503906 506.417969 244.636719 507.277344 C 247.769531 508.132812 250.957031 508.707031 254.191406 508.996094 C 257.425781 509.289062 260.664062 509.292969 263.898438 509.007812 C 263.410156 511.234375 263.0625 513.476562 262.851562 515.746094 C 262.644531 518.011719 262.574219 520.285156 262.648438 522.558594 C 262.722656 524.835938 262.9375 527.097656 263.292969 529.34375 C 263.648438 531.59375 264.140625 533.8125 264.773438 536 C 265.402344 538.1875 266.167969 540.324219 267.066406 542.417969 C 267.964844 544.511719 268.988281 546.539062 270.136719 548.503906 C 271.289062 550.46875 272.554688 552.355469 273.941406 554.160156 C 275.328125 555.96875 276.820312 557.679688 278.417969 559.300781 C 280.015625 560.921875 281.710938 562.4375 283.496094 563.851562 C 285.285156 565.261719 287.152344 566.554688 289.101562 567.730469 C 291.050781 568.910156 293.0625 569.960938 295.144531 570.890625 C 297.222656 571.816406 299.351562 572.609375 301.53125 573.273438 C 303.707031 573.933594 305.917969 574.460938 308.164062 574.847656 C 310.40625 575.234375 312.667969 575.480469 314.941406 575.585938 C 317.214844 575.691406 319.488281 575.65625 321.757812 575.476562 C 324.027344 575.300781 326.277344 574.984375 328.507812 574.523438 C 330.738281 574.066406 332.933594 573.472656 335.089844 572.742188 C 337.246094 572.011719 339.347656 571.152344 341.398438 570.160156 C 343.449219 569.167969 345.425781 568.050781 347.335938 566.8125 C 349.246094 565.574219 351.074219 564.222656 352.816406 562.753906 C 354.558594 561.289062 356.203125 559.722656 357.75 558.050781 C 359.296875 556.378906 360.734375 554.621094 362.058594 552.769531 C 363.386719 550.921875 364.59375 548.996094 365.683594 546.996094 C 366.769531 544.996094 367.730469 542.9375 368.5625 540.816406 C 369.394531 538.695312 370.089844 536.535156 370.652344 534.328125 C 371.214844 532.121094 371.636719 529.890625 371.921875 527.628906 C 372.207031 525.371094 372.347656 523.105469 372.351562 520.828125 C 372.351562 518.550781 372.210938 516.28125 371.929688 514.023438 C 371.648438 511.765625 371.230469 509.53125 370.671875 507.324219 C 370.113281 505.117188 369.417969 502.953125 368.589844 500.832031 C 367.761719 498.710938 366.804688 496.652344 365.722656 494.648438 C 364.636719 492.648438 363.429688 490.722656 362.105469 488.871094 L 500.046875 367.699219 C 501.714844 369.253906 503.46875 370.695312 505.316406 372.03125 C 507.160156 373.363281 509.082031 374.578125 511.078125 375.671875 C 513.074219 376.765625 515.132812 377.734375 517.25 378.570312 C 519.367188 379.410156 521.527344 380.113281 523.730469 380.683594 C 525.9375 381.253906 528.167969 381.683594 530.425781 381.976562 C 532.683594 382.265625 534.953125 382.417969 537.230469 382.425781 C 539.507812 382.433594 541.777344 382.304688 544.035156 382.03125 C 546.296875 381.757812 548.53125 381.34375 550.742188 380.792969 C 552.949219 380.242188 555.117188 379.554688 557.242188 378.734375 C 559.363281 377.914062 561.429688 376.964844 563.433594 375.886719 C 565.441406 374.808594 567.371094 373.609375 569.226562 372.289062 C 571.085938 370.972656 572.851562 369.542969 574.53125 368.003906 C 576.207031 366.464844 577.785156 364.828125 579.261719 363.09375 C 580.734375 361.359375 582.097656 359.539062 583.34375 357.636719 C 584.59375 355.730469 585.71875 353.757812 586.71875 351.710938 C 587.722656 349.667969 588.59375 347.570312 589.332031 345.417969 C 590.074219 343.261719 590.679688 341.074219 591.148438 338.84375 C 591.613281 336.617188 591.941406 334.367188 592.128906 332.097656 C 592.320312 329.832031 592.367188 327.558594 592.269531 325.285156 C 592.175781 323.007812 591.941406 320.75 591.5625 318.503906 C 591.1875 316.257812 590.671875 314.042969 590.019531 311.863281 C 589.367188 309.679688 588.582031 307.550781 587.667969 305.464844 C 586.75 303.382812 585.707031 301.363281 584.535156 299.410156 C 583.367188 297.453125 582.082031 295.582031 580.679688 293.789062 C 579.277344 291.992188 577.769531 290.292969 576.15625 288.6875 C 574.539062 287.082031 572.832031 285.582031 571.03125 284.1875 C 569.230469 282.796875 567.351562 281.519531 565.390625 280.359375 C 563.433594 279.199219 561.40625 278.167969 559.320312 277.257812 C 557.230469 276.351562 555.09375 275.578125 552.910156 274.9375 C 550.722656 274.292969 548.507812 273.792969 546.261719 273.425781 C 544.011719 273.058594 541.75 272.835938 539.476562 272.75 C 537.199219 272.667969 534.929688 272.726562 532.660156 272.925781 Z M 532.660156 272.925781 " clip-rule="nonzero"/></clipPath></defs><g clip-path="url(#aaa7e6faaf)"><g clip-path="url(#5fdc8dea08)"><path fill="#cc3745" d="M 493.039062 200.382812 C 488.984375 215.320312 455.132812 216.675781 447.101562 228.960938 C 438.789062 241.75 450.9375 273.179688 439.339844 282.515625 C 427.738281 291.847656 399.425781 273.242188 385.355469 278.601562 C 371.289062 283.960938 362.835938 316.667969 347.628906 317.410156 C 332.972656 318.125 321.195312 286.542969 306.269531 282.5 C 291.34375 278.460938 265.203125 299.75 252.914062 291.722656 C 240.125 283.410156 249.308594 250.804688 239.972656 239.179688 C 230.636719 227.554688 196.769531 229.332031 191.375 215.28125 C 185.976562 201.226562 212.476562 180.347656 211.734375 165.15625 C 211.019531 150.488281 182.5 132.214844 186.539062 117.28125 C 190.582031 102.347656 224.445312 100.976562 232.476562 88.691406 C 240.804688 75.902344 228.640625 44.484375 240.242188 35.152344 C 251.839844 25.816406 280.15625 44.410156 294.222656 38.988281 C 308.289062 33.566406 316.78125 0.996094 332 0.242188 C 346.65625 -0.472656 358.4375 31.109375 373.375 35.164062 C 388.3125 39.21875 414.425781 17.902344 426.714844 25.929688 C 439.503906 34.253906 430.335938 66.851562 439.660156 78.472656 C 448.980469 90.097656 482.859375 88.320312 488.257812 102.382812 C 493.652344 116.449219 467.15625 137.304688 467.898438 152.507812 C 468.574219 167.164062 497.082031 185.449219 493.039062 200.382812 Z M 493.039062 200.382812 " fill-opacity="1" fill-rule="nonzero"/></g></g><g clip-path="url(#c7c0f67885)"><g clip-path="url(#53ae376511)"><path fill="#e73f46" d="M 465.300781 175.335938 C 462.984375 187.378906 436.320312 190.460938 430.707031 200.652344 C 424.886719 211.203125 436.371094 235.355469 427.753906 243.410156 C 419.132812 251.46875 395.664062 238.464844 384.871094 243.527344 C 374.078125 248.589844 369.332031 274.933594 357.363281 276.429688 C 345.851562 277.871094 334.648438 253.617188 322.601562 251.300781 C 310.554688 248.988281 291.191406 267.375 281.011719 261.761719 C 270.449219 255.929688 275.71875 229.628906 267.660156 221.007812 C 259.601562 212.390625 232.949219 215.792969 227.875 205 C 222.796875 194.207031 242.480469 176.152344 240.980469 164.195312 C 239.550781 152.6875 215.929688 139.902344 218.242188 127.867188 C 220.558594 115.835938 247.222656 112.742188 252.773438 102.550781 C 258.59375 92 247.109375 67.847656 255.726562 59.792969 C 264.347656 51.734375 287.816406 64.738281 298.609375 59.664062 C 309.402344 54.585938 314.210938 28.257812 326.167969 26.761719 C 337.679688 25.316406 348.894531 49.574219 360.929688 51.890625 C 372.964844 54.203125 392.351562 35.816406 402.53125 41.429688 C 413.097656 47.246094 407.8125 73.5625 415.882812 82.179688 C 423.953125 90.800781 450.59375 87.398438 455.65625 98.191406 C 460.722656 108.984375 441.066406 127.039062 442.550781 138.992188 C 443.996094 150.554688 467.5625 163.300781 465.300781 175.335938 Z M 465.300781 175.335938 " fill-opacity="1" fill-rule="nonzero"/></g></g><g clip-path="url(#12ea3b426c)"><g clip-path="url(#c7a008dbe0)"><path fill="#e73f46" d="M 462.21875 111.640625 C 462.21875 113.953125 462.160156 116.261719 462.046875 118.570312 C 461.933594 120.878906 461.765625 123.183594 461.539062 125.484375 C 461.3125 127.785156 461.027344 130.078125 460.691406 132.363281 C 460.351562 134.648438 459.957031 136.925781 459.503906 139.191406 C 459.054688 141.460938 458.546875 143.714844 457.984375 145.957031 C 457.425781 148.199219 456.808594 150.425781 456.136719 152.636719 C 455.464844 154.847656 454.742188 157.042969 453.960938 159.21875 C 453.183594 161.394531 452.351562 163.550781 451.46875 165.683594 C 450.582031 167.820312 449.644531 169.933594 448.65625 172.019531 C 447.667969 174.109375 446.628906 176.175781 445.539062 178.210938 C 444.453125 180.25 443.3125 182.261719 442.125 184.242188 C 440.933594 186.226562 439.699219 188.179688 438.414062 190.097656 C 437.128906 192.019531 435.800781 193.910156 434.421875 195.765625 C 433.046875 197.621094 431.625 199.445312 430.15625 201.230469 C 428.691406 203.015625 427.183594 204.765625 425.628906 206.480469 C 424.078125 208.191406 422.484375 209.863281 420.851562 211.5 C 419.214844 213.132812 417.542969 214.726562 415.828125 216.277344 C 414.117188 217.832031 412.367188 219.339844 410.578125 220.804688 C 408.792969 222.273438 406.972656 223.695312 405.113281 225.070312 C 403.257812 226.449219 401.367188 227.777344 399.445312 229.0625 C 397.523438 230.347656 395.574219 231.582031 393.589844 232.769531 C 391.605469 233.957031 389.597656 235.097656 387.558594 236.1875 C 385.519531 237.277344 383.457031 238.316406 381.367188 239.304688 C 379.277344 240.292969 377.164062 241.226562 375.027344 242.113281 C 372.890625 242.996094 370.738281 243.828125 368.558594 244.605469 C 366.382812 245.386719 364.1875 246.109375 361.976562 246.78125 C 359.765625 247.453125 357.539062 248.066406 355.296875 248.628906 C 353.054688 249.191406 350.800781 249.695312 348.53125 250.148438 C 346.265625 250.597656 343.988281 250.992188 341.703125 251.332031 C 339.414062 251.671875 337.121094 251.953125 334.820312 252.179688 C 332.519531 252.40625 330.214844 252.578125 327.90625 252.691406 C 325.597656 252.804688 323.289062 252.863281 320.976562 252.863281 C 318.664062 252.863281 316.355469 252.804688 314.046875 252.691406 C 311.738281 252.578125 309.433594 252.40625 307.132812 252.179688 C 304.832031 251.953125 302.539062 251.671875 300.253906 251.332031 C 297.964844 250.992188 295.691406 250.597656 293.421875 250.148438 C 291.15625 249.695312 288.902344 249.191406 286.660156 248.628906 C 284.417969 248.066406 282.1875 247.453125 279.976562 246.78125 C 277.765625 246.109375 275.570312 245.386719 273.394531 244.605469 C 271.21875 243.828125 269.0625 242.996094 266.925781 242.113281 C 264.789062 241.226562 262.679688 240.292969 260.589844 239.304688 C 258.5 238.316406 256.433594 237.277344 254.398438 236.1875 C 252.359375 235.097656 250.347656 233.957031 248.363281 232.769531 C 246.382812 231.582031 244.429688 230.347656 242.507812 229.0625 C 240.585938 227.777344 238.695312 226.449219 236.839844 225.070312 C 234.984375 223.695312 233.160156 222.273438 231.375 220.804688 C 229.585938 219.339844 227.839844 217.832031 226.125 216.277344 C 224.414062 214.726562 222.738281 213.132812 221.105469 211.5 C 219.46875 209.863281 217.875 208.191406 216.324219 206.480469 C 214.773438 204.765625 213.261719 203.015625 211.796875 201.230469 C 210.328125 199.445312 208.90625 197.621094 207.53125 195.765625 C 206.152344 193.910156 204.824219 192.019531 203.539062 190.097656 C 202.253906 188.179688 201.019531 186.226562 199.832031 184.242188 C 198.640625 182.261719 197.503906 180.25 196.414062 178.210938 C 195.324219 176.175781 194.285156 174.109375 193.296875 172.019531 C 192.308594 169.933594 191.371094 167.820312 190.488281 165.683594 C 189.601562 163.550781 188.769531 161.394531 187.992188 159.21875 C 187.214844 157.042969 186.488281 154.847656 185.816406 152.636719 C 185.148438 150.425781 184.53125 148.199219 183.96875 145.957031 C 183.40625 143.714844 182.902344 141.460938 182.449219 139.191406 C 182 136.925781 181.605469 134.648438 181.265625 132.363281 C 180.925781 130.078125 180.644531 127.785156 180.417969 125.484375 C 180.191406 123.183594 180.019531 120.878906 179.90625 118.570312 C 179.792969 116.261719 179.734375 113.953125 179.734375 111.640625 C 179.734375 109.332031 179.792969 107.019531 179.90625 104.714844 C 180.019531 102.40625 180.191406 100.101562 180.417969 97.800781 C 180.644531 95.5 180.925781 93.207031 181.265625 90.921875 C 181.605469 88.636719 182 86.359375 182.449219 84.09375 C 182.902344 81.824219 183.40625 79.570312 183.96875 77.328125 C 184.53125 75.085938 185.148438 72.859375 185.816406 70.648438 C 186.488281 68.4375 187.214844 66.242188 187.992188 64.066406 C 188.769531 61.890625 189.601562 59.734375 190.488281 57.601562 C 191.371094 55.464844 192.308594 53.351562 193.296875 51.261719 C 194.285156 49.175781 195.324219 47.109375 196.414062 45.070312 C 197.503906 43.035156 198.640625 41.023438 199.832031 39.042969 C 201.019531 37.058594 202.253906 35.105469 203.539062 33.183594 C 204.824219 31.261719 206.152344 29.375 207.53125 27.519531 C 208.90625 25.660156 210.328125 23.839844 211.796875 22.054688 C 213.261719 20.265625 214.773438 18.519531 216.324219 16.804688 C 217.875 15.09375 219.46875 13.417969 221.105469 11.785156 C 222.738281 10.152344 224.414062 8.558594 226.125 7.007812 C 227.839844 5.453125 229.585938 3.945312 231.375 2.480469 C 233.160156 1.011719 234.984375 -0.410156 236.839844 -1.785156 C 238.695312 -3.164062 240.585938 -4.492188 242.507812 -5.777344 C 244.429688 -7.0625 246.382812 -8.296875 248.363281 -9.484375 C 250.347656 -10.671875 252.359375 -11.8125 254.398438 -12.902344 C 256.433594 -13.992188 258.5 -15.03125 260.589844 -16.019531 C 262.679688 -17.007812 264.789062 -17.941406 266.925781 -18.828125 C 269.0625 -19.710938 271.21875 -20.542969 273.394531 -21.320312 C 275.570312 -22.101562 277.765625 -22.824219 279.976562 -23.496094 C 282.1875 -24.167969 284.417969 -24.78125 286.660156 -25.34375 C 288.902344 -25.90625 291.15625 -26.414062 293.421875 -26.863281 C 295.691406 -27.3125 297.964844 -27.710938 300.253906 -28.046875 C 302.539062 -28.386719 304.832031 -28.671875 307.132812 -28.898438 C 309.433594 -29.125 311.738281 -29.292969 314.046875 -29.40625 C 316.355469 -29.519531 318.664062 -29.578125 320.976562 -29.578125 C 323.289062 -29.578125 325.597656 -29.519531 327.90625 -29.40625 C 330.214844 -29.292969 332.519531 -29.125 334.820312 -28.898438 C 337.121094 -28.671875 339.414062 -28.386719 341.703125 -28.046875 C 343.988281 -27.710938 346.265625 -27.3125 348.53125 -26.863281 C 350.800781 -26.414062 353.054688 -25.90625 355.296875 -25.34375 C 357.539062 -24.78125 359.765625 -24.167969 361.976562 -23.496094 C 364.1875 -22.824219 366.382812 -22.101562 368.558594 -21.320312 C 370.738281 -20.542969 372.890625 -19.710938 375.027344 -18.828125 C 377.164062 -17.941406 379.277344 -17.007812 381.367188 -16.019531 C 383.457031 -15.03125 385.519531 -13.992188 387.558594 -12.902344 C 389.597656 -11.8125 391.605469 -10.671875 393.589844 -9.484375 C 395.574219 -8.296875 397.523438 -7.0625 399.445312 -5.777344 C 401.367188 -4.492188 403.257812 -3.164062 405.113281 -1.785156 C 406.972656 -0.410156 408.792969 1.011719 410.578125 2.480469 C 412.367188 3.945312 414.117188 5.453125 415.828125 7.007812 C 417.542969 8.558594 419.214844 10.152344 420.851562 11.785156 C 422.484375 13.417969 424.078125 15.09375 425.628906 16.804688 C 427.183594 18.519531 428.691406 20.265625 430.15625 22.054688 C 431.625 23.839844 433.046875 25.660156 434.421875 27.519531 C 435.800781 29.375 437.128906 31.261719 438.414062 33.183594 C 439.699219 35.105469 440.933594 37.058594 442.125 39.042969 C 443.3125 41.023438 444.453125 43.035156 445.539062 45.070312 C 446.628906 47.109375 447.667969 49.175781 448.65625 51.261719 C 449.644531 53.351562 450.582031 55.464844 451.46875 57.601562 C 452.351562 59.734375 453.183594 61.890625 453.960938 64.066406 C 454.742188 66.242188 455.464844 68.4375 456.136719 70.648438 C 456.808594 72.859375 457.425781 75.085938 457.984375 77.328125 C 458.546875 79.570312 459.054688 81.824219 459.503906 84.09375 C 459.957031 86.359375 460.351562 88.636719 460.691406 90.921875 C 461.027344 93.207031 461.3125 95.5 461.539062 97.800781 C 461.765625 100.101562 461.933594 102.40625 462.046875 104.714844 C 462.160156 107.019531 462.21875 109.332031 462.21875 111.640625 Z M 462.21875 111.640625 " fill-opacity="1" fill-rule="nonzero"/></g></g><path fill="#ffffff" d="M 190.964844 110.734375 C 190.964844 110.734375 233.359375 102.382812 240.125 94.980469 C 246.890625 87.578125 237.070312 49.101562 242.9375 40.777344 C 248.808594 32.453125 274.695312 49.394531 294.441406 48.667969 C 314.1875 47.9375 323.945312 3.746094 323.945312 3.746094 C 323.945312 3.746094 318.929688 7.097656 311.246094 17.429688 C 303.558594 27.761719 299.835938 38.550781 285.769531 37.796875 C 271.703125 37.042969 253.925781 28.769531 243.667969 31.53125 C 233.410156 34.292969 232.667969 43.539062 233.195312 58.21875 C 233.71875 72.898438 235.6875 85.070312 228.984375 89.316406 C 222.285156 93.5625 193.597656 104.074219 190.964844 110.734375 Z M 190.964844 110.734375 " fill-opacity="1" fill-rule="nonzero"/><path fill="#cc3745" d="M 279.257812 185.808594 C 279.257812 185.808594 283.097656 210.855469 294.875 216.496094 C 306.652344 222.132812 323.945312 188.953125 323.945312 188.953125 C 321.742188 190.449219 319.433594 191.769531 317.027344 192.902344 C 311.910156 195.320312 305.03125 198.582031 297.421875 197.621094 C 287.304688 196.332031 281 188.210938 279.257812 185.808594 Z M 279.257812 185.808594 " fill-opacity="1" fill-rule="nonzero"/><path fill="#cc3745" d="M 375.394531 102.066406 C 375.394531 102.066406 385.714844 78.90625 378.886719 67.835938 C 372.054688 56.761719 339.519531 75.238281 339.519531 75.238281 C 342.1875 75.167969 344.84375 75.308594 347.488281 75.660156 C 353.089844 76.402344 360.648438 77.386719 366.519531 82.308594 C 374.332031 88.867188 375.242188 99.097656 375.394531 102.066406 Z M 375.394531 102.066406 " fill-opacity="1" fill-rule="nonzero"/><path fill="#cc3745" d="M 298.53125 89.570312 C 298.53125 89.570312 278.414062 74.074219 266.0625 78.167969 C 253.707031 82.257812 264.039062 118.152344 264.039062 118.152344 C 264.601562 115.535156 265.359375 112.976562 266.316406 110.480469 C 268.351562 105.199219 271.074219 98.089844 277.238281 93.535156 C 285.449219 87.511719 295.605469 89.023438 298.53125 89.570312 Z M 298.53125 89.570312 " fill-opacity="1" fill-rule="nonzero"/><path fill="#cc3745" d="M 360.378906 179.222656 C 360.378906 179.222656 383.207031 190.242188 394.488281 183.761719 C 405.769531 177.277344 388.273438 144.199219 388.273438 144.199219 C 388.253906 146.863281 388.027344 149.507812 387.59375 152.136719 C 386.6875 157.726562 385.460938 165.246094 380.355469 170.960938 C 373.605469 178.570312 363.347656 179.15625 360.378906 179.222656 Z M 360.378906 179.222656 " fill-opacity="1" fill-rule="nonzero"/><g clip-path="url(#275027f822)"><g clip-path="url(#bb69127d15)"><path fill="#287eef" d="M 271.597656 284.558594 C 271.597656 286.78125 271.542969 289.003906 271.4375 291.222656 C 271.328125 293.441406 271.164062 295.65625 270.945312 297.867188 C 270.726562 300.078125 270.457031 302.28125 270.128906 304.476562 C 269.804688 306.675781 269.421875 308.863281 268.992188 311.042969 C 268.558594 313.222656 268.070312 315.390625 267.53125 317.542969 C 266.992188 319.699219 266.398438 321.839844 265.753906 323.964844 C 265.109375 326.089844 264.410156 328.199219 263.664062 330.292969 C 262.914062 332.382812 262.113281 334.457031 261.265625 336.507812 C 260.414062 338.5625 259.515625 340.589844 258.5625 342.597656 C 257.613281 344.609375 256.613281 346.589844 255.566406 348.550781 C 254.519531 350.511719 253.425781 352.441406 252.28125 354.347656 C 251.140625 356.253906 249.953125 358.128906 248.71875 359.976562 C 247.484375 361.824219 246.203125 363.640625 244.882812 365.425781 C 243.558594 367.207031 242.191406 368.960938 240.78125 370.675781 C 239.371094 372.394531 237.921875 374.074219 236.429688 375.722656 C 234.9375 377.367188 233.40625 378.976562 231.832031 380.546875 C 230.261719 382.117188 228.652344 383.648438 227.007812 385.140625 C 225.359375 386.632812 223.679688 388.085938 221.960938 389.492188 C 220.242188 390.902344 218.492188 392.269531 216.707031 393.59375 C 214.921875 394.917969 213.105469 396.195312 211.261719 397.429688 C 209.414062 398.664062 207.535156 399.851562 205.628906 400.992188 C 203.722656 402.136719 201.792969 403.230469 199.832031 404.277344 C 197.871094 405.324219 195.886719 406.324219 193.878906 407.273438 C 191.871094 408.222656 189.839844 409.125 187.789062 409.972656 C 185.734375 410.824219 183.664062 411.621094 181.570312 412.371094 C 179.476562 413.121094 177.367188 413.816406 175.242188 414.460938 C 173.117188 415.105469 170.976562 415.699219 168.820312 416.238281 C 166.664062 416.777344 164.496094 417.265625 162.320312 417.699219 C 160.140625 418.132812 157.949219 418.511719 155.753906 418.835938 C 153.554688 419.164062 151.351562 419.433594 149.140625 419.652344 C 146.929688 419.871094 144.710938 420.035156 142.492188 420.144531 C 140.273438 420.253906 138.054688 420.304688 135.832031 420.304688 C 133.609375 420.304688 131.390625 420.253906 129.167969 420.144531 C 126.949219 420.035156 124.734375 419.871094 122.523438 419.652344 C 120.3125 419.433594 118.109375 419.164062 115.910156 418.835938 C 113.710938 418.511719 111.523438 418.132812 109.34375 417.699219 C 107.164062 417.265625 104.996094 416.777344 102.84375 416.238281 C 100.6875 415.699219 98.546875 415.105469 96.421875 414.460938 C 94.292969 413.816406 92.183594 413.121094 90.09375 412.371094 C 88 411.621094 85.929688 410.824219 83.875 409.972656 C 81.824219 409.125 79.792969 408.222656 77.785156 407.273438 C 75.773438 406.324219 73.789062 405.324219 71.832031 404.277344 C 69.871094 403.230469 67.9375 402.136719 66.03125 400.992188 C 64.128906 399.851562 62.25 398.664062 60.402344 397.429688 C 58.554688 396.195312 56.738281 394.917969 54.953125 393.59375 C 53.171875 392.269531 51.417969 390.902344 49.703125 389.492188 C 47.984375 388.085938 46.300781 386.632812 44.65625 385.140625 C 43.007812 383.648438 41.402344 382.117188 39.828125 380.546875 C 38.257812 378.976562 36.726562 377.367188 35.234375 375.722656 C 33.742188 374.074219 32.292969 372.394531 30.882812 370.675781 C 29.472656 368.960938 28.105469 367.207031 26.78125 365.425781 C 25.457031 363.640625 24.179688 361.824219 22.945312 359.976562 C 21.710938 358.128906 20.523438 356.253906 19.378906 354.347656 C 18.238281 352.441406 17.144531 350.511719 16.09375 348.550781 C 15.046875 346.589844 14.050781 344.609375 13.097656 342.597656 C 12.148438 340.589844 11.25 338.5625 10.398438 336.507812 C 9.546875 334.457031 8.75 332.382812 8 330.292969 C 7.25 328.199219 6.554688 326.089844 5.910156 323.964844 C 5.265625 321.839844 4.671875 319.699219 4.132812 317.542969 C 3.59375 315.390625 3.105469 313.222656 2.671875 311.042969 C 2.238281 308.863281 1.859375 306.675781 1.535156 304.476562 C 1.207031 302.28125 0.933594 300.078125 0.71875 297.867188 C 0.5 295.65625 0.335938 293.441406 0.226562 291.222656 C 0.117188 289.003906 0.0625 286.78125 0.0625 284.558594 C 0.0625 282.339844 0.117188 280.117188 0.226562 277.898438 C 0.335938 275.679688 0.5 273.464844 0.71875 271.253906 C 0.933594 269.042969 1.207031 266.839844 1.535156 264.640625 C 1.859375 262.445312 2.238281 260.257812 2.671875 258.078125 C 3.105469 255.898438 3.59375 253.730469 4.132812 251.578125 C 4.671875 249.421875 5.265625 247.28125 5.910156 245.15625 C 6.554688 243.03125 7.25 240.921875 8 238.828125 C 8.75 236.738281 9.546875 234.664062 10.398438 232.613281 C 11.25 230.558594 12.148438 228.53125 13.097656 226.519531 C 14.050781 224.511719 15.046875 222.527344 16.09375 220.570312 C 17.144531 218.609375 18.238281 216.679688 19.378906 214.773438 C 20.523438 212.867188 21.710938 210.992188 22.945312 209.144531 C 24.179688 207.296875 25.457031 205.480469 26.78125 203.695312 C 28.105469 201.910156 29.472656 200.160156 30.882812 198.445312 C 32.292969 196.726562 33.742188 195.042969 35.234375 193.398438 C 36.726562 191.753906 38.257812 190.144531 39.828125 188.574219 C 41.402344 187.003906 43.007812 185.472656 44.65625 183.980469 C 46.300781 182.488281 47.984375 181.035156 49.703125 179.628906 C 51.417969 178.21875 53.171875 176.851562 54.953125 175.527344 C 56.738281 174.203125 58.554688 172.925781 60.402344 171.691406 C 62.25 170.457031 64.128906 169.269531 66.03125 168.125 C 67.9375 166.984375 69.871094 165.890625 71.832031 164.84375 C 73.789062 163.796875 75.773438 162.796875 77.785156 161.847656 C 79.792969 160.898438 81.824219 159.996094 83.875 159.148438 C 85.929688 158.296875 88 157.496094 90.09375 156.75 C 92.183594 156 94.292969 155.304688 96.421875 154.660156 C 98.546875 154.015625 100.6875 153.421875 102.84375 152.882812 C 104.996094 152.34375 107.164062 151.855469 109.34375 151.421875 C 111.523438 150.988281 113.710938 150.609375 115.910156 150.285156 C 118.109375 149.957031 120.3125 149.683594 122.523438 149.46875 C 124.734375 149.25 126.949219 149.085938 129.167969 148.976562 C 131.390625 148.867188 133.609375 148.8125 135.832031 148.8125 C 138.054688 148.8125 140.273438 148.867188 142.492188 148.976562 C 144.710938 149.085938 146.929688 149.25 149.140625 149.46875 C 151.351562 149.683594 153.554688 149.957031 155.753906 150.285156 C 157.949219 150.609375 160.140625 150.988281 162.320312 151.421875 C 164.496094 151.855469 166.664062 152.34375 168.820312 152.882812 C 170.976562 153.421875 173.117188 154.015625 175.242188 154.660156 C 177.367188 155.304688 179.476562 156 181.570312 156.75 C 183.664062 157.496094 185.734375 158.296875 187.789062 159.148438 C 189.839844 159.996094 191.871094 160.898438 193.878906 161.847656 C 195.886719 162.796875 197.871094 163.796875 199.832031 164.84375 C 201.792969 165.890625 203.722656 166.984375 205.628906 168.125 C 207.535156 169.269531 209.414062 170.457031 211.261719 171.691406 C 213.105469 172.925781 214.921875 174.203125 216.707031 175.527344 C 218.492188 176.851562 220.242188 178.21875 221.960938 179.628906 C 223.679688 181.035156 225.359375 182.488281 227.007812 183.980469 C 228.652344 185.472656 230.261719 187.003906 231.832031 188.574219 C 233.40625 190.144531 234.9375 191.753906 236.429688 193.398438 C 237.921875 195.042969 239.371094 196.726562 240.78125 198.445312 C 242.191406 200.160156 243.558594 201.910156 244.882812 203.695312 C 246.203125 205.480469 247.484375 207.296875 248.71875 209.144531 C 249.953125 210.992188 251.140625 212.867188 252.285156 214.773438 C 253.425781 216.679688 254.519531 218.609375 255.566406 220.570312 C 256.613281 222.527344 257.613281 224.511719 258.5625 226.519531 C 259.515625 228.53125 260.414062 230.558594 261.265625 232.613281 C 262.113281 234.664062 262.914062 236.738281 263.664062 238.828125 C 264.410156 240.921875 265.109375 243.03125 265.753906 245.15625 C 266.398438 247.28125 266.992188 249.421875 267.53125 251.578125 C 268.070312 253.730469 268.558594 255.898438 268.992188 258.078125 C 269.421875 260.257812 269.804688 262.445312 270.128906 264.640625 C 270.457031 266.839844 270.726562 269.042969 270.945312 271.253906 C 271.164062 273.464844 271.328125 275.679688 271.4375 277.898438 C 271.542969 280.117188 271.597656 282.339844 271.597656 284.558594 Z M 271.597656 284.558594 " fill-opacity="1" fill-rule="nonzero"/></g></g><g clip-path="url(#4d17b6c341)"><g clip-path="url(#722d4c703b)"><path fill="#1573d8" d="M 225.355469 181.585938 C 225.355469 181.585938 282.738281 379.003906 92.988281 420.292969 L 122.058594 460.546875 L 282.738281 406.535156 L 328.652344 261.824219 L 296.511719 181.613281 Z M 225.355469 181.585938 " fill-opacity="1" fill-rule="nonzero"/></g></g><g clip-path="url(#28bce88ee2)"><g clip-path="url(#1119b802da)"><path fill="#86ebf9" d="M 54.070312 424.550781 L 45.335938 421.714844 C 45.277344 421.890625 45.25 422.074219 45.261719 422.261719 C 45.082031 420.984375 42.140625 417.289062 40.386719 415.101562 C 36.066406 409.707031 31.601562 404.117188 33.175781 398.480469 C 34.570312 393.453125 40.464844 391.28125 46.71875 388.964844 C 49.378906 387.992188 54.175781 386.214844 55.441406 384.914062 C 54.773438 383.363281 51.769531 380.207031 49.914062 378.261719 C 45.234375 373.367188 40.398438 368.300781 41.449219 362.714844 C 42.421875 357.484375 48.1875 354.761719 54.238281 351.882812 C 56.796875 350.71875 61.234375 348.597656 62.410156 347.230469 C 61.617188 345.71875 58.292969 342.792969 56.246094 340.976562 C 51.21875 336.539062 46.015625 331.949219 46.550781 326.347656 C 47.089844 321.003906 52.625 317.792969 58.496094 314.378906 C 60.863281 313 65.109375 310.542969 66.171875 309.085938 C 65.261719 307.640625 61.667969 304.980469 59.457031 303.34375 C 54.085938 299.378906 48.519531 295.261719 48.585938 289.664062 C 48.648438 284.0625 54.226562 279.675781 59.621094 275.597656 C 62.078125 273.730469 66.132812 270.636719 66.695312 269.203125 C 66.171875 267.746094 61.398438 264.613281 58.828125 262.925781 C 53.085938 259.089844 47.664062 255.585938 47.21875 250.136719 C 46.808594 244.269531 51.921875 239.5 57.039062 234.894531 C 59.289062 232.835938 63 229.421875 63.433594 227.902344 C 62.769531 226.457031 57.691406 223.757812 54.929688 222.289062 C 48.90625 219.089844 43.214844 216.074219 42.265625 210.78125 C 41.257812 205.011719 46.015625 199.746094 50.617188 194.640625 C 52.625 192.429688 55.925781 188.761719 56.257812 187.226562 C 55.464844 185.753906 49.863281 183.390625 47.0625 182.265625 C 40.859375 179.707031 35.015625 177.238281 33.609375 172.113281 C 31.996094 166.242188 36.359375 160.398438 40.578125 154.746094 C 42.320312 152.40625 45.246094 148.480469 45.324219 147.074219 C 45.332031 147.191406 45.351562 147.308594 45.386719 147.421875 L 54.121094 144.582031 C 55.785156 149.695312 51.972656 154.8125 47.933594 160.195312 C 46.078125 162.6875 42.253906 167.867188 42.445312 169.527344 C 43.367188 170.730469 47.867188 172.609375 50.59375 173.75 C 57.152344 176.472656 63.933594 179.296875 65.273438 185.257812 C 66.488281 190.703125 62.089844 195.574219 57.433594 200.730469 C 55.324219 203.070312 51.425781 207.390625 51.320312 209.054688 C 52.113281 210.394531 56.554688 212.761719 59.238281 214.167969 C 65.414062 217.441406 71.808594 220.84375 72.566406 226.800781 C 73.28125 232.414062 68.40625 236.890625 63.242188 241.648438 C 60.964844 243.730469 56.769531 247.59375 56.476562 249.230469 C 57.117188 250.664062 61.386719 253.460938 63.957031 255.148438 C 69.765625 258.988281 75.773438 262.910156 75.980469 268.859375 C 76.183594 274.546875 70.632812 278.769531 65.273438 282.859375 C 62.859375 284.699219 58.40625 288.078125 57.882812 289.675781 C 58.546875 291.171875 62.730469 294.253906 65.007812 295.941406 C 70.59375 300.070312 75.875 303.972656 75.570312 309.519531 C 75.25 315.289062 69.175781 318.84375 63.214844 322.308594 C 60.8125 323.714844 56.820312 325.988281 55.886719 327.320312 C 56.566406 328.929688 60.339844 332.253906 62.421875 334.097656 C 67.613281 338.675781 72.527344 343.046875 71.746094 348.457031 C 70.925781 354.222656 64.480469 357.265625 58.253906 360.195312 C 55.773438 361.371094 51.71875 363.277344 50.582031 364.492188 C 51.105469 366.179688 54.632812 369.886719 56.589844 371.933594 C 61.324219 376.894531 65.800781 381.585938 64.570312 386.894531 C 63.292969 392.675781 56.476562 395.167969 49.929688 397.585938 C 47.371094 398.519531 43.238281 400.050781 42.0625 401.125 C 42.304688 402.761719 45.734375 407.035156 47.601562 409.375 C 51.742188 414.589844 55.761719 419.527344 54.070312 424.550781 Z M 54.070312 424.550781 " fill-opacity="1" fill-rule="nonzero"/></g></g><g clip-path="url(#8f1b28392a)"><g clip-path="url(#3f298e75c4)"><path fill="#86ebf9" d="M 235.136719 419.320312 C 234.242188 418.324219 229.792969 416.90625 227.132812 416.046875 C 220.390625 413.898438 213.421875 411.675781 211.785156 405.820312 C 210.339844 400.613281 214.574219 395.78125 219.050781 390.652344 C 220.941406 388.492188 224.371094 384.566406 224.792969 382.839844 C 223.628906 381.691406 219.535156 379.976562 217.015625 378.929688 C 210.621094 376.242188 204.046875 373.480469 202.949219 367.714844 C 201.9375 362.316406 206.632812 357.804688 211.605469 353.023438 C 213.625 351.089844 217.273438 347.574219 217.871094 345.925781 C 216.824219 344.644531 212.757812 342.550781 210.367188 341.257812 C 204.289062 338.074219 198.011719 334.773438 197.449219 329.007812 C 196.910156 323.496094 202 319.378906 207.398438 315.019531 C 209.546875 313.28125 213.449219 310.121094 214.203125 308.5625 C 213.253906 307.179688 209.417969 304.726562 207.078125 303.214844 C 201.324219 299.535156 195.375 295.722656 195.300781 289.957031 C 195.222656 284.191406 201.042969 279.804688 206.65625 275.726562 C 209.152344 273.910156 213.308594 270.902344 213.882812 269.433594 C 213.5 267.835938 209.152344 264.191406 206.785156 262.222656 C 201.667969 257.898438 196.296875 253.4375 196.757812 247.773438 C 197.242188 241.8125 203.445312 238.144531 209.445312 234.589844 C 212.078125 233.027344 216.464844 230.433594 217.117188 229.050781 C 216.953125 227.464844 212.871094 223.347656 210.660156 221.125 C 205.734375 216.148438 201.09375 211.46875 202.066406 205.921875 C 203.113281 199.960938 209.738281 196.855469 216.054688 193.851562 C 218.769531 192.570312 223.269531 190.4375 224.125 189.15625 C 224.125 187.480469 220.289062 182.761719 218.332031 180.398438 C 213.960938 175.078125 209.839844 170.066406 211.300781 164.746094 C 212.960938 158.6875 219.984375 156.140625 226.785156 153.6875 C 229.523438 152.6875 234.113281 151.039062 234.933594 149.9375 C 234.878906 150.023438 234.84375 150.113281 234.816406 150.207031 L 243.539062 153.046875 C 241.941406 157.96875 236.097656 160.078125 229.90625 162.316406 C 227.003906 163.367188 221.042969 165.515625 220.214844 167.046875 C 220.507812 168.582031 223.578125 172.304688 225.429688 174.566406 C 229.832031 179.925781 234.382812 185.460938 233.105469 191.191406 C 231.925781 196.445312 226.132812 199.183594 219.996094 202.085938 C 217.167969 203.363281 211.976562 205.921875 211.183594 207.378906 C 211.582031 208.925781 215.019531 212.492188 217.207031 214.589844 C 222.015625 219.4375 226.992188 224.460938 226.25 230.214844 C 225.558594 235.636719 219.984375 238.9375 214.101562 242.425781 C 211.453125 243.988281 206.605469 246.863281 205.914062 248.398438 C 206.453125 249.921875 210.3125 253.15625 212.65625 255.113281 C 217.859375 259.472656 223.242188 263.972656 223.039062 269.726562 C 222.859375 275.238281 217.589844 279.050781 212.027344 283.089844 C 209.585938 284.867188 205.121094 288.101562 204.507812 289.699219 C 205.328125 291.160156 209.625 293.921875 212.003906 295.429688 C 217.730469 299.097656 223.140625 302.550781 223.4375 307.933594 C 223.742188 313.535156 218.320312 317.882812 213.203125 322.089844 C 211.070312 323.816406 207.617188 326.617188 206.808594 328.101562 C 207.921875 329.507812 212.296875 331.796875 214.726562 333.074219 C 220.726562 336.21875 226.390625 339.199219 227.144531 344.492188 C 227.9375 350.082031 222.910156 354.914062 218.050781 359.582031 C 216.09375 361.460938 212.9375 364.503906 212.207031 365.976562 C 213.421875 367.253906 218.066406 369.25 220.636719 370.324219 C 226.824219 372.878906 232.667969 375.375 233.859375 380.550781 C 235.136719 386.152344 230.519531 391.460938 226.03125 396.601562 C 224.265625 398.605469 221.402344 401.894531 220.839844 403.429688 C 221.976562 404.617188 227.132812 406.265625 229.957031 407.160156 C 236.199219 409.15625 242.109375 410.996094 243.679688 415.90625 L 234.957031 418.746094 C 234.972656 418.953125 235.03125 419.144531 235.136719 419.320312 Z M 235.136719 419.320312 " fill-opacity="1" fill-rule="nonzero"/></g></g><g clip-path="url(#5a6eeda949)"><g clip-path="url(#6b3dfbeca8)"><path fill="#ffffff" d="M 14.183594 259.625 C 16.28125 246.992188 22.253906 222.671875 41.691406 200.664062 C 81.335938 155.910156 141.5625 160.9375 148.8125 161.652344 C 145.203125 162.046875 141.609375 162.558594 138.03125 163.183594 C 134.453125 163.8125 130.898438 164.558594 127.371094 165.414062 C 123.84375 166.273438 120.34375 167.246094 116.878906 168.335938 C 113.414062 169.421875 109.988281 170.621094 106.601562 171.929688 C 103.210938 173.238281 99.871094 174.65625 96.574219 176.183594 C 93.28125 177.710938 90.039062 179.34375 86.847656 181.082031 C 83.660156 182.820312 80.53125 184.660156 77.460938 186.601562 C 74.390625 188.542969 71.390625 190.582031 68.453125 192.71875 C 65.515625 194.855469 62.652344 197.085938 59.859375 199.410156 C 57.070312 201.734375 54.355469 204.144531 51.722656 206.644531 C 49.085938 209.144531 46.539062 211.726562 44.070312 214.394531 C 41.605469 217.058594 39.226562 219.800781 36.941406 222.621094 C 34.652344 225.441406 32.457031 228.335938 30.359375 231.296875 C 28.257812 234.261719 26.257812 237.289062 24.355469 240.382812 C 22.453125 243.476562 20.652344 246.628906 18.957031 249.839844 C 17.257812 253.050781 15.667969 256.3125 14.183594 259.625 Z M 14.183594 259.625 " fill-opacity="1" fill-rule="nonzero"/></g></g><path fill="#ffffff" d="M 21.320312 291.375 C 21.320312 292.203125 21.28125 293.023438 21.207031 293.839844 C 21.132812 294.652344 21.019531 295.441406 20.871094 296.207031 C 20.726562 296.972656 20.542969 297.699219 20.328125 298.386719 C 20.117188 299.078125 19.871094 299.714844 19.601562 300.300781 C 19.328125 300.886719 19.03125 301.410156 18.710938 301.871094 C 18.390625 302.328125 18.050781 302.71875 17.695312 303.035156 C 17.339844 303.351562 16.972656 303.59375 16.59375 303.753906 C 16.214844 303.914062 15.835938 303.996094 15.449219 303.996094 C 15.0625 303.996094 14.683594 303.914062 14.304688 303.753906 C 13.925781 303.59375 13.558594 303.351562 13.203125 303.035156 C 12.847656 302.71875 12.507812 302.328125 12.1875 301.871094 C 11.867188 301.410156 11.570312 300.886719 11.296875 300.300781 C 11.027344 299.714844 10.78125 299.078125 10.566406 298.386719 C 10.355469 297.699219 10.171875 296.972656 10.027344 296.207031 C 9.878906 295.441406 9.765625 294.652344 9.691406 293.839844 C 9.617188 293.023438 9.578125 292.203125 9.578125 291.375 C 9.578125 290.546875 9.617188 289.726562 9.691406 288.914062 C 9.765625 288.101562 9.878906 287.3125 10.027344 286.546875 C 10.171875 285.78125 10.355469 285.054688 10.566406 284.363281 C 10.78125 283.675781 11.027344 283.039062 11.296875 282.453125 C 11.570312 281.867188 11.867188 281.34375 12.1875 280.882812 C 12.507812 280.421875 12.847656 280.03125 13.203125 279.714844 C 13.558594 279.398438 13.925781 279.160156 14.304688 278.996094 C 14.683594 278.835938 15.0625 278.753906 15.449219 278.753906 C 15.835938 278.753906 16.214844 278.835938 16.59375 278.996094 C 16.972656 279.160156 17.339844 279.398438 17.695312 279.714844 C 18.050781 280.03125 18.390625 280.421875 18.710938 280.882812 C 19.03125 281.34375 19.328125 281.867188 19.601562 282.453125 C 19.871094 283.039062 20.117188 283.675781 20.328125 284.363281 C 20.542969 285.054688 20.726562 285.78125 20.871094 286.546875 C 21.019531 287.3125 21.132812 288.101562 21.207031 288.914062 C 21.28125 289.726562 21.320312 290.546875 21.320312 291.375 Z M 21.320312 291.375 " fill-opacity="1" fill-rule="nonzero"/><g clip-path="url(#56da3dfeff)"><g clip-path="url(#1ec677a298)"><path fill="#efbd42" d="M 532.660156 272.925781 C 533.007812 271.339844 533.285156 269.746094 533.492188 268.136719 C 533.699219 266.53125 533.835938 264.914062 533.898438 263.296875 C 533.960938 261.675781 533.953125 260.058594 533.875 258.4375 C 533.796875 256.820312 533.644531 255.207031 533.421875 253.601562 C 533.199219 251.996094 532.90625 250.402344 532.539062 248.824219 C 532.175781 247.242188 531.742188 245.683594 531.242188 244.140625 C 530.738281 242.601562 530.167969 241.082031 529.53125 239.59375 C 528.894531 238.101562 528.195312 236.640625 527.429688 235.214844 C 526.660156 233.785156 525.832031 232.394531 524.945312 231.039062 C 524.054688 229.683594 523.105469 228.371094 522.101562 227.097656 C 521.09375 225.828125 520.035156 224.601562 518.917969 223.425781 C 517.804688 222.25 516.640625 221.121094 515.425781 220.046875 C 514.210938 218.976562 512.953125 217.957031 511.648438 216.996094 C 510.34375 216.03125 508.996094 215.128906 507.613281 214.285156 C 506.226562 213.441406 504.808594 212.664062 503.355469 211.945312 C 501.902344 211.226562 500.417969 210.578125 498.90625 209.992188 C 497.394531 209.40625 495.859375 208.886719 494.300781 208.4375 C 492.746094 207.988281 491.171875 207.605469 489.578125 207.296875 C 487.988281 206.984375 486.386719 206.746094 484.773438 206.578125 C 483.160156 206.410156 481.542969 206.3125 479.921875 206.289062 C 478.300781 206.265625 476.683594 206.308594 475.066406 206.429688 C 473.449219 206.546875 471.839844 206.738281 470.238281 207 C 468.640625 207.257812 467.054688 207.589844 465.484375 207.992188 C 463.914062 208.394531 462.363281 208.863281 460.832031 209.402344 C 459.304688 209.941406 457.800781 210.546875 456.328125 211.21875 C 454.851562 211.894531 453.410156 212.628906 452 213.429688 C 450.589844 214.230469 449.214844 215.089844 447.882812 216.011719 C 446.546875 216.933594 445.257812 217.914062 444.011719 218.949219 C 442.765625 219.984375 441.566406 221.074219 440.414062 222.214844 C 439.265625 223.359375 438.167969 224.550781 437.121094 225.789062 C 436.078125 227.027344 435.089844 228.3125 434.160156 229.640625 C 433.226562 230.964844 432.359375 232.332031 431.546875 233.734375 C 430.738281 235.140625 429.992188 236.578125 429.308594 238.046875 C 428.625 239.519531 428.011719 241.015625 427.460938 242.542969 C 426.910156 244.066406 426.429688 245.613281 426.019531 247.179688 C 425.605469 248.75 425.261719 250.332031 424.992188 251.929688 C 424.71875 253.527344 424.515625 255.132812 424.386719 256.75 C 424.257812 258.367188 424.199219 259.984375 424.214844 261.605469 C 424.226562 263.226562 424.3125 264.84375 424.46875 266.457031 C 424.628906 268.070312 424.855469 269.675781 425.15625 271.265625 C 425.453125 272.859375 425.824219 274.4375 426.261719 275.996094 C 426.703125 277.558594 427.210938 279.097656 427.785156 280.613281 C 428.359375 282.128906 429.003906 283.613281 429.710938 285.074219 C 430.417969 286.53125 431.1875 287.957031 432.023438 289.347656 C 432.855469 290.738281 433.75 292.085938 434.703125 293.398438 C 435.65625 294.710938 436.664062 295.976562 437.730469 297.199219 C 438.796875 298.417969 439.914062 299.589844 441.085938 300.714844 C 442.253906 301.835938 443.472656 302.90625 444.734375 303.917969 L 305.964844 425.816406 C 305.121094 424.433594 304.214844 423.089844 303.253906 421.785156 C 302.289062 420.480469 301.273438 419.222656 300.199219 418.007812 C 299.121094 416.792969 297.996094 415.628906 296.820312 414.515625 C 295.640625 413.402344 294.417969 412.34375 293.144531 411.335938 C 291.875 410.332031 290.558594 409.382812 289.203125 408.496094 C 287.847656 407.605469 286.457031 406.777344 285.027344 406.011719 C 283.597656 405.246094 282.136719 404.546875 280.648438 403.910156 C 279.15625 403.273438 277.640625 402.703125 276.097656 402.203125 C 274.554688 401.699219 272.996094 401.265625 271.414062 400.902344 C 269.835938 400.539062 268.242188 400.246094 266.636719 400.023438 C 265.03125 399.804688 263.417969 399.652344 261.796875 399.574219 C 260.179688 399.492188 258.558594 399.484375 256.9375 399.550781 C 255.320312 399.613281 253.707031 399.75 252.097656 399.957031 C 250.488281 400.164062 248.894531 400.441406 247.308594 400.789062 C 245.726562 401.140625 244.164062 401.558594 242.617188 402.046875 C 241.070312 402.53125 239.546875 403.085938 238.050781 403.710938 C 236.554688 404.332031 235.085938 405.019531 233.652344 405.769531 C 232.214844 406.523438 230.816406 407.339844 229.449219 408.214844 C 228.085938 409.089844 226.765625 410.027344 225.484375 411.019531 C 224.203125 412.011719 222.96875 413.0625 221.78125 414.164062 C 220.589844 415.265625 219.453125 416.421875 218.367188 417.625 C 217.28125 418.828125 216.253906 420.078125 215.277344 421.371094 C 214.300781 422.667969 213.386719 424.003906 212.53125 425.378906 C 211.671875 426.757812 210.878906 428.167969 210.148438 429.613281 C 209.417969 431.0625 208.75 432.535156 208.148438 434.042969 C 207.550781 435.546875 207.015625 437.078125 206.550781 438.628906 C 206.085938 440.183594 205.691406 441.753906 205.367188 443.34375 C 205.039062 444.929688 204.785156 446.527344 204.601562 448.140625 C 204.417969 449.75 204.304688 451.367188 204.265625 452.988281 C 204.222656 454.605469 204.253906 456.226562 204.359375 457.84375 C 204.460938 459.460938 204.636719 461.070312 204.878906 462.675781 C 205.125 464.277344 205.441406 465.863281 205.828125 467.4375 C 206.214844 469.011719 206.671875 470.566406 207.195312 472.101562 C 207.71875 473.636719 208.308594 475.144531 208.96875 476.625 C 209.625 478.105469 210.347656 479.554688 211.132812 480.972656 C 211.921875 482.390625 212.769531 483.769531 213.675781 485.113281 C 214.585938 486.457031 215.554688 487.753906 216.578125 489.011719 C 217.601562 490.269531 218.679688 491.476562 219.808594 492.636719 C 220.941406 493.800781 222.121094 494.910156 223.351562 495.964844 C 224.582031 497.023438 225.855469 498.023438 227.171875 498.964844 C 228.492188 499.910156 229.847656 500.792969 231.246094 501.617188 C 232.640625 502.441406 234.070312 503.199219 235.535156 503.894531 C 237 504.59375 238.492188 505.222656 240.011719 505.789062 C 241.53125 506.351562 243.074219 506.847656 244.636719 507.277344 C 246.199219 507.703125 247.78125 508.0625 249.375 508.347656 C 250.972656 508.636719 252.578125 508.851562 254.191406 508.996094 C 255.804688 509.144531 257.425781 509.21875 259.046875 509.21875 C 260.667969 509.222656 262.285156 509.152344 263.898438 509.007812 C 263.65625 510.121094 263.445312 511.238281 263.273438 512.359375 C 263.097656 513.484375 262.957031 514.613281 262.851562 515.746094 C 262.75 516.878906 262.679688 518.011719 262.644531 519.148438 C 262.609375 520.285156 262.613281 521.421875 262.648438 522.558594 C 262.6875 523.695312 262.757812 524.828125 262.863281 525.960938 C 262.972656 527.09375 263.113281 528.222656 263.292969 529.34375 C 263.46875 530.46875 263.683594 531.585938 263.929688 532.695312 C 264.175781 533.804688 264.457031 534.90625 264.773438 536 C 265.085938 537.089844 265.4375 538.171875 265.820312 539.246094 C 266.203125 540.316406 266.617188 541.375 267.066406 542.417969 C 267.515625 543.464844 267.996094 544.492188 268.507812 545.507812 C 269.019531 546.523438 269.5625 547.523438 270.136719 548.503906 C 270.710938 549.484375 271.316406 550.449219 271.953125 551.390625 C 272.585938 552.335938 273.25 553.257812 273.941406 554.160156 C 274.632812 555.0625 275.351562 555.941406 276.097656 556.800781 C 276.847656 557.660156 277.617188 558.492188 278.417969 559.300781 C 279.214844 560.113281 280.039062 560.894531 280.886719 561.65625 C 281.734375 562.414062 282.605469 563.144531 283.496094 563.851562 C 284.390625 564.554688 285.304688 565.230469 286.238281 565.878906 C 287.171875 566.527344 288.128906 567.144531 289.101562 567.730469 C 290.074219 568.320312 291.0625 568.878906 292.074219 569.40625 C 293.082031 569.929688 294.105469 570.425781 295.144531 570.890625 C 296.179688 571.351562 297.234375 571.78125 298.300781 572.179688 C 299.363281 572.578125 300.441406 572.941406 301.53125 573.273438 C 302.617188 573.605469 303.714844 573.902344 304.820312 574.164062 C 305.929688 574.425781 307.042969 574.652344 308.164062 574.847656 C 309.285156 575.039062 310.410156 575.199219 311.539062 575.320312 C 312.671875 575.445312 313.804688 575.53125 314.941406 575.585938 C 316.078125 575.636719 317.214844 575.65625 318.351562 575.636719 C 319.488281 575.621094 320.625 575.566406 321.757812 575.476562 C 322.890625 575.390625 324.023438 575.265625 325.148438 575.105469 C 326.273438 574.949219 327.394531 574.753906 328.507812 574.523438 C 329.621094 574.296875 330.730469 574.035156 331.828125 573.738281 C 332.925781 573.4375 334.011719 573.109375 335.089844 572.742188 C 336.167969 572.378906 337.230469 571.980469 338.285156 571.550781 C 339.335938 571.117188 340.375 570.65625 341.398438 570.160156 C 342.421875 569.664062 343.429688 569.136719 344.417969 568.578125 C 345.410156 568.019531 346.382812 567.429688 347.335938 566.8125 C 348.292969 566.195312 349.226562 565.546875 350.140625 564.871094 C 351.054688 564.191406 351.945312 563.488281 352.816406 562.753906 C 353.6875 562.023438 354.53125 561.265625 355.355469 560.480469 C 356.179688 559.695312 356.976562 558.886719 357.75 558.050781 C 358.523438 557.214844 359.269531 556.359375 359.988281 555.476562 C 360.707031 554.597656 361.398438 553.695312 362.058594 552.769531 C 362.722656 551.847656 363.355469 550.902344 363.960938 549.9375 C 364.566406 548.976562 365.140625 547.996094 365.683594 546.996094 C 366.226562 545.996094 366.738281 544.980469 367.21875 543.949219 C 367.699219 542.917969 368.148438 541.875 368.5625 540.816406 C 368.976562 539.757812 369.359375 538.6875 369.707031 537.605469 C 370.058594 536.523438 370.371094 535.429688 370.652344 534.328125 C 370.933594 533.226562 371.179688 532.117188 371.390625 531 C 371.601562 529.882812 371.78125 528.757812 371.921875 527.628906 C 372.0625 526.503906 372.167969 525.371094 372.242188 524.234375 C 372.3125 523.101562 372.347656 521.964844 372.351562 520.828125 C 372.351562 519.691406 372.316406 518.554688 372.246094 517.417969 C 372.175781 516.285156 372.070312 515.152344 371.929688 514.023438 C 371.789062 512.894531 371.617188 511.773438 371.40625 510.65625 C 371.195312 509.535156 370.949219 508.425781 370.671875 507.324219 C 370.390625 506.222656 370.078125 505.128906 369.730469 504.046875 C 369.386719 502.964844 369.003906 501.890625 368.589844 500.832031 C 368.175781 499.773438 367.730469 498.726562 367.253906 497.695312 C 366.773438 496.664062 366.261719 495.648438 365.722656 494.648438 C 365.179688 493.648438 364.605469 492.667969 364.003906 491.703125 C 363.402344 490.738281 362.769531 489.796875 362.105469 488.871094 L 500.046875 367.699219 C 500.878906 368.476562 501.734375 369.226562 502.613281 369.949219 C 503.492188 370.667969 504.394531 371.363281 505.316406 372.03125 C 506.238281 372.695312 507.179688 373.332031 508.140625 373.941406 C 509.101562 374.546875 510.082031 375.125 511.078125 375.671875 C 512.074219 376.21875 513.089844 376.734375 514.117188 377.21875 C 515.148438 377.703125 516.191406 378.152344 517.25 378.570312 C 518.308594 378.992188 519.375 379.375 520.457031 379.726562 C 521.539062 380.082031 522.628906 380.398438 523.730469 380.683594 C 524.832031 380.96875 525.941406 381.21875 527.058594 381.433594 C 528.175781 381.648438 529.296875 381.828125 530.425781 381.976562 C 531.554688 382.121094 532.6875 382.230469 533.820312 382.304688 C 534.957031 382.382812 536.09375 382.421875 537.230469 382.425781 C 538.367188 382.429688 539.503906 382.398438 540.640625 382.332031 C 541.773438 382.269531 542.90625 382.167969 544.035156 382.03125 C 545.164062 381.894531 546.289062 381.722656 547.40625 381.515625 C 548.527344 381.308594 549.636719 381.070312 550.742188 380.792969 C 551.84375 380.519531 552.9375 380.207031 554.023438 379.863281 C 555.109375 379.519531 556.179688 379.144531 557.242188 378.734375 C 558.300781 378.324219 559.347656 377.882812 560.382812 377.40625 C 561.414062 376.929688 562.433594 376.425781 563.433594 375.886719 C 564.4375 375.347656 565.421875 374.777344 566.386719 374.179688 C 567.355469 373.578125 568.300781 372.949219 569.226562 372.289062 C 570.15625 371.632812 571.0625 370.945312 571.945312 370.230469 C 572.832031 369.515625 573.691406 368.773438 574.53125 368.003906 C 575.367188 367.234375 576.183594 366.441406 576.972656 365.621094 C 577.761719 364.804688 578.523438 363.960938 579.261719 363.09375 C 579.996094 362.226562 580.707031 361.339844 581.386719 360.429688 C 582.066406 359.519531 582.71875 358.585938 583.34375 357.636719 C 583.96875 356.683594 584.5625 355.714844 585.125 354.726562 C 585.6875 353.738281 586.21875 352.734375 586.71875 351.710938 C 587.21875 350.691406 587.6875 349.65625 588.125 348.605469 C 588.558594 347.554688 588.964844 346.492188 589.332031 345.417969 C 589.703125 344.339844 590.039062 343.253906 590.34375 342.160156 C 590.644531 341.0625 590.914062 339.957031 591.148438 338.84375 C 591.378906 337.730469 591.578125 336.613281 591.742188 335.488281 C 591.90625 334.363281 592.035156 333.234375 592.128906 332.097656 C 592.226562 330.964844 592.285156 329.832031 592.304688 328.695312 C 592.328125 327.554688 592.316406 326.417969 592.269531 325.285156 C 592.222656 324.148438 592.140625 323.011719 592.023438 321.882812 C 591.90625 320.75 591.75 319.625 591.5625 318.503906 C 591.375 317.382812 591.152344 316.265625 590.894531 315.160156 C 590.636719 314.050781 590.347656 312.953125 590.019531 311.863281 C 589.695312 310.773438 589.335938 309.695312 588.941406 308.628906 C 588.550781 307.558594 588.125 306.507812 587.667969 305.464844 C 587.207031 304.425781 586.71875 303.398438 586.195312 302.386719 C 585.671875 301.378906 585.121094 300.386719 584.535156 299.410156 C 583.953125 298.433594 583.339844 297.476562 582.695312 296.539062 C 582.050781 295.601562 581.378906 294.683594 580.679688 293.789062 C 579.980469 292.890625 579.25 292.019531 578.496094 291.167969 C 577.742188 290.316406 576.960938 289.488281 576.15625 288.6875 C 575.347656 287.886719 574.519531 287.109375 573.664062 286.359375 C 572.808594 285.609375 571.933594 284.882812 571.03125 284.1875 C 570.132812 283.492188 569.210938 282.824219 568.273438 282.1875 C 567.332031 281.546875 566.371094 280.9375 565.390625 280.359375 C 564.414062 279.78125 563.417969 279.230469 562.402344 278.714844 C 561.390625 278.199219 560.363281 277.710938 559.320312 277.257812 C 558.277344 276.804688 557.21875 276.386719 556.152344 275.996094 C 555.082031 275.609375 554 275.257812 552.910156 274.9375 C 551.816406 274.617188 550.71875 274.328125 549.609375 274.078125 C 548.5 273.824219 547.382812 273.609375 546.261719 273.425781 C 545.136719 273.242188 544.011719 273.097656 542.878906 272.984375 C 541.746094 272.871094 540.613281 272.792969 539.476562 272.75 C 538.339844 272.710938 537.203125 272.703125 536.066406 272.730469 C 534.929688 272.761719 533.792969 272.824219 532.660156 272.925781 Z M 532.660156 272.925781 " fill-opacity="1" fill-rule="nonzero"/></g></g><g clip-path="url(#0b91cf264d)"><g clip-path="url(#e788baae37)"><path fill="#d7981a" d="M 264.9375 553.328125 C 264.9375 553.328125 313.535156 577.277344 342.515625 544.25 C 371.492188 511.222656 336.121094 475.535156 336.121094 475.535156 L 494.765625 336.207031 C 494.765625 336.207031 529.09375 368.339844 560.09375 353.761719 C 591.09375 339.1875 595.453125 310.503906 595.453125 310.503906 L 613.84375 347.714844 L 534.679688 431.496094 L 438.148438 440.917969 L 395.625 502.691406 L 399.183594 556.589844 L 339.074219 609.386719 L 279.453125 613.902344 Z M 264.9375 553.328125 " fill-opacity="1" fill-rule="nonzero"/></g></g><path fill="#ffffff" d="M 435.257812 257.578125 C 436.910156 239.679688 447.484375 224.332031 462.808594 218.3125 C 465.210938 217.398438 467.675781 216.710938 470.203125 216.246094 C 472.734375 215.785156 475.28125 215.550781 477.851562 215.550781 C 480.421875 215.550781 482.972656 215.785156 485.5 216.246094 C 488.03125 216.710938 490.496094 217.398438 492.898438 218.3125 C 515.625 227.261719 519.757812 252.835938 519.933594 254.011719 C 519.050781 251.894531 518.007812 249.859375 516.8125 247.902344 C 515.613281 245.945312 514.277344 244.089844 512.796875 242.335938 C 511.320312 240.582031 509.714844 238.949219 507.988281 237.441406 C 506.257812 235.929688 504.425781 234.5625 502.492188 233.332031 C 500.554688 232.101562 498.535156 231.023438 496.433594 230.101562 C 494.335938 229.175781 492.175781 228.417969 489.960938 227.824219 C 487.742188 227.230469 485.496094 226.808594 483.214844 226.554688 C 480.933594 226.304688 478.648438 226.226562 476.355469 226.324219 C 474.0625 226.421875 471.789062 226.691406 469.539062 227.132812 C 467.289062 227.574219 465.082031 228.183594 462.925781 228.964844 C 460.765625 229.742188 458.679688 230.679688 456.664062 231.777344 C 454.648438 232.871094 452.726562 234.113281 450.902344 235.503906 C 449.074219 236.894531 447.367188 238.414062 445.769531 240.0625 C 444.175781 241.710938 442.714844 243.472656 441.390625 245.34375 C 440.0625 247.214844 438.886719 249.175781 437.859375 251.226562 C 436.832031 253.28125 435.964844 255.398438 435.257812 257.578125 Z M 435.257812 257.578125 " fill-opacity="1" fill-rule="nonzero"/><path fill="#ffffff" d="M 439.515625 323.84375 C 439.632812 323.980469 439.667969 324.191406 439.613281 324.476562 C 439.5625 324.765625 439.425781 325.125 439.199219 325.558594 C 438.976562 325.992188 438.667969 326.5 438.273438 327.078125 C 437.878906 327.65625 437.402344 328.300781 436.84375 329.019531 C 436.285156 329.734375 435.644531 330.515625 434.925781 331.363281 C 434.207031 332.210938 433.410156 333.121094 432.535156 334.09375 C 431.664062 335.0625 430.71875 336.089844 429.699219 337.175781 C 428.679688 338.261719 427.59375 339.394531 426.441406 340.585938 C 425.289062 341.773438 424.074219 343.007812 422.796875 344.285156 C 421.519531 345.566406 420.183594 346.886719 418.796875 348.246094 C 417.40625 349.605469 415.96875 350.996094 414.480469 352.421875 C 412.992188 353.847656 411.464844 355.300781 409.890625 356.78125 C 408.320312 358.257812 406.714844 359.757812 405.074219 361.273438 C 403.433594 362.789062 401.765625 364.320312 400.070312 365.859375 C 398.378906 367.402344 396.664062 368.949219 394.933594 370.5 C 393.203125 372.046875 391.464844 373.59375 389.714844 375.140625 C 387.960938 376.683594 386.210938 378.21875 384.457031 379.742188 C 382.703125 381.265625 380.953125 382.769531 379.214844 384.257812 C 377.472656 385.746094 375.75 387.210938 374.039062 388.648438 C 372.328125 390.085938 370.640625 391.496094 368.980469 392.871094 C 367.316406 394.246094 365.683594 395.582031 364.082031 396.878906 C 362.484375 398.175781 360.921875 399.429688 359.398438 400.640625 C 357.875 401.847656 356.402344 403.003906 354.972656 404.113281 C 353.542969 405.222656 352.167969 406.273438 350.84375 407.269531 C 349.519531 408.265625 348.257812 409.199219 347.054688 410.074219 C 345.851562 410.949219 344.714844 411.761719 343.640625 412.503906 C 342.570312 413.25 341.570312 413.925781 340.636719 414.535156 C 339.707031 415.144531 338.851562 415.679688 338.070312 416.148438 C 337.289062 416.613281 336.589844 417.003906 335.964844 417.324219 C 335.34375 417.640625 334.800781 417.886719 334.34375 418.054688 C 333.882812 418.222656 333.507812 418.3125 333.21875 418.328125 C 332.925781 418.347656 332.722656 418.285156 332.601562 418.152344 C 332.484375 418.015625 332.449219 417.804688 332.5 417.519531 C 332.554688 417.230469 332.691406 416.871094 332.917969 416.4375 C 333.140625 416.003906 333.449219 415.496094 333.84375 414.917969 C 334.238281 414.339844 334.714844 413.691406 335.273438 412.976562 C 335.832031 412.261719 336.472656 411.476562 337.191406 410.628906 C 337.910156 409.78125 338.707031 408.875 339.582031 407.902344 C 340.453125 406.933594 341.398438 405.90625 342.417969 404.820312 C 343.4375 403.734375 344.523438 402.597656 345.675781 401.410156 C 346.828125 400.222656 348.042969 398.988281 349.320312 397.710938 C 350.597656 396.429688 351.933594 395.109375 353.320312 393.75 C 354.710938 392.390625 356.148438 391 357.636719 389.574219 C 359.125 388.144531 360.652344 386.695312 362.226562 385.214844 C 363.796875 383.738281 365.402344 382.238281 367.042969 380.722656 C 368.683594 379.203125 370.351562 377.675781 372.042969 376.132812 C 373.738281 374.59375 375.449219 373.046875 377.179688 371.496094 C 378.910156 369.945312 380.652344 368.398438 382.402344 366.855469 C 384.152344 365.3125 385.90625 363.777344 387.660156 362.253906 C 389.414062 360.730469 391.160156 359.222656 392.902344 357.734375 C 394.644531 356.246094 396.367188 354.785156 398.078125 353.347656 C 399.789062 351.90625 401.476562 350.5 403.136719 349.125 C 404.800781 347.75 406.433594 346.414062 408.035156 345.117188 C 409.632812 343.820312 411.195312 342.566406 412.71875 341.355469 C 414.238281 340.148438 415.714844 338.988281 417.144531 337.882812 C 418.574219 336.773438 419.949219 335.722656 421.273438 334.726562 C 422.59375 333.730469 423.859375 332.792969 425.0625 331.917969 C 426.265625 331.042969 427.402344 330.234375 428.472656 329.488281 C 429.546875 328.746094 430.546875 328.066406 431.480469 327.460938 C 432.410156 326.851562 433.265625 326.3125 434.046875 325.847656 C 434.828125 325.382812 435.527344 324.992188 436.152344 324.671875 C 436.773438 324.355469 437.316406 324.109375 437.773438 323.941406 C 438.234375 323.773438 438.609375 323.683594 438.898438 323.664062 C 439.1875 323.648438 439.394531 323.707031 439.515625 323.84375 Z M 439.515625 323.84375 " fill-opacity="1" fill-rule="nonzero"/><path fill="#ffffff" d="M 216.902344 441.699219 C 217.257812 439.671875 217.769531 437.6875 218.433594 435.742188 C 219.097656 433.796875 219.910156 431.914062 220.871094 430.09375 C 221.828125 428.273438 222.921875 426.539062 224.152344 424.886719 C 225.378906 423.238281 226.726562 421.695312 228.195312 420.253906 C 229.667969 418.816406 231.238281 417.496094 232.914062 416.304688 C 234.585938 415.109375 236.34375 414.050781 238.183594 413.128906 C 240.019531 412.207031 241.921875 411.433594 243.878906 410.804688 C 245.839844 410.179688 247.835938 409.710938 249.867188 409.394531 C 251.902344 409.078125 253.945312 408.921875 256.003906 408.925781 C 258.058594 408.929688 260.105469 409.089844 262.136719 409.410156 C 264.167969 409.734375 266.164062 410.207031 268.121094 410.839844 C 270.078125 411.472656 271.976562 412.25 273.8125 413.175781 C 275.648438 414.105469 277.402344 415.167969 279.074219 416.367188 C 280.742188 417.566406 282.3125 418.890625 283.777344 420.332031 C 285.242188 421.777344 286.585938 423.324219 287.808594 424.976562 C 289.035156 426.628906 290.125 428.367188 291.078125 430.191406 C 288.648438 428.335938 270.460938 414.921875 247.070312 420.625 C 244.027344 421.410156 241.082031 422.460938 238.226562 423.773438 C 235.371094 425.085938 232.660156 426.640625 230.082031 428.441406 C 227.507812 430.238281 225.113281 432.253906 222.898438 434.480469 C 220.683594 436.707031 218.683594 439.113281 216.902344 441.699219 Z M 216.902344 441.699219 " fill-opacity="1" fill-rule="nonzero"/></svg>