<svg xmlns="http://www.w3.org/2000/svg" xmlns:xlink="http://www.w3.org/1999/xlink" width="797" zoomAndPan="magnify" viewBox="0 0 597.75 576" height="768" preserveAspectRatio="xMidYMid meet" version="1.0"><path fill="#949390" d="M 418.421875 159.277344 C 445.53125 169.011719 485.535156 206.933594 501.792969 256.425781 C 518.054688 305.921875 508.449219 352.761719 482.207031 360.21875 C 455.964844 367.679688 415.773438 326.859375 386.601562 328.144531 C 357.429688 329.425781 317.648438 353.125 284.335938 337.304688 C 251.023438 321.480469 285.828125 231.480469 315.535156 196.785156 C 345.242188 162.089844 375.488281 143.941406 418.421875 159.277344 Z M 418.421875 159.277344 " fill-opacity="1" fill-rule="nonzero"/><path fill="#949390" d="M 241.542969 101.753906 C 257.4375 90.945312 281.5625 101.285156 295.445312 124.667969 C 309.332031 148.054688 307.769531 175.621094 291.875 186.425781 C 275.980469 197.234375 251.785156 187.171875 237.882812 163.789062 C 223.984375 140.402344 225.628906 112.558594 241.542969 101.753906 Z M 241.542969 101.753906 " fill-opacity="1" fill-rule="nonzero"/><path fill="#949390" d="M 451.53125 143.472656 C 428.527344 134.210938 420.453125 99.324219 434.699219 65.945312 C 448.566406 32.480469 478.152344 13.105469 500.773438 22.574219 C 523.390625 32.046875 530.566406 66.585938 516.753906 99.757812 C 502.59375 132.855469 474.460938 152.71875 451.53125 143.472656 Z M 451.53125 143.472656 " fill-opacity="1" fill-rule="nonzero"/><path fill="#949390" d="M 521.105469 150.328125 C 539.597656 130.964844 566.429688 126.925781 578.976562 140.613281 C 591.527344 154.300781 587.417969 181.03125 568.578125 200.21875 C 549.738281 219.40625 524.085938 224.003906 510.964844 210.265625 C 497.84375 196.523438 502.417969 169.6875 521.105469 150.328125 Z M 521.105469 150.328125 " fill-opacity="1" fill-rule="nonzero"/><path fill="#949390" d="M 312.292969 75.296875 C 308.828125 39.402344 326.074219 7.308594 350.652344 3.804688 C 375.230469 0.300781 397.953125 26.566406 401.4375 62.234375 C 404.46875 97.796875 388.679688 129.890625 364.433594 133.691406 C 340.183594 137.488281 316.507812 111.378906 312.292969 75.296875 Z M 312.292969 75.296875 " fill-opacity="1" fill-rule="nonzero"/><path fill="#f5a926" d="M 178.257812 364.070312 C 152.640625 377.238281 117.871094 420.019531 108.148438 471.160156 C 98.421875 522.300781 113.988281 567.5625 140.957031 571.570312 C 167.929688 575.578125 202.542969 529.933594 231.628906 527.382812 C 260.710938 524.835938 303.230469 543.242188 334.21875 523.238281 C 365.210938 503.234375 319.089844 418.527344 285.152344 387.925781 C 251.214844 357.324219 218.851562 343.167969 178.257812 364.070312 Z M 178.257812 364.070312 " fill-opacity="1" fill-rule="nonzero"/><path fill="#f5a926" d="M 346.230469 284.078125 C 329.074219 275.40625 306.488281 288.796875 295.722656 313.777344 C 284.960938 338.761719 290.089844 365.824219 307.25 374.496094 C 324.410156 383.171875 347.117188 370.054688 357.863281 345.003906 C 368.609375 319.953125 363.390625 292.734375 346.230469 284.078125 Z M 346.230469 284.078125 " fill-opacity="1" fill-rule="nonzero"/><path fill="#f5a926" d="M 143.386719 352.621094 C 164.980469 340.476562 168.5 304.808594 150.058594 273.566406 C 131.964844 242.167969 100.140625 226.726562 78.992188 239.128906 C 57.847656 251.535156 55.125 286.628906 73.101562 317.734375 C 91.386719 348.683594 121.839844 364.746094 143.386719 352.621094 Z M 143.386719 352.621094 " fill-opacity="1" fill-rule="nonzero"/><path fill="#f5a926" d="M 75.285156 368.40625 C 54.484375 351.597656 27.324219 351.058594 16.648438 366.257812 C 5.96875 381.453125 13.476562 407.441406 34.621094 424.027344 C 55.765625 440.609375 81.800781 441.859375 93.050781 426.539062 C 104.300781 411.222656 96.308594 385.113281 75.285156 368.40625 Z M 75.285156 368.40625 " fill-opacity="1" fill-rule="nonzero"/><path fill="#f5a926" d="M 272.671875 266.992188 C 271.421875 230.960938 250.226562 201.363281 225.386719 201.070312 C 200.550781 200.773438 181.429688 229.761719 182.574219 265.570312 C 184.152344 301.21875 203.964844 330.988281 228.488281 331.628906 C 253.015625 332.273438 273.140625 303.265625 272.671875 266.992188 Z M 272.671875 266.992188 " fill-opacity="1" fill-rule="nonzero"/></svg>