<svg xmlns="http://www.w3.org/2000/svg" xmlns:xlink="http://www.w3.org/1999/xlink" width="1366" zoomAndPan="magnify" viewBox="0 0 1024.5 576" height="768" preserveAspectRatio="xMidYMid meet" version="1.0"><defs><clipPath id="4e679ce899"><path d="M 57.570312 0.140625 L 915.152344 0.140625 L 915.152344 575.859375 L 57.570312 575.859375 Z M 57.570312 0.140625 " clip-rule="nonzero"/></clipPath></defs><path fill="#ffbd59" d="M 129.742188 251.195312 C 129.386719 251.398438 129.074219 251.621094 128.789062 251.839844 C 129.03125 251.863281 129.28125 251.882812 129.527344 251.90625 C 130.074219 251.675781 130.621094 251.441406 131.15625 251.214844 C 130.691406 251.207031 130.21875 251.203125 129.742188 251.195312 " fill-opacity="1" fill-rule="nonzero"/><path fill="#ffbd59" d="M 109.09375 259.007812 C 107.234375 258.765625 105.4375 258.472656 102.859375 258.894531 C 102.261719 259.25 101.949219 259.425781 101.792969 259.519531 C 102.78125 259.683594 104.113281 259.910156 105.445312 260.136719 C 108.0625 260.578125 109.320312 259.84375 109.09375 259.007812 " fill-opacity="1" fill-rule="nonzero"/><path fill="#ffbd59" d="M 101.792969 259.519531 C 100.882812 259.355469 100.273438 259.253906 100.273438 259.253906 C 100.636719 259.410156 100.984375 259.5625 101.316406 259.710938 C 101.59375 259.625 101.609375 259.625 101.609375 259.625 C 101.609375 259.625 101.613281 259.617188 101.792969 259.519531 " fill-opacity="1" fill-rule="nonzero"/><g clip-path="url(#4e679ce899)"><path fill="#ffbd59" d="M 761.042969 287.28125 C 763.355469 285.640625 764.984375 283.878906 765.828125 282.082031 C 766.972656 282.148438 768.1875 282.160156 769.464844 282.105469 C 771.175781 282.28125 773.164062 282.347656 774.414062 282.6875 C 775.878906 283.097656 777.390625 283.488281 778.945312 283.851562 C 772.988281 285.023438 767.023438 286.160156 761.042969 287.28125 Z M 816.5 316.332031 L 816.910156 316.589844 L 812.90625 324.550781 Z M 804.265625 373.289062 C 804.28125 373.265625 804.289062 373.238281 804.304688 373.210938 C 804.339844 373.203125 804.375 373.203125 804.402344 373.1875 C 804.351562 373.222656 804.308594 373.257812 804.265625 373.289062 Z M 825.261719 376.816406 C 824.878906 376.972656 824.496094 377.136719 824.105469 377.292969 C 823.691406 377.285156 823.289062 377.28125 822.875 377.273438 C 822.203125 377.699219 821.386719 378.097656 820.488281 378.464844 C 817.671875 378.574219 814.851562 378.679688 812.058594 378.75 C 809.167969 378.871094 806.304688 378.757812 803.472656 378.65625 C 803.558594 378.4375 803.605469 378.21875 803.628906 377.996094 C 803.707031 377.179688 803.316406 376.421875 802.5625 375.746094 C 803.082031 375.132812 803.527344 374.523438 803.90625 373.90625 C 803.953125 374.359375 804.660156 374.722656 805.859375 374.808594 C 811.703125 375.410156 817.378906 376 823.011719 376.582031 C 823.464844 376.371094 823.921875 376.15625 824.375 375.945312 C 824.203125 376.191406 823.964844 376.425781 823.699219 376.65625 C 824.21875 376.710938 824.738281 376.761719 825.261719 376.816406 Z M 836.867188 437.574219 C 836.882812 437.566406 836.882812 437.566406 836.890625 437.566406 C 837.535156 437.878906 838.308594 438.242188 839.304688 438.710938 C 839.304688 438.710938 838.28125 438.234375 836.867188 437.574219 Z M 768.398438 487.816406 C 767.320312 487.808594 766.253906 487.796875 765.1875 487.789062 C 763.597656 487.363281 762 486.929688 760.394531 486.503906 C 760.609375 486.476562 760.828125 486.453125 761.046875 486.433594 C 763.066406 486.359375 765.097656 486.289062 767.121094 486.210938 C 766.738281 486.085938 766.339844 485.964844 765.949219 485.835938 C 773.691406 484.898438 781.410156 483.996094 789.109375 483.1875 C 796.511719 483.078125 804.238281 482.660156 812.085938 481.886719 C 816.15625 481.367188 820.261719 480.757812 824.367188 480.046875 C 821.035156 481.574219 817.890625 483.164062 814.972656 484.769531 C 808.125 485.261719 801.363281 485.359375 794.578125 485.695312 C 786 486.0625 777.363281 486.601562 768.398438 487.816406 Z M 205.617188 405.007812 C 203.984375 404.027344 202.308594 403.070312 200.503906 402.152344 C 202.515625 401.785156 204.523438 401.421875 206.542969 401.058594 C 210.589844 401.464844 214.667969 401.96875 218.617188 402.246094 C 223.113281 402.628906 227.574219 403.011719 232.003906 403.390625 C 236.445312 403.742188 240.863281 404.148438 245.300781 404.304688 C 244.261719 404.417969 243.234375 404.539062 242.183594 404.660156 C 241.175781 404.835938 239.183594 404.738281 240.277344 405.753906 C 231.996094 405.269531 223.59375 404.972656 214.980469 404.824219 C 211.789062 404.667969 208.636719 404.722656 205.617188 405.007812 Z M 176.851562 420.335938 C 176.25 419.859375 175.515625 419.292969 174.578125 418.554688 C 174.578125 418.554688 175.554688 419.304688 176.882812 420.335938 C 176.867188 420.335938 176.867188 420.335938 176.851562 420.335938 Z M 147.007812 449.898438 L 146.601562 449.546875 L 152.1875 442.707031 Z M 141.871094 403.957031 C 141.871094 403.957031 141.867188 403.949219 140.324219 402.960938 C 140.835938 403.195312 141.226562 403.480469 141.871094 403.957031 Z M 211.308594 358.28125 C 216.214844 359.011719 221.789062 359.34375 227.742188 359.210938 C 216.378906 360.757812 204.972656 362.3125 193.523438 363.871094 C 192.855469 363.683594 192.195312 363.488281 191.511719 363.300781 C 188.6875 362.449219 185.765625 361.625 182.761719 360.851562 C 182.988281 360.789062 183.214844 360.730469 183.445312 360.667969 C 192.726562 359.84375 202.015625 359.046875 211.308594 358.28125 Z M 136.0625 312.148438 L 135.601562 311.894531 L 140.246094 303.902344 Z M 121.46875 267.507812 C 122.0625 267.601562 122.53125 267.800781 123.3125 268.121094 C 123.3125 268.121094 123.304688 268.121094 121.46875 267.507812 Z M 121.957031 205.027344 L 121.507812 204.773438 L 126 196.832031 Z M 107.566406 160.300781 C 108.148438 160.410156 108.609375 160.609375 109.363281 160.933594 C 109.363281 160.933594 109.355469 160.925781 107.566406 160.300781 Z M 232.707031 100.738281 C 235.804688 100.621094 238.914062 100.492188 242.039062 100.371094 C 242.039062 100.378906 242.039062 100.386719 242.046875 100.398438 C 243.070312 101.925781 245.164062 103.246094 247.992188 104.296875 C 242.957031 104.605469 237.929688 104.910156 232.90625 105.214844 C 227.890625 105.632812 222.886719 106.046875 217.878906 106.457031 C 207.863281 107.316406 197.855469 108.164062 187.839844 109.113281 C 179.480469 109.597656 171.128906 110.074219 162.777344 110.554688 L 158.578125 110.796875 C 156.425781 110.554688 154.230469 110.351562 151.980469 110.171875 C 179.074219 107.046875 206.007812 103.902344 232.707031 100.738281 Z M 786.84375 86.015625 C 787.5 86.433594 788.285156 86.941406 789.296875 87.578125 C 789.296875 87.578125 788.25 86.925781 786.816406 86.015625 C 786.835938 86.015625 786.835938 86.015625 786.84375 86.015625 Z M 815.140625 53.5 L 815.574219 53.800781 L 810.46875 61.25 Z M 770.132812 108.347656 C 762.121094 107.578125 752.992188 107.574219 744.585938 107.203125 C 740.222656 107.046875 735.90625 106.917969 731.59375 106.8125 C 733.894531 106.535156 736.203125 106.265625 738.503906 105.988281 C 745.019531 105.257812 751.503906 104.449219 757.980469 103.617188 C 761.558594 105.371094 765.332031 107.0625 770.132812 108.347656 Z M 824.15625 98.695312 C 824.15625 98.695312 824.160156 98.695312 825.851562 99.539062 C 825.292969 99.371094 824.863281 99.113281 824.15625 98.695312 Z M 802.171875 108.359375 C 800.511719 108.089844 798.484375 108.367188 797.625 108.980469 C 797.328125 109.226562 797.285156 109.492188 797.441406 109.730469 C 792.78125 110.355469 788.128906 110.980469 783.484375 111.605469 C 783.4375 111.378906 783.308594 111.175781 782.972656 111.046875 C 782.441406 110.847656 781.894531 110.675781 781.328125 110.5 C 783.082031 110.691406 784.941406 110.847656 786.945312 110.945312 C 794.410156 109.070312 797.242188 108.320312 799.183594 107.890625 C 799.1875 107.898438 799.210938 107.90625 799.21875 107.90625 C 799.21875 107.90625 799.230469 107.90625 799.800781 107.75 C 800.703125 107.542969 801.492188 107.359375 802.625 107.097656 C 802.625 107.097656 802.621094 107.054688 802.621094 106.992188 C 802.847656 106.933594 803.082031 106.871094 803.335938 106.796875 C 804.453125 106.871094 805.574219 106.933594 806.703125 106.996094 C 807.976562 107.089844 809.195312 106.863281 809.808594 106.492188 C 810.253906 106.777344 810.722656 107.0625 811.328125 107.351562 C 812.320312 107.429688 813.160156 107.496094 813.898438 107.550781 C 810.957031 107.941406 808.023438 108.324219 805.089844 108.714844 C 804.113281 108.601562 803.136719 108.488281 802.171875 108.359375 Z M 818.550781 113.695312 C 818.351562 113.914062 818.097656 114.113281 817.820312 114.304688 C 818.359375 114.417969 818.890625 114.535156 819.429688 114.652344 C 819.003906 114.773438 818.585938 114.894531 818.152344 115.007812 C 817.726562 114.953125 817.308594 114.894531 816.882812 114.847656 C 816.148438 115.195312 815.269531 115.492188 814.3125 115.753906 C 811.382812 115.527344 808.449219 115.292969 805.546875 115.058594 C 802.152344 114.738281 798.777344 114.433594 795.433594 114.105469 C 799.316406 113.433594 803.179688 112.75 807.039062 112.054688 C 810.433594 112.742188 813.792969 113.441406 817.128906 114.15625 C 817.605469 114 818.074219 113.851562 818.550781 113.695312 Z M 830.773438 193.125 L 828.863281 196.433594 C 828.742188 196.453125 828.617188 196.476562 828.496094 196.496094 L 830.328125 192.867188 Z M 771.390625 268.390625 C 775.855469 268.410156 780.367188 268.347656 784.890625 268.199219 C 780.195312 269.121094 775.503906 270.039062 770.808594 270.96875 C 770.132812 271.109375 769.464844 271.222656 768.789062 271.359375 C 764.910156 271.152344 761.046875 270.925781 757.199219 270.683594 C 757.078125 270.640625 756.964844 270.597656 756.84375 270.554688 C 755.257812 270.003906 753.5 269.460938 751.617188 269.027344 C 749.734375 268.589844 747.714844 268.226562 745.601562 267.949219 C 747.011719 267.800781 748.433594 267.652344 749.847656 267.5 C 756.816406 268.125 764.039062 268.324219 771.390625 268.390625 Z M 778.265625 466.375 C 779.203125 466.078125 781.085938 465.847656 779.933594 465.019531 C 787.796875 464.109375 795.75 463.023438 803.898438 461.730469 C 806.929688 461.269531 809.894531 460.566406 812.691406 459.570312 C 816.148438 460.785156 819.792969 461.898438 824.355469 462.460938 C 816.925781 462.894531 808.578125 464.335938 800.816406 464.882812 C 792.214844 465.601562 783.777344 466.347656 775.375 467.171875 C 776.332031 466.898438 777.292969 466.644531 778.265625 466.375 Z M 245.195312 358.1875 C 247.324219 357.859375 249.457031 357.570312 251.585938 357.273438 C 265.761719 356.058594 279.863281 354.90625 293.953125 353.769531 C 295.011719 354.742188 296.496094 355.59375 298.320312 356.304688 C 289.125 357.078125 279.953125 357.855469 270.785156 358.636719 L 257.046875 359.886719 C 252.480469 360.445312 247.914062 361 243.347656 361.554688 C 228.082031 362.578125 212.777344 363.273438 197.550781 365.019531 C 197.507812 365.027344 197.472656 365.035156 197.429688 365.042969 C 197.171875 364.957031 196.925781 364.878906 196.667969 364.800781 C 199.714844 364.359375 202.769531 363.949219 205.816406 363.492188 C 212.378906 362.421875 218.972656 361.695312 225.535156 360.84375 C 232.105469 360 238.652344 359.109375 245.195312 358.1875 Z M 128.066406 252.53125 C 128.257812 252.289062 128.503906 252.0625 128.789062 251.839844 C 128.207031 251.789062 127.632812 251.734375 127.050781 251.675781 C 127.488281 251.515625 127.929688 251.34375 128.382812 251.171875 C 128.839844 251.1875 129.285156 251.1875 129.742188 251.195312 C 130.496094 250.761719 131.410156 250.363281 132.410156 249.988281 C 135.535156 249.867188 138.667969 249.753906 141.765625 249.667969 C 149.722656 249.46875 157.546875 249.644531 165.0625 250.109375 C 165.46875 250.136719 165.210938 250.691406 165.3125 251.160156 C 159.878906 251.449219 154.445312 251.734375 149.003906 252.023438 C 145.035156 252.117188 141.0625 252.21875 137.085938 252.316406 C 136.355469 252.332031 135.621094 252.359375 134.882812 252.378906 C 133.09375 252.222656 131.3125 252.066406 129.527344 251.90625 C 129.039062 252.117188 128.554688 252.324219 128.066406 252.53125 Z M 769.523438 143.15625 C 770.929688 143.46875 772.355469 143.769531 773.796875 144.066406 C 770.828125 144.160156 767.851562 144.25 764.882812 144.351562 C 766.425781 143.953125 767.972656 143.554688 769.523438 143.15625 Z M 206.625 368.359375 C 205.910156 368.058594 205.183594 367.769531 204.445312 367.484375 L 208.957031 367.050781 C 208.074219 367.464844 207.300781 367.902344 206.625 368.359375 Z M 287.296875 378.90625 C 287.320312 378.933594 287.347656 378.96875 287.371094 379.011719 C 287.121094 378.984375 286.902344 378.941406 286.667969 378.90625 C 286.878906 378.914062 287.085938 378.90625 287.296875 378.90625 Z M 229.9375 254.824219 C 229.988281 254.859375 230.03125 254.902344 230.085938 254.945312 C 229.765625 254.953125 229.441406 254.964844 229.121094 254.972656 C 229.390625 254.921875 229.667969 254.867188 229.9375 254.824219 Z M 217.757812 255.363281 C 219.6875 255.136719 221.632812 254.910156 223.566406 254.675781 C 222.457031 254.878906 221.34375 255.066406 220.234375 255.265625 C 219.40625 255.300781 218.582031 255.328125 217.757812 255.363281 Z M 148.058594 169.898438 C 147.371094 169.535156 146.546875 169.101562 145.503906 168.542969 C 145.503906 168.542969 146.589844 169.109375 148.085938 169.898438 C 148.066406 169.898438 148.066406 169.898438 148.058594 169.898438 Z M 235.613281 127.851562 C 233.382812 127.746094 231.144531 127.636719 228.90625 127.53125 C 229.328125 127.695312 229.746094 127.851562 230.171875 128.015625 C 221.570312 128.261719 212.992188 128.484375 204.453125 128.609375 C 196.300781 128.078125 187.761719 127.765625 179.0625 127.90625 C 174.539062 128.0625 169.976562 128.3125 165.394531 128.644531 C 169.082031 127.460938 172.578125 126.195312 175.832031 124.894531 C 179.738281 125.039062 183.636719 125.179688 187.535156 125.328125 C 192.492188 125.5625 197.457031 125.8125 202.480469 126.054688 C 212.34375 126.492188 222.394531 126.777344 232.914062 126.707031 C 234.050781 127.082031 235.195312 127.460938 236.335938 127.835938 C 236.09375 127.835938 235.855469 127.84375 235.613281 127.851562 Z M 351.058594 376.015625 C 350.328125 376 349.589844 375.988281 348.800781 376.007812 C 347.464844 375.902344 346.09375 375.84375 344.738281 375.765625 C 345.539062 375.695312 346.34375 375.625 347.144531 375.554688 C 349.679688 375.347656 352.195312 375.140625 354.722656 374.929688 C 353.5 375.289062 352.28125 375.652344 351.058594 376.015625 Z M 190.078125 145.835938 C 199.601562 145.882812 208.972656 145.878906 218.296875 145.800781 C 217.210938 145.976562 216.136719 146.152344 215.042969 146.332031 C 213.984375 146.550781 211.890625 146.609375 213.089844 147.539062 C 204.359375 147.753906 195.496094 148.136719 186.421875 148.71875 C 183.039062 148.886719 179.722656 149.394531 176.5625 150.117188 C 172.847656 148.589844 168.925781 147.15625 163.960938 146.191406 C 172.171875 146.453125 181.484375 145.691406 190.078125 145.835938 Z M 116.460938 144.101562 C 116.152344 144.09375 115.847656 144.085938 115.550781 144.082031 C 115.421875 144.160156 115.308594 144.230469 115.195312 144.308594 C 114.605469 144.398438 114.015625 144.5 113.425781 144.589844 C 113.261719 144.578125 113.101562 144.554688 112.9375 144.542969 C 113.363281 144.378906 113.78125 144.207031 114.222656 144.050781 C 114.667969 144.058594 115.101562 144.074219 115.550781 144.082031 C 116.28125 143.652344 117.175781 143.261719 118.15625 142.886719 C 120.492188 142.824219 122.824219 142.757812 125.144531 142.710938 C 122.25 143.179688 119.351562 143.640625 116.460938 144.101562 Z M 700.648438 134.648438 C 706.015625 135.605469 711.75 136.339844 717.757812 136.855469 C 713.140625 137.511719 708.515625 138.15625 703.914062 138.84375 C 700.804688 139.085938 697.6875 139.335938 694.554688 139.578125 C 694.554688 139.570312 694.554688 139.554688 694.546875 139.546875 C 693.488281 138.0625 691.359375 136.828125 688.503906 135.890625 C 692.558594 135.484375 696.597656 135.058594 700.648438 134.648438 Z M 844.441406 237.671875 C 843.851562 237.570312 843.382812 237.367188 842.621094 237.03125 C 842.621094 237.03125 842.628906 237.039062 844.441406 237.671875 Z M 233.046875 386.195312 C 221.542969 384.480469 209.324219 383.109375 197.03125 382.1875 C 198.542969 381.890625 200.023438 381.570312 201.464844 381.234375 C 203.914062 380.839844 206.363281 380.441406 208.808594 380.042969 C 210.773438 380.355469 212.734375 380.675781 214.6875 381 C 219.070312 381.589844 223.425781 382.171875 227.800781 382.761719 C 232.183594 383.324219 236.578125 383.878906 241.066406 384.261719 C 245.535156 384.566406 250.066406 384.78125 254.703125 384.84375 C 254.070312 384.929688 253.433594 385.015625 252.800781 385.097656 C 248.964844 385.632812 245.136719 386.152344 241.308594 386.675781 C 238.546875 386.5625 235.78125 386.421875 233.046875 386.195312 Z M 828.445312 360.390625 C 828.445312 360.390625 828.453125 360.390625 830.113281 361.007812 C 829.574219 360.914062 829.148438 360.710938 828.445312 360.390625 Z M 857.691406 400.492188 L 858.121094 400.710938 L 854.695312 408.976562 Z M 874.144531 443.84375 C 873.609375 443.796875 873.175781 443.632812 872.464844 443.363281 C 872.464844 443.363281 872.472656 443.371094 874.144531 443.84375 Z M 912.886719 223.964844 C 894.898438 226 876.96875 228.152344 859.097656 230.398438 C 858.792969 230.277344 856.125 229.246094 852.019531 228.714844 C 847.011719 228.777344 847.011719 228.777344 841.222656 228.855469 C 841.222656 228.855469 839.964844 228.800781 837.785156 228.777344 C 836.109375 228.097656 835.738281 227.910156 834.488281 227.273438 C 834.488281 227.273438 834.480469 227.273438 834.460938 227.265625 C 835.554688 227.09375 836.613281 226.824219 837.480469 226.476562 C 840.007812 225.460938 840.257812 224.148438 838.027344 223.507812 C 839.054688 221.972656 839.347656 220.582031 839.078125 219.28125 C 842.046875 218.707031 845.015625 218.132812 847.960938 217.535156 C 852.507812 216.589844 857.039062 215.644531 861.542969 214.707031 C 866.039062 213.707031 870.492188 212.597656 874.925781 211.503906 C 875.96875 211.25 876.5 210.824219 876.097656 210.511719 C 875.691406 210.207031 874.589844 210.140625 873.558594 210.398438 C 870.320312 210.914062 867.082031 211.433594 863.84375 211.953125 C 860.605469 212.429688 857.367188 212.910156 854.136719 213.386719 C 848.425781 214.238281 842.726562 215.09375 837.039062 215.9375 C 836.398438 215.3125 835.652344 214.707031 834.800781 214.125 C 835.804688 212.863281 836.207031 211.582031 835.960938 210.355469 C 838.671875 208.003906 840.597656 205.644531 841.820312 203.28125 C 860.171875 200.105469 878.484375 196.753906 896.8125 193.257812 C 902.226562 192.386719 905.996094 190.226562 905.175781 188.476562 C 904.371094 186.710938 899.238281 185.976562 893.851562 186.851562 C 883.683594 188.066406 873.730469 189.464844 863.886719 190.992188 C 856.125 192.152344 848.410156 193.292969 840.710938 194.515625 C 838.820312 193.285156 836.171875 192.265625 832.898438 191.511719 L 831.277344 190.980469 L 832.570312 188.394531 C 829.007812 185.53125 823.863281 183.164062 818.566406 180.851562 C 815.914062 179.691406 813.222656 178.550781 810.675781 177.371094 C 809.394531 176.773438 808.152344 176.183594 806.964844 175.542969 C 805.773438 174.882812 804.628906 174.214844 803.570312 173.511719 L 797.300781 170.707031 C 792.726562 168.40625 785.628906 166.992188 777.40625 166.667969 L 772.25 166.488281 C 775.105469 165.96875 777.964844 165.457031 780.785156 164.910156 C 785.019531 164.101562 789.21875 163.09375 793.371094 162.136719 C 795.0625 161.738281 795.929688 161.105469 795.617188 160.523438 C 796.253906 160.613281 797.09375 160.585938 797.832031 160.367188 C 801.765625 159.011719 806.207031 158.015625 810.886719 157.070312 C 811.902344 156.773438 812.441406 156.367188 811.945312 156.097656 C 811.433594 155.742188 810.261719 155.6875 809.351562 155.925781 C 804.558594 156.921875 799.886719 158.03125 795.609375 159.378906 C 795.15625 159.535156 794.855469 159.75 794.785156 159.953125 C 793.796875 159.648438 792.265625 159.605469 790.757812 159.898438 C 784.117188 160.785156 777.519531 161.667969 770.933594 162.539062 C 772.925781 161.078125 774.332031 159.535156 775.035156 157.972656 C 784.957031 156.210938 794.925781 154.492188 805.339844 152.980469 C 806.503906 152.878906 807.257812 152.445312 807.117188 152.105469 C 806.945312 151.757812 805.972656 151.523438 804.828125 151.714844 C 794.820312 153.03125 785.113281 154.5 775.539062 156.070312 C 775.601562 155.246094 775.480469 154.421875 775.132812 153.605469 C 775.011719 153.335938 774.871094 153.070312 774.707031 152.808594 L 782.304688 151.949219 L 790.382812 150.871094 C 795.757812 150.125 801.128906 149.386719 806.496094 148.648438 C 817.222656 147.140625 827.917969 145.585938 838.574219 143.972656 C 840.660156 143.78125 842.308594 143.027344 842.210938 142.324219 C 842.160156 141.863281 841.378906 141.523438 840.277344 141.386719 C 848.347656 136.65625 844.835938 130.308594 831.621094 126.878906 L 829.652344 126.332031 C 834.636719 125.863281 839.167969 124.953125 842.636719 123.476562 C 854.460938 122.402344 866.316406 121.445312 878.207031 120.648438 C 879.242188 120.59375 880.109375 120.195312 880.058594 119.804688 C 880.007812 119.40625 879.035156 119.179688 877.886719 119.285156 C 867.109375 120.007812 856.371094 120.898438 845.648438 121.847656 C 845.875 121.691406 846.101562 121.53125 846.316406 121.367188 C 848.191406 119.839844 846.578125 117.855469 846.1875 116.054688 C 846.769531 113.453125 841.1875 111.101562 833.734375 110.820312 C 831.734375 110.746094 829.808594 110.832031 828.046875 111.046875 C 824.75 110.65625 821.421875 110.328125 818.089844 110.015625 C 822.449219 109.191406 826.789062 108.339844 831.101562 107.464844 C 832.265625 107.5 833.652344 107.636719 837.679688 108.007812 C 837.679688 108.007812 837.679688 108.007812 834.714844 106.796875 C 834.714844 106.796875 834.714844 106.796875 837.308594 107.644531 C 837.308594 107.644531 837.308594 107.636719 836.640625 106.316406 C 836.648438 106.316406 836.648438 106.316406 836.648438 106.316406 C 836.699219 106.371094 836.902344 106.636719 837.828125 107.765625 C 837.828125 107.765625 837.828125 107.765625 838.941406 106.691406 C 838.941406 106.691406 838.964844 106.699219 844.070312 109.921875 C 844.476562 109.859375 845.425781 109.710938 847.8125 109.328125 C 847.8125 109.328125 848.480469 109.035156 848.972656 108.679688 C 849.027344 108.289062 849.019531 108.289062 851.082031 106.960938 C 851.082031 106.960938 851.128906 106.515625 850.9375 106.03125 C 850.3125 105.585938 850.3125 105.585938 850.164062 104.363281 C 850.164062 104.363281 849.460938 103.878906 848.429688 103.460938 C 847.445312 103.210938 847.195312 103.15625 843.53125 102.34375 C 843.851562 102.144531 844.148438 101.933594 844.425781 101.714844 C 845.144531 99.453125 845.15625 99.453125 840.574219 94.121094 C 840.574219 94.121094 838.800781 93.113281 835.839844 92.144531 C 844.816406 90.746094 853.808594 89.355469 862.820312 88 C 868.128906 87.332031 871.863281 85.3125 871.089844 83.539062 C 870.335938 81.746094 865.328125 80.824219 860.042969 81.484375 C 847.046875 82.570312 834.410156 83.976562 821.875 85.597656 C 821.660156 85.304688 821.277344 85.015625 820.667969 84.773438 C 823.429688 81.242188 821.738281 78.105469 818.152344 75.113281 C 819.226562 73.949219 819.714844 72.71875 819.558594 71.464844 C 823.699219 68.410156 826.292969 65.292969 827.371094 61.929688 L 827.863281 58.992188 C 826.640625 56.46875 823.089844 54.097656 817.820312 52.398438 L 816.222656 51.710938 L 817.707031 49.261719 C 814.304688 46.0625 809.238281 43.210938 803.960938 40.390625 C 801.320312 38.984375 798.628906 37.582031 796.0625 36.15625 C 793.507812 34.765625 791.085938 33.363281 788.976562 31.886719 L 782.660156 28.828125 C 778.066406 26.375 770.773438 24.558594 762.332031 24.058594 L 753.421875 23.5625 C 751.550781 23.621094 749.691406 23.675781 747.800781 23.734375 C 757.128906 20.261719 762.183594 15.558594 760.273438 10.957031 C 758.632812 7.164062 752.460938 4.152344 743.789062 2.371094 C 735.09375 0.542969 724.058594 0.230469 712.550781 1.4375 C 651.285156 5.863281 593.390625 12.257812 533.332031 19.253906 C 527.769531 19.898438 522.28125 20.542969 516.832031 21.175781 C 511.414062 21.757812 506.050781 22.328125 500.71875 22.902344 C 490.019531 24.136719 479.585938 24.933594 469.109375 25.851562 C 463.863281 26.339844 458.691406 26.5625 453.46875 26.875 C 448.265625 27.121094 443.042969 27.378906 437.800781 27.632812 C 432.597656 27.734375 427.363281 27.796875 422.097656 27.824219 C 416.808594 27.847656 411.636719 27.851562 405.847656 27.710938 C 395.007812 28.328125 384.285156 29.011719 373.625 29.75 C 362.96875 30.46875 352.351562 31.53125 341.789062 32.5 C 320.671875 34.359375 299.664062 37.144531 278.589844 39.855469 C 260.855469 42.421875 245.265625 46.0625 230.234375 50.027344 C 215.199219 54.238281 200.730469 58.65625 185.242188 62.710938 C 184.339844 62.945312 184.269531 63.386719 184.765625 63.664062 C 185.503906 63.941406 186.773438 63.871094 187.585938 63.636719 C 236.949219 55.3125 287.015625 49.28125 340.253906 48.351562 C 346.355469 48.273438 352.351562 48.289062 358.289062 48.378906 C 358.941406 48.5 359.667969 48.585938 360.441406 48.621094 C 365.839844 49.039062 371.25 49.460938 376.664062 49.878906 C 374.78125 49.871094 372.898438 49.855469 371.015625 49.851562 C 367.28125 49.707031 364.070312 50.679688 363.808594 51.996094 C 363.792969 52.550781 364.320312 53.054688 365.191406 53.480469 C 351.363281 54.773438 337.847656 56.476562 324.386719 58.28125 C 320.367188 58.402344 316.667969 58.941406 313.492188 59.652344 C 305.695312 59.28125 297.886719 58.921875 290.066406 58.550781 C 286.15625 58.378906 282.242188 58.21875 278.320312 58.046875 C 274.40625 57.925781 270.480469 57.8125 266.558594 57.691406 L 262.660156 57.40625 C 257.511719 57.265625 252.558594 58.1875 250.128906 59.773438 C 249.347656 60.25 248.886719 60.746094 248.660156 61.242188 C 230.855469 62.890625 212.914062 65.105469 195.253906 67.308594 C 186.425781 68.359375 177.667969 69.871094 169.03125 71.355469 C 160.402344 72.863281 151.902344 74.503906 143.570312 76.3125 C 141.878906 76.675781 141.011719 77.34375 141.324219 77.917969 C 140.6875 77.828125 139.847656 77.863281 139.109375 78.082031 C 135.167969 79.453125 130.730469 80.484375 126.039062 81.449219 C 125.023438 81.753906 124.484375 82.160156 124.988281 82.429688 C 125.5 82.785156 126.679688 82.835938 127.589844 82.585938 C 132.375 81.5625 137.058594 80.433594 141.332031 79.0625 C 141.789062 78.90625 142.085938 78.6875 142.15625 78.480469 C 143.144531 78.777344 144.683594 78.863281 146.191406 78.59375 C 154.835938 77.601562 163.414062 76.476562 171.964844 75.304688 C 176.242188 74.710938 180.511719 74.113281 184.78125 73.515625 C 189.046875 72.898438 193.316406 72.457031 197.585938 71.925781 C 214.667969 69.9375 231.820312 67.8125 249.363281 67.089844 C 232.261719 69.714844 214.757812 72.300781 196.386719 74.851562 C 193.613281 75.25 190.867188 75.648438 188.144531 76.039062 C 185.425781 76.507812 182.726562 76.976562 180.042969 77.445312 C 174.671875 78.394531 169.359375 79.339844 164.039062 80.285156 C 153.40625 82.175781 142.753906 83.800781 131.609375 85.511719 C 130.445312 85.617188 129.691406 86.050781 129.839844 86.398438 C 130.011719 86.742188 130.984375 86.96875 132.128906 86.777344 C 143.546875 85.183594 154.613281 83.738281 165.523438 81.898438 C 176.433594 80.136719 187.195312 78.019531 198.019531 76.421875 C 208.84375 74.722656 219.730469 73.082031 230.882812 71.734375 C 242.039062 70.53125 253.460938 69.738281 265.34375 69.417969 C 267.210938 69.375 269.078125 69.367188 270.925781 69.375 C 256.332031 72.855469 242.035156 76.234375 227.820312 79.878906 C 184.246094 82.761719 140.949219 87.726562 98.453125 94.710938 C 96.367188 94.972656 94.734375 95.769531 94.839844 96.480469 C 94.9375 97.1875 96.757812 97.566406 98.832031 97.300781 C 110.96875 96.726562 123.148438 96.136719 135.359375 95.554688 L 144.507812 95.113281 L 153.675781 94.851562 C 159.785156 94.667969 165.902344 94.476562 172.023438 94.289062 C 170.324219 94.722656 168.648438 95.15625 166.945312 95.589844 L 161.875 96.285156 L 150.105469 97.144531 L 144.214844 97.59375 L 138.335938 98.191406 C 130.5 99.035156 122.660156 99.886719 114.804688 100.738281 C 108.929688 101.1875 104.1875 103.199219 104.03125 105.292969 C 104.085938 107.304688 108.5625 108.539062 114.207031 108.199219 C 113.304688 108.398438 112.402344 108.59375 111.5 108.800781 C 110.585938 108.972656 109.953125 109.425781 110.230469 109.726562 C 110.613281 110.042969 111.808594 110.171875 112.695312 110 C 115.960938 109.21875 119.164062 108.460938 122.375 107.695312 C 129.832031 107.226562 137.292969 106.679688 144.742188 106.109375 C 152.207031 105.703125 159.671875 105.242188 167.136719 104.746094 L 189.53125 103.183594 L 211.945312 101.941406 C 203.921875 102.847656 195.875 103.75 187.804688 104.667969 C 179.742188 105.691406 171.660156 106.664062 163.5625 107.585938 C 159.507812 108.035156 155.453125 108.480469 151.390625 108.929688 C 149.039062 109.171875 146.679688 109.425781 144.332031 109.6875 C 141.800781 109.570312 139.238281 109.460938 136.625 109.398438 C 138.128906 109.617188 139.664062 109.84375 141.203125 110.074219 C 140.539062 110.152344 139.871094 110.222656 139.203125 110.3125 C 138.507812 110.398438 137.804688 110.476562 137.101562 110.5625 C 135.507812 110.597656 133.890625 110.667969 132.199219 110.847656 C 132.3125 110.9375 132.441406 111.015625 132.5625 111.109375 C 131.035156 111.292969 129.507812 111.480469 127.972656 111.65625 C 125.542969 111.585938 123.035156 111.648438 120.515625 111.800781 C 120.613281 111.761719 120.734375 111.734375 120.820312 111.699219 C 121.59375 111.335938 121.539062 110.945312 120.699219 110.746094 C 119.980469 110.578125 118.71875 110.664062 117.949219 111.011719 C 117.304688 111.316406 117.363281 111.792969 118.078125 111.957031 C 118.113281 111.960938 118.148438 111.960938 118.183594 111.96875 C 117.097656 112.0625 116.011719 112.175781 114.925781 112.308594 C 114.847656 112.273438 114.746094 112.238281 114.628906 112.210938 C 113.917969 112.046875 112.539062 112.175781 111.878906 112.480469 C 111.65625 112.582031 111.523438 112.695312 111.453125 112.800781 C 108.929688 113.199219 106.464844 113.6875 104.109375 114.277344 C 102.382812 114.449219 100.65625 114.625 98.929688 114.832031 C 94.554688 115.363281 90.171875 115.898438 85.785156 116.429688 C 77.011719 117.453125 68.21875 118.402344 59.398438 119.277344 C 58.367188 119.371094 57.515625 119.789062 57.570312 120.179688 C 57.636719 120.570312 58.609375 120.769531 59.746094 120.628906 C 72.195312 119.242188 84.625 117.84375 97.027344 116.445312 C 94.335938 117.4375 91.921875 118.558594 89.960938 119.796875 C 81.058594 125.398438 84.066406 131.222656 96.375 133.410156 C 95.398438 133.660156 94.910156 134.074219 95.292969 134.378906 C 95.675781 134.691406 96.734375 134.761719 97.730469 134.519531 C 98.808594 134.371094 99.875 134.222656 100.953125 134.074219 L 101.367188 134.128906 C 94.09375 135.714844 87.84375 138.042969 84.492188 141.253906 C 82.699219 143.015625 84.574219 144.769531 85.164062 146.515625 C 85.023438 147.601562 85.953125 148.503906 87.609375 149.160156 C 83.511719 149.933594 79.414062 150.707031 75.308594 151.460938 C 70.101562 152.285156 66.480469 154.40625 67.273438 156.160156 C 68.054688 157.929688 72.992188 158.703125 78.167969 157.886719 C 79.40625 157.746094 80.621094 157.589844 81.847656 157.445312 C 82.035156 157.640625 82.097656 157.921875 82.269531 158.648438 C 82.269531 158.648438 83.035156 159.039062 84.136719 159.316406 C 85.171875 159.4375 85.441406 159.464844 89.265625 159.792969 C 88.957031 160.03125 88.667969 160.289062 88.410156 160.535156 C 87.898438 162.878906 87.898438 162.878906 93.070312 167.597656 C 93.070312 167.597656 95.820312 168.734375 100.144531 169.289062 C 105.09375 169.195312 105.09375 169.195312 110.8125 169.101562 C 110.8125 169.101562 112.0625 169.152344 114.222656 169.167969 C 115.882812 169.839844 116.253906 170.027344 117.496094 170.65625 C 117.496094 170.65625 117.503906 170.65625 117.523438 170.664062 C 116.445312 170.84375 115.394531 171.113281 114.535156 171.460938 C 112.046875 172.492188 111.808594 173.8125 114.03125 174.429688 C 111.523438 178.230469 113.492188 181.191406 117.304688 183.796875 C 116.324219 185.070312 115.933594 186.347656 116.191406 187.578125 C 112.289062 191.015625 109.988281 194.464844 109.207031 197.945312 L 108.972656 200.9375 C 110.394531 203.28125 114.082031 205.199219 119.40625 206.390625 L 121.027344 206.917969 L 119.761719 209.503906 C 124.242188 213.058594 131.191406 215.824219 137.859375 218.679688 C 137.484375 218.691406 137.113281 218.699219 136.738281 218.714844 C 132.546875 218.925781 128.269531 219.425781 124.164062 220.164062 C 115.949219 221.640625 108.40625 224.078125 103.484375 227.125 C 93.609375 233.238281 97.902344 239.480469 113.027344 241.09375 L 115.179688 241.363281 C 107.6875 243.019531 101.246094 245.421875 97.785156 248.652344 C 95.941406 250.433594 97.863281 252.175781 98.460938 253.914062 C 98.105469 256.578125 104.269531 258.132812 112.183594 257.375 C 112.972656 257.296875 113.738281 257.195312 114.492188 257.082031 C 115.566406 258.191406 118.023438 259.105469 121.175781 259.582031 C 120.210938 259.773438 118.875 259.988281 117.398438 260.078125 C 114.804688 260.441406 114.804688 260.433594 108.269531 260.726562 C 108.269531 260.726562 108.269531 260.726562 111.507812 261.515625 C 111.507812 261.515625 111.507812 261.515625 108.6875 261.039062 C 108.6875 261.039062 108.6875 261.039062 109.527344 262.28125 C 109.527344 262.28125 109.527344 262.28125 108.128906 260.980469 C 108.128906 260.980469 108.128906 260.980469 107.046875 262.210938 C 107.046875 262.210938 107.035156 262.203125 101.316406 259.710938 C 100.898438 259.832031 99.902344 260.109375 97.410156 260.820312 C 97.410156 260.820312 96.742188 261.203125 96.257812 261.628906 C 96.238281 262.019531 96.238281 262.027344 94.214844 263.625 C 94.164062 263.617188 94.109375 263.609375 94.058594 263.609375 L 87.210938 263.070312 C 84.929688 262.890625 82.652344 262.496094 80.371094 262.210938 C 75.8125 261.5625 71.25 260.917969 66.691406 260.269531 C 65.625 260.09375 64.675781 260.300781 64.660156 260.691406 C 64.640625 261.089844 65.589844 261.527344 66.777344 261.671875 C 76.246094 263.253906 85.710938 264.382812 95.171875 265.121094 C 95.265625 265.320312 95.328125 265.605469 95.441406 266.082031 C 95.441406 266.082031 96.238281 266.464844 97.367188 266.734375 C 98.425781 266.839844 98.703125 266.871094 102.636719 267.160156 C 102.316406 267.410156 102.019531 267.664062 101.765625 267.921875 C 101.222656 270.265625 101.230469 270.265625 106.53125 274.9375 C 106.53125 274.9375 109.351562 276.054688 113.796875 276.566406 C 118.886719 276.429688 118.886719 276.429688 124.769531 276.28125 C 124.769531 276.28125 126.046875 276.296875 128.265625 276.316406 C 129.96875 276.976562 130.351562 277.15625 131.628906 277.78125 C 131.628906 277.78125 131.636719 277.78125 131.652344 277.785156 C 130.542969 277.976562 129.472656 278.253906 128.582031 278.609375 C 126.90625 279.300781 126.238281 280.101562 126.609375 280.75 C 125.757812 280.804688 124.90625 280.863281 124.058594 280.925781 C 121.707031 281.097656 119.363281 281.265625 117.019531 281.4375 C 114.675781 281.621094 112.339844 281.8125 110.011719 282 L 106.507812 282.28125 L 102.992188 282.429688 C 101.898438 282.480469 101.300781 282.792969 101.679688 283.175781 C 102.054688 283.5625 103.175781 283.84375 104.257812 283.796875 C 111.921875 283.957031 119.511719 283.878906 127.054688 283.644531 C 126.273438 286.507812 128.199219 288.839844 131.375 290.933594 C 130.359375 292.21875 129.953125 293.496094 130.210938 294.726562 C 129.871094 295.023438 129.558594 295.324219 129.238281 295.613281 L 128.421875 295.679688 C 122.832031 295.871094 117.234375 296.054688 111.636719 296.246094 C 106.046875 296.539062 100.363281 296.308594 94.703125 296.265625 C 89.035156 296.175781 83.363281 296.195312 77.621094 295.691406 C 71.777344 295.160156 67.402344 296.289062 67.933594 298.207031 C 68.453125 300.132812 73.789062 302.175781 79.695312 302.714844 C 81.074219 302.878906 82.460938 303.085938 83.832031 303.214844 C 85.195312 303.3125 86.558594 303.414062 87.921875 303.511719 C 90.648438 303.691406 93.355469 303.867188 96.0625 304.039062 C 98.761719 304.195312 101.453125 304.34375 104.136719 304.492188 C 106.828125 304.683594 109.464844 304.570312 112.113281 304.605469 C 115.820312 304.605469 119.507812 304.554688 123.191406 304.511719 C 123.128906 304.734375 123.050781 304.953125 123 305.175781 L 122.746094 308.171875 C 124.203125 310.492188 127.980469 312.382812 133.433594 313.535156 L 135.097656 314.046875 L 133.78125 316.652344 C 137.453125 319.464844 142.746094 321.757812 148.207031 324.003906 C 153.671875 326.21875 159.335938 328.585938 163.714844 331.210938 L 170.183594 333.824219 C 174.90625 335.992188 182.214844 337.183594 190.675781 337.261719 L 197.683594 337.285156 C 195.625 337.667969 193.550781 338.042969 191.457031 338.429688 C 190.390625 338.542969 189.703125 338.980469 189.84375 339.324219 C 190.015625 339.671875 190.910156 339.890625 191.953125 339.6875 C 195.683594 339.125 199.355469 338.5 202.996094 337.851562 C 200.453125 339.082031 198.316406 340.394531 196.660156 341.753906 C 194.609375 342.085938 192.542969 342.425781 190.488281 342.773438 C 185.597656 343.613281 180.703125 344.453125 175.816406 345.289062 C 170.9375 346.140625 166.058594 346.953125 161.21875 348.101562 C 159.316406 348.402344 157.832031 349.230469 157.953125 349.933594 C 158.058594 350.636719 159.734375 350.984375 161.632812 350.6875 C 167.171875 350.042969 172.761719 349.847656 178.335938 349.472656 C 183.136719 349.175781 187.945312 348.875 192.753906 348.578125 C 192.804688 349.144531 192.949219 349.699219 193.203125 350.253906 C 193.417969 350.695312 193.6875 351.121094 194.019531 351.527344 C 188.140625 352.277344 182.25 353.03125 176.355469 353.792969 C 170.972656 354.296875 166.675781 356.304688 166.589844 358.464844 C 166.609375 359.011719 166.964844 359.496094 167.546875 359.90625 C 165.253906 359.246094 162.875 358.636719 160.433594 358.1875 C 156.910156 357.535156 153.285156 357.152344 149.757812 357.042969 C 147.996094 356.988281 146.261719 357 144.570312 357.078125 C 142.894531 357.128906 141.304688 357.164062 139.761719 357.3125 C 136.6875 357.605469 133.910156 358.1875 131.628906 359.070312 C 123.847656 362.101562 124.316406 367.65625 132.296875 372.527344 C 130.253906 372.804688 128.207031 373.082031 126.160156 373.34375 C 125.222656 373.453125 124.457031 373.890625 124.527344 374.273438 C 124.59375 374.671875 125.488281 374.851562 126.523438 374.6875 C 129.109375 374.359375 131.679688 373.984375 134.257812 373.636719 C 135.183594 374.113281 136.15625 374.585938 137.234375 375.042969 C 137.234375 375.042969 138.023438 375.398438 139.011719 375.835938 C 132.410156 375.601562 126.550781 376.335938 123 378.644531 C 121.097656 379.914062 122.410156 382.082031 122.601562 383.921875 C 121.785156 386.429688 126.820312 389.476562 133.824219 390.726562 C 135.734375 391.042969 137.5625 391.214844 139.25 391.234375 C 139.734375 391.371094 140.210938 391.511719 140.695312 391.648438 C 143.222656 392.265625 145.800781 392.75 148.355469 393.304688 C 153.476562 394.390625 158.597656 395.484375 163.558594 396.726562 C 165.121094 397.210938 167.074219 397.058594 167.9375 396.5 C 168.679688 395.945312 168.023438 395.191406 166.390625 394.832031 C 160.703125 393.070312 155.21875 391.207031 149.804688 389.332031 C 149.34375 389.4375 148.882812 389.546875 148.421875 389.644531 C 148.628906 389.445312 148.882812 389.277344 149.160156 389.121094 C 148.664062 388.941406 148.164062 388.773438 147.667969 388.59375 C 148.074219 388.523438 148.476562 388.445312 148.898438 388.382812 C 149.300781 388.480469 149.691406 388.578125 150.089844 388.6875 C 150.808594 388.417969 151.660156 388.210938 152.589844 388.046875 C 155.339844 388.601562 158.09375 389.148438 160.824219 389.6875 C 162.570312 390.0625 164.316406 390.425781 166.050781 390.796875 C 167.796875 391.117188 169.539062 391.441406 171.261719 391.761719 C 174.714844 392.429688 178.117188 393.167969 181.457031 393.992188 C 181.988281 394.128906 181.042969 395.242188 182.03125 395.730469 C 182.414062 395.917969 182.824219 396.09375 183.230469 396.273438 L 182.996094 396.308594 C 181.496094 396.003906 179.929688 395.726562 178.246094 395.476562 C 171 396.699219 168.265625 397.160156 166.375 397.480469 C 166.371094 397.472656 166.347656 397.464844 166.339844 397.464844 C 166.339844 397.464844 166.328125 397.464844 165.773438 397.578125 C 164.898438 397.722656 164.140625 397.792969 163.039062 397.941406 C 163.039062 397.941406 163.046875 397.976562 163.039062 398.039062 C 162.824219 398.074219 162.589844 398.113281 162.34375 398.152344 C 161.285156 397.960938 160.226562 397.785156 159.152344 397.59375 C 157.953125 397.359375 156.773438 397.457031 156.164062 397.757812 C 155.765625 397.429688 155.332031 397.089844 154.785156 396.734375 C 148.726562 395.546875 148.726562 395.546875 142.511719 394.398438 C 142.511719 394.398438 142.496094 394.695312 142.667969 395.128906 C 142.546875 395.128906 141.957031 395.15625 141.097656 395.136719 C 140.246094 395.066406 139.117188 394.9375 137.921875 394.675781 C 135.59375 394.367188 135.59375 394.367188 129.847656 393.011719 C 129.847656 393.011719 129.847656 393.011719 132.539062 394.597656 C 132.539062 394.597656 132.539062 394.597656 130.160156 393.417969 C 130.160156 393.417969 130.160156 393.417969 130.679688 394.84375 C 130.679688 394.84375 130.679688 394.84375 129.683594 393.226562 C 129.683594 393.226562 129.683594 393.226562 128.527344 394.148438 C 128.527344 394.148438 128.511719 394.132812 123.988281 390.269531 C 123.605469 390.285156 122.6875 390.3125 120.394531 390.382812 C 120.394531 390.382812 119.734375 390.582031 119.238281 390.875 C 119.144531 391.25 119.144531 391.25 117.0625 392.308594 C 117.0625 392.308594 116.964844 392.742188 117.097656 393.246094 C 117.644531 393.773438 117.644531 393.773438 117.660156 395.007812 C 117.660156 395.007812 118.277344 395.570312 119.214844 396.117188 C 120.132812 396.492188 120.359375 396.589844 123.761719 397.863281 C 123.441406 398.019531 123.128906 398.191406 122.851562 398.375 C 121.949219 400.527344 121.921875 400.519531 125.792969 406.414062 C 125.792969 406.414062 128.101562 408.210938 132 409.851562 C 133.3125 410.1875 134.246094 410.425781 135.03125 410.632812 C 135.96875 411.464844 137.953125 411.941406 140.339844 411.953125 C 140.808594 412.054688 141.324219 412.160156 141.914062 412.273438 C 141.914062 412.273438 143.078125 412.585938 145.089844 413.046875 C 146.539062 414.058594 146.859375 414.3125 147.925781 415.191406 C 147.925781 415.191406 147.9375 415.191406 147.953125 415.207031 C 146.914062 415.15625 145.894531 415.207031 145.035156 415.371094 C 142.539062 415.855469 142.101562 417.105469 144.089844 418.175781 C 141.132812 421.378906 142.496094 424.695312 145.742188 428.054688 C 144.613281 429.105469 144.039062 430.273438 144.089844 431.527344 C 139.8125 434.101562 137.015625 436.984375 135.664062 440.136719 L 134.933594 442.992188 C 135.921875 445.699219 139.214844 448.390625 144.273438 450.683594 L 145.792969 451.550781 L 144.136719 453.816406 C 150.339844 460.914062 163.402344 467.632812 171.441406 474.089844 L 177.5625 477.710938 C 179.792969 479.160156 182.707031 480.472656 186.113281 481.601562 C 189.539062 482.78125 193.410156 483.464844 197.628906 484.058594 L 206.527344 485.1875 C 208.410156 485.265625 210.269531 485.339844 212.160156 485.417969 C 202.679688 488.222656 197.359375 492.554688 199.054688 497.285156 C 200.519531 501.191406 206.605469 504.628906 215.320312 507.03125 C 218.957031 507.9375 223.078125 508.621094 227.472656 509.082031 C 223.816406 509.890625 220.15625 510.703125 216.507812 511.519531 C 214.632812 511.824219 213.183594 512.65625 213.308594 513.351562 C 213.425781 514.0625 215.085938 514.402344 216.953125 514.105469 C 227.898438 512.96875 238.878906 511.832031 249.882812 510.695312 C 255.378906 510.097656 260.882812 509.507812 266.386719 508.917969 C 268.191406 508.734375 269.996094 508.558594 271.800781 508.371094 C 275.058594 508.167969 278.300781 507.960938 281.546875 507.746094 C 280.507812 508.117188 279.472656 508.484375 278.421875 508.855469 L 273.875 509.847656 C 259.753906 511.917969 245.667969 514.332031 231.542969 516.816406 C 226.246094 517.527344 222.039062 519.765625 221.984375 521.851562 C 222.117188 523.863281 226.222656 524.894531 231.328125 524.289062 C 230.511719 524.53125 229.710938 524.773438 228.902344 525.019531 C 228.078125 525.234375 227.523438 525.714844 227.785156 525.992188 C 228.148438 526.304688 229.234375 526.378906 230.035156 526.164062 C 232.964844 525.234375 235.824219 524.324219 238.710938 523.410156 C 245.449219 522.589844 252.183594 521.710938 258.910156 520.78125 L 279.109375 517.980469 C 292.574219 516.113281 306.035156 514.097656 319.496094 512.039062 C 305.113281 515.21875 290.613281 518.222656 276.027344 521.027344 C 261.4375 523.835938 246.792969 526.71875 232.054688 529.203125 C 232.621094 528.878906 232.652344 528.4375 231.882812 528.28125 C 231.230469 528.144531 229.980469 528.335938 229.398438 528.671875 C 228.730469 529.0625 228.894531 529.472656 229.5625 529.609375 C 229.589844 529.617188 229.597656 529.617188 229.625 529.625 C 213.808594 532.308594 197.90625 534.722656 181.925781 536.832031 C 180.992188 536.9375 180.226562 537.371094 180.289062 537.761719 C 180.355469 538.160156 181.25 538.339844 182.277344 538.175781 C 208.742188 534.679688 235 530.328125 260.984375 525.304688 C 267.480469 524.039062 273.964844 522.785156 280.445312 521.535156 C 286.914062 520.269531 293.371094 518.96875 299.804688 517.625 C 312.675781 514.949219 325.476562 512.121094 338.179688 509.175781 C 340.972656 508.75 343.769531 508.324219 346.582031 507.890625 C 346.582031 507.902344 346.582031 507.910156 346.589844 507.925781 C 347.621094 509.34375 349.609375 510.453125 352.246094 511.21875 C 334.148438 514.402344 316.171875 517.683594 298.144531 521.105469 C 283.035156 523.066406 267.914062 524.941406 252.820312 527.179688 C 250.640625 527.476562 248.894531 528.402344 248.9375 529.316406 C 248.957031 530.15625 250.832031 530.539062 253.121094 530.261719 L 264.230469 528.722656 C 261.296875 530.242188 259.457031 532.039062 259.433594 533.757812 C 259.398438 535.410156 261.082031 536.660156 263.773438 537.429688 C 247.628906 541.40625 231.679688 545.527344 216.171875 550.15625 C 215.265625 550.417969 214.808594 550.84375 215.179688 551.160156 C 215.546875 551.457031 216.515625 551.507812 217.414062 551.242188 C 228.816406 549.042969 240.121094 546.742188 251.410156 544.410156 C 257.054688 543.246094 262.6875 542.082031 268.320312 540.917969 C 273.960938 539.765625 279.621094 538.722656 285.273438 537.640625 C 303.433594 537.160156 321.214844 536.894531 340.695312 535 C 354.863281 533.566406 368.558594 531.457031 382.011719 529.019531 C 395.457031 526.570312 408.640625 523.742188 421.820312 520.921875 C 431.425781 520.175781 440.976562 519.308594 450.453125 518.300781 C 449.195312 519.253906 448.492188 520.277344 448.589844 521.285156 C 448.621094 521.535156 448.738281 521.761719 448.875 521.996094 C 440.550781 522.996094 432.175781 524.003906 423.660156 525.019531 C 403.945312 527.429688 384.566406 530.277344 365.433594 533.445312 C 346.320312 536.65625 327.484375 540.242188 308.761719 543.992188 C 271.269531 551.316406 234.554688 560.25 197.421875 568.636719 C 192.65625 569.566406 189.390625 571.777344 190.171875 573.511719 C 190.9375 575.257812 195.511719 575.925781 200.257812 574.996094 C 218.191406 572.300781 235.335938 568.929688 252.507812 565.148438 C 269.691406 561.25 286.9375 557.34375 304.984375 553.261719 C 317.855469 550.355469 329.949219 547.699219 342.074219 545.128906 C 354.183594 542.542969 366.34375 540.070312 379.355469 537.570312 C 409.804688 531.667969 438.285156 528.335938 468.363281 524.28125 C 471.347656 524.175781 474.332031 523.96875 477.308594 523.449219 C 480.324219 522.941406 483.328125 522.421875 486.320312 521.910156 C 498.097656 520.441406 509.792969 519.21875 521.421875 518.125 C 533.070312 517.078125 544.644531 516.035156 556.195312 515 C 542.515625 517.5625 528.851562 520.132812 515.234375 522.691406 C 501.640625 525.332031 488.117188 528.132812 474.722656 531.222656 C 472.78125 531.589844 471.5625 532.457031 471.832031 533.132812 C 472.25 533.800781 474.046875 534.078125 475.984375 533.707031 C 494.765625 530.375 513.59375 527.273438 532.453125 524.261719 C 551.328125 521.15625 570.222656 518.046875 589.101562 514.941406 C 594.605469 517.355469 602.917969 518.699219 612.3125 519.109375 C 621.703125 519.496094 632.164062 519.097656 641.964844 517.546875 C 649.203125 516.492188 655.824219 514.699219 662.457031 512.578125 C 659.273438 512.820312 656.171875 513.066406 652.996094 513.316406 C 662.273438 511.589844 670.015625 508.671875 677.648438 505.714844 C 678.34375 505.6875 679.035156 505.667969 679.773438 505.59375 C 689.078125 505.863281 699.035156 504.964844 709.140625 503.789062 C 714.191406 503.1875 719.285156 502.582031 724.355469 501.894531 C 729.425781 501.15625 734.46875 500.46875 739.441406 499.925781 C 738.917969 499.195312 738.304688 498.492188 737.789062 497.769531 C 741.503906 497.710938 743.816406 498.769531 747.859375 498.472656 C 746.660156 498.082031 745.542969 497.703125 744.34375 497.3125 C 744.429688 497.304688 744.511719 497.300781 744.589844 497.292969 C 749.015625 497.8125 754.230469 497.433594 759.570312 496.496094 C 771.746094 497.929688 786.234375 497.433594 801.3125 495.707031 C 801.839844 495.660156 802.371094 495.582031 802.898438 495.515625 C 805.035156 496.121094 808.144531 496.21875 811.691406 495.695312 C 813.21875 495.738281 814.976562 495.574219 816.113281 495.757812 C 826.320312 497.578125 838.503906 497.703125 851.820312 496.878906 C 849.207031 496.695312 846.476562 496.503906 843.859375 496.3125 C 847.707031 496.113281 851.515625 495.941406 855.710938 495.070312 C 855.199219 494.707031 854.5625 494.359375 854.050781 493.996094 C 867.503906 494.542969 885.074219 489.480469 893.214844 482.730469 C 901.386719 475.964844 897.113281 470.054688 883.695312 469.507812 L 881.777344 469.394531 C 888.226562 467.21875 893.6875 464.398438 896.464844 460.933594 C 897.945312 459.039062 896.109375 457.441406 895.445312 455.75 C 895.535156 453.078125 889.996094 451.964844 883.113281 453.261719 C 881.238281 453.632812 879.460938 454.128906 877.863281 454.71875 C 869.808594 455.492188 861.605469 456.5 853.75 457.011719 C 852.1875 457.0625 850.371094 457.714844 849.660156 458.492188 C 849.0625 459.230469 849.832031 459.785156 851.441406 459.707031 C 857.183594 459.699219 862.765625 459.789062 868.324219 459.917969 C 868.746094 459.675781 869.148438 459.433594 869.570312 459.195312 C 869.417969 459.449219 869.214844 459.691406 868.980469 459.933594 C 869.496094 459.945312 870.007812 459.953125 870.519531 459.976562 C 870.152344 460.167969 869.78125 460.371094 869.398438 460.566406 C 868.992188 460.59375 868.601562 460.613281 868.199219 460.644531 C 867.566406 461.125 866.792969 461.585938 865.933594 462.035156 C 856.179688 463.234375 846.515625 464.300781 837.316406 464.542969 C 836.777344 464.542969 837.480469 463.199219 836.457031 462.988281 C 835.945312 462.886719 835.417969 462.800781 834.871094 462.722656 C 836.511719 462.625 838.246094 462.460938 840.09375 462.226562 C 846.710938 459.109375 849.21875 457.929688 850.945312 457.121094 C 850.953125 457.121094 850.972656 457.128906 850.972656 457.128906 C 850.972656 457.128906 850.996094 457.121094 851.492188 456.855469 C 852.289062 456.488281 852.992188 456.152344 854 455.683594 C 854 455.683594 853.984375 455.640625 853.980469 455.585938 C 854.171875 455.480469 854.382812 455.371094 854.605469 455.257812 C 855.640625 455.109375 856.675781 454.96875 857.722656 454.820312 C 858.902344 454.667969 859.988281 454.214844 860.5 453.738281 C 860.945312 453.9375 861.421875 454.128906 862.011719 454.300781 C 867.972656 453.589844 867.972656 453.589844 874.070312 452.789062 C 874.070312 452.789062 874.015625 452.496094 873.753906 452.125 C 873.988281 452.046875 875.945312 451.296875 878.320312 450.949219 C 880.5625 450.40625 880.5625 450.40625 886.273438 449.664062 C 886.273438 449.664062 886.273438 449.664062 883.371094 449.101562 C 883.371094 449.101562 883.371094 449.101562 885.882812 449.386719 C 885.882812 449.386719 885.882812 449.386719 885.046875 448.207031 C 885.046875 448.207031 885.046875 448.207031 886.375 449.398438 C 886.375 449.398438 886.375 449.398438 887.226562 448.105469 C 887.226562 448.105469 887.238281 448.113281 892.460938 450.1875 C 892.816406 450.039062 893.667969 449.699219 895.796875 448.808594 C 895.796875 448.808594 896.359375 448.390625 896.742188 447.9375 C 896.730469 447.539062 896.730469 447.539062 898.382812 445.796875 C 898.382812 445.796875 898.355469 445.351562 898.09375 444.925781 C 897.445312 444.621094 897.445312 444.621094 897.097656 443.449219 C 897.097656 443.449219 896.375 443.121094 895.359375 442.9375 C 894.414062 442.894531 894.171875 442.886719 890.699219 442.871094 C 890.953125 442.609375 891.1875 442.339844 891.402344 442.0625 C 891.679688 439.691406 891.679688 439.691406 886.644531 435.414062 C 886.644531 435.414062 884.078125 434.511719 880.136719 434.3125 C 875.675781 434.796875 875.675781 434.796875 870.527344 435.359375 C 870.527344 435.359375 869.398438 435.398438 867.453125 435.5625 C 865.902344 435.023438 865.554688 434.875 864.382812 434.34375 C 864.382812 434.34375 864.375 434.347656 864.355469 434.34375 C 865.3125 434.078125 866.238281 433.722656 866.984375 433.304688 C 869.148438 432.082031 869.261719 430.746094 867.21875 430.308594 C 869.179688 426.324219 867.175781 423.546875 863.53125 421.25 C 864.320312 419.902344 864.570312 418.609375 864.242188 417.402344 C 867.488281 413.660156 869.292969 410.042969 869.726562 406.519531 L 869.703125 403.523438 C 868.242188 401.308594 864.765625 399.695312 859.886719 398.933594 L 858.390625 398.542969 L 859.328125 395.859375 C 856.472656 393.757812 852.671875 392.089844 848.628906 390.53125 C 847.046875 389.539062 844.859375 388.707031 842.125 388.105469 C 840.816406 387.613281 839.523438 387.125 838.261719 386.613281 C 840.886719 385.894531 843.324219 385.058594 845.460938 384.089844 C 859.390625 383.160156 873.355469 382.394531 887.359375 381.859375 C 888.375 381.832031 889.230469 381.464844 889.191406 381.074219 C 889.15625 380.675781 888.214844 380.410156 887.089844 380.488281 C 874.179688 380.988281 861.300781 381.691406 848.460938 382.527344 C 849.765625 381.734375 850.890625 380.867188 851.777344 379.9375 C 853.410156 378.167969 851.628906 376.421875 851.058594 374.6875 C 851.320312 372.023438 845.734375 370.445312 838.617188 371.171875 C 836.675781 371.371094 834.835938 371.71875 833.167969 372.179688 C 825.320312 372.265625 817.335938 372.535156 809.671875 372.429688 C 814.6875 371.683594 819.6875 370.921875 824.667969 370.140625 C 825.84375 370.085938 827.257812 370.019531 829.433594 369.929688 C 829.433594 369.929688 829.390625 369.699219 829.234375 369.394531 C 831.875 368.960938 834.515625 368.527344 837.152344 368.082031 C 838.152344 368.019531 839.589844 367.953125 842.082031 367.839844 C 842.082031 367.839844 842.066406 367.832031 840.695312 367.457031 C 840.808594 367.441406 840.925781 367.421875 841.03125 367.398438 C 841.238281 367.433594 841.449219 367.476562 841.699219 367.527344 C 841.699219 367.527344 841.691406 367.519531 841.5625 367.308594 C 841.664062 367.285156 841.769531 367.265625 841.867188 367.25 C 841.976562 367.351562 842.082031 367.457031 842.203125 367.585938 C 842.203125 367.585938 842.210938 367.578125 842.566406 367.121094 C 843.089844 367.03125 843.609375 366.9375 844.132812 366.839844 C 844.867188 367.195312 846.136719 367.804688 848.359375 368.882812 C 848.738281 368.769531 849.625 368.492188 851.855469 367.789062 C 851.855469 367.789062 852.457031 367.414062 852.878906 366.988281 C 852.890625 366.597656 852.890625 366.597656 854.6875 365.007812 C 854.6875 365.007812 854.683594 364.550781 854.441406 364.105469 C 853.792969 363.742188 853.792969 363.742188 853.515625 362.550781 C 853.515625 362.550781 852.800781 362.164062 851.777344 361.886719 C 850.816406 361.773438 850.570312 361.746094 847.023438 361.441406 C 847.308594 361.199219 847.566406 360.945312 847.800781 360.6875 C 848.234375 358.34375 848.226562 358.351562 843.375 353.664062 C 843.375 353.664062 842.472656 353.265625 840.925781 352.839844 C 851.65625 351.46875 862.394531 350.105469 873.164062 348.753906 C 878.375 348.25 882.089844 346.339844 881.378906 344.542969 C 880.683594 342.726562 875.804688 341.660156 870.605469 342.164062 C 854.851562 343.039062 839.617188 344.402344 824.460938 346.0625 C 825.988281 342.65625 824.175781 339.957031 820.929688 337.554688 C 821.816406 336.277344 822.160156 335.003906 821.917969 333.777344 C 825.441406 330.316406 827.492188 326.867188 828.160156 323.386719 L 828.339844 320.394531 C 827.011719 318.058594 823.636719 316.148438 818.804688 314.96875 L 817.328125 314.441406 L 818.453125 311.851562 C 815.175781 309.015625 810.488281 306.679688 805.660156 304.40625 C 800.835938 302.140625 795.824219 299.621094 791.957031 296.90625 L 786.253906 294.15625 C 782.101562 291.898438 775.6875 290.550781 768.277344 290.292969 L 764.71875 290.203125 C 770.574219 288.339844 776.496094 286.453125 782.5625 284.648438 C 791.996094 286.601562 802.691406 287.792969 814.210938 288.519531 C 811.300781 287.984375 808.265625 287.4375 805.363281 286.90625 C 809.6875 287.167969 813.949219 287.652344 818.757812 287.097656 C 818.222656 286.679688 817.542969 286.28125 817.007812 285.863281 C 832.054688 287.660156 852.332031 284.222656 862.109375 278.242188 C 871.933594 272.230469 867.660156 265.953125 852.679688 264.164062 L 850.539062 263.871094 C 857.96875 262.304688 864.363281 259.996094 867.785156 256.792969 C 869.613281 255.03125 867.707031 253.277344 867.109375 251.527344 C 867.125 251.441406 867.109375 251.363281 867.109375 251.28125 L 872.992188 250.207031 C 875.136719 249.929688 876.820312 249.113281 876.707031 248.410156 C 876.609375 247.699219 874.730469 247.34375 872.59375 247.613281 C 869.335938 247.890625 866.066406 248.117188 862.792969 248.324219 C 860.386719 247.785156 857.160156 247.601562 853.558594 247.90625 C 851.441406 248.089844 849.433594 248.417969 847.601562 248.859375 C 838.515625 248.878906 829.246094 249.128906 820.417969 248.914062 C 818.664062 248.816406 816.578125 249.296875 815.703125 250 C 815.140625 250.527344 815.488281 251.015625 816.492188 251.25 C 816.371094 251.257812 816.25 251.265625 816.128906 251.273438 C 813.273438 251.421875 810.417969 251.578125 807.554688 251.734375 C 809.898438 251.058594 811.695312 250.554688 813.101562 250.109375 C 814.113281 249.78125 814.921875 249.519531 815.617188 249.289062 C 821.035156 248.714844 826.457031 248.0625 831.882812 247.457031 C 833.773438 247.238281 835.667969 247.003906 837.566406 246.777344 C 839.011719 246.734375 840.683594 246.675781 843.507812 246.585938 C 843.507812 246.585938 843.480469 246.371094 843.324219 246.082031 C 847.195312 245.617188 851.058594 245.15625 854.929688 244.6875 C 855.640625 244.660156 856.457031 244.632812 857.429688 244.601562 C 857.429688 244.601562 857.429688 244.601562 856.890625 244.460938 C 858.097656 244.332031 859.242188 244.140625 860.308594 243.894531 C 861.144531 244.269531 862.394531 244.84375 864.292969 245.703125 C 864.703125 245.589844 865.683594 245.3125 868.148438 244.640625 C 868.148438 244.640625 868.816406 244.261719 869.285156 243.851562 C 869.304688 243.453125 869.304688 243.453125 871.308594 241.867188 C 871.308594 241.867188 871.316406 241.421875 871.058594 240.972656 C 870.363281 240.605469 870.363281 240.605469 870.085938 239.402344 C 870.085938 239.402344 869.304688 239.011719 868.191406 238.730469 C 867.621094 238.664062 867.273438 238.621094 866.449219 238.542969 C 865.875 238.097656 864.988281 237.734375 863.867188 237.472656 C 864.335938 235.371094 864.339844 235.148438 860.449219 231.597656 C 868.949219 230.53125 877.460938 229.460938 885.984375 228.386719 C 895.046875 227.285156 904.136719 226.265625 913.234375 225.3125 C 914.308594 225.21875 915.183594 224.785156 915.125 224.402344 C 915.066406 224.003906 914.066406 223.8125 912.886719 223.964844 " fill-opacity="1" fill-rule="nonzero"/></g><path fill="#ffbd59" d="M 149.804688 389.332031 C 150.308594 389.226562 150.820312 389.105469 151.320312 389 C 150.914062 388.890625 150.503906 388.792969 150.089844 388.6875 C 149.75 388.808594 149.445312 388.957031 149.160156 389.121094 C 149.371094 389.191406 149.59375 389.261719 149.804688 389.332031 " fill-opacity="1" fill-rule="nonzero"/><path fill="#ffbd59" d="M 130.863281 391.542969 C 129.285156 390.839844 127.78125 390.105469 125.472656 389.867188 C 124.890625 390.058594 124.59375 390.15625 124.4375 390.207031 C 125.257812 390.617188 126.382812 391.164062 127.496094 391.726562 C 129.691406 392.804688 130.921875 392.414062 130.863281 391.542969 " fill-opacity="1" fill-rule="nonzero"/><path fill="#ffbd59" d="M 124.4375 390.207031 C 123.675781 389.824219 123.164062 389.566406 123.164062 389.566406 C 123.449219 389.816406 123.726562 390.050781 123.988281 390.269531 C 124.242188 390.261719 124.25 390.261719 124.25 390.261719 C 124.25 390.261719 124.257812 390.261719 124.4375 390.207031 " fill-opacity="1" fill-rule="nonzero"/><path fill="#ffbd59" d="M 816.882812 114.847656 C 817.230469 114.675781 817.535156 114.492188 817.820312 114.304688 C 817.59375 114.257812 817.359375 114.207031 817.128906 114.15625 C 816.605469 114.328125 816.078125 114.496094 815.566406 114.667969 C 816 114.726562 816.441406 114.78125 816.882812 114.847656 " fill-opacity="1" fill-rule="nonzero"/><path fill="#ffbd59" d="M 836.761719 109.605469 C 838.472656 110.09375 840.121094 110.613281 842.566406 110.527344 C 843.152344 110.257812 843.453125 110.121094 843.609375 110.050781 C 842.707031 109.761719 841.484375 109.363281 840.261719 108.964844 C 837.855469 108.183594 836.613281 108.746094 836.761719 109.605469 " fill-opacity="1" fill-rule="nonzero"/><path fill="#ffbd59" d="M 843.609375 110.050781 C 844.445312 110.328125 845 110.511719 845 110.511719 C 844.679688 110.308594 844.367188 110.117188 844.070312 109.921875 C 843.808594 109.964844 843.792969 109.972656 843.792969 109.972656 C 843.792969 109.972656 843.785156 109.972656 843.609375 110.050781 " fill-opacity="1" fill-rule="nonzero"/><path fill="#ffbd59" d="M 856.621094 246.308594 C 858.453125 246.578125 860.222656 246.890625 862.773438 246.5 C 863.367188 246.152344 863.667969 245.980469 863.824219 245.894531 C 862.851562 245.710938 861.535156 245.46875 860.222656 245.226562 C 857.636719 244.757812 856.386719 245.476562 856.621094 246.308594 " fill-opacity="1" fill-rule="nonzero"/><path fill="#ffbd59" d="M 863.824219 245.894531 C 864.726562 246.058594 865.328125 246.164062 865.328125 246.164062 C 864.972656 246.007812 864.625 245.851562 864.292969 245.703125 C 864.023438 245.78125 864.007812 245.78125 864.007812 245.78125 C 864.007812 245.78125 864 245.789062 863.824219 245.894531 " fill-opacity="1" fill-rule="nonzero"/><path fill="#ffbd59" d="M 821.605469 377.242188 C 822.023438 377.257812 822.449219 377.265625 822.875 377.273438 C 823.1875 377.074219 823.457031 376.867188 823.699219 376.65625 C 823.472656 376.625 823.238281 376.605469 823.011719 376.582031 C 822.542969 376.804688 822.066406 377.023438 821.605469 377.242188 " fill-opacity="1" fill-rule="nonzero"/><path fill="#ffbd59" d="M 841.371094 369.550781 C 843.054688 369.808594 844.675781 370.097656 846.988281 369.6875 C 847.523438 369.347656 847.800781 369.167969 847.933594 369.074219 C 847.046875 368.90625 845.839844 368.679688 844.640625 368.445312 C 842.273438 367.988281 841.152344 368.722656 841.371094 369.550781 " fill-opacity="1" fill-rule="nonzero"/><path fill="#ffbd59" d="M 847.933594 369.074219 C 848.765625 369.238281 849.3125 369.347656 849.3125 369.347656 C 848.984375 369.191406 848.671875 369.035156 848.359375 368.882812 C 848.113281 368.960938 848.113281 368.96875 848.113281 368.96875 C 848.113281 368.96875 848.097656 368.96875 847.933594 369.074219 " fill-opacity="1" fill-rule="nonzero"/><path fill="#ffbd59" d="M 868.324219 459.917969 C 867.871094 460.179688 867.410156 460.457031 866.960938 460.714844 C 867.367188 460.691406 867.785156 460.664062 868.199219 460.644531 C 868.496094 460.410156 868.753906 460.167969 868.980469 459.933594 C 868.765625 459.925781 868.546875 459.925781 868.324219 459.917969 " fill-opacity="1" fill-rule="nonzero"/><path fill="#ffbd59" d="M 885.699219 451.429688 C 887.347656 451.542969 888.945312 451.699219 891.175781 451.105469 C 891.671875 450.71875 891.929688 450.523438 892.054688 450.414062 C 891.175781 450.316406 889.988281 450.1875 888.800781 450.054688 C 886.472656 449.804688 885.421875 450.613281 885.699219 451.429688 " fill-opacity="1" fill-rule="nonzero"/><path fill="#ffbd59" d="M 892.054688 450.414062 C 892.871094 450.507812 893.414062 450.5625 893.414062 450.5625 C 893.085938 450.445312 892.765625 450.316406 892.460938 450.1875 C 892.226562 450.292969 892.21875 450.292969 892.21875 450.292969 C 892.21875 450.292969 892.210938 450.300781 892.054688 450.414062 " fill-opacity="1" fill-rule="nonzero"/><path fill="#ffbd59" d="M 466.835938 533.863281 C 436.503906 536.675781 406.210938 539.78125 375.875 543.203125 C 374.867188 543.316406 374.035156 543.707031 374.019531 544.097656 C 374.007812 544.433594 374.832031 544.667969 375.761719 544.539062 C 406.117188 541.171875 436.261719 538.097656 466.589844 535.285156 C 467.613281 535.15625 468.421875 534.773438 468.519531 534.394531 C 468.535156 534.003906 467.789062 533.777344 466.835938 533.863281 " fill-opacity="1" fill-rule="nonzero"/><path fill="#ffbd59" d="M 237.480469 527.476562 C 238.167969 527.085938 238.097656 526.695312 237.324219 526.539062 C 236.664062 526.398438 235.519531 526.539062 234.84375 526.925781 C 234.269531 527.265625 234.339844 527.734375 235 527.863281 C 235.777344 528.023438 236.90625 527.804688 237.480469 527.476562 " fill-opacity="1" fill-rule="nonzero"/></svg>