<svg xmlns="http://www.w3.org/2000/svg" xmlns:xlink="http://www.w3.org/1999/xlink" width="797" zoomAndPan="magnify" viewBox="0 0 597.75 576" height="768" preserveAspectRatio="xMidYMid meet" version="1.0"><defs><clipPath id="634d1af255"><path d="M 10.871094 0.121094 L 586.628906 0.121094 L 586.628906 575.878906 L 10.871094 575.878906 Z M 10.871094 0.121094 " clip-rule="nonzero"/></clipPath><clipPath id="3f400e7ad8"><path d="M 298.75 0.121094 C 139.757812 0.121094 10.871094 129.007812 10.871094 288 C 10.871094 446.992188 139.757812 575.878906 298.75 575.878906 C 457.742188 575.878906 586.628906 446.992188 586.628906 288 C 586.628906 129.007812 457.742188 0.121094 298.75 0.121094 Z M 298.75 0.121094 " clip-rule="nonzero"/></clipPath><clipPath id="ef0c171659"><path d="M 135.296875 124.546875 L 454.363281 124.546875 L 454.363281 443.613281 L 135.296875 443.613281 Z M 135.296875 124.546875 " clip-rule="nonzero"/></clipPath></defs><g clip-path="url(#634d1af255)"><g clip-path="url(#3f400e7ad8)"><path fill="#e8effa" d="M 10.871094 0.121094 L 586.628906 0.121094 L 586.628906 575.878906 L 10.871094 575.878906 Z M 10.871094 0.121094 " fill-opacity="1" fill-rule="nonzero"/></g></g><g clip-path="url(#ef0c171659)"><path fill="#8eb1e5" d="M 408.050781 124.539062 L 349.511719 124.539062 L 295.578125 178.472656 L 369.914062 178.472656 L 315.347656 233.039062 C 297.308594 221.835938 276.023438 215.367188 253.230469 215.367188 C 188.101562 215.367188 135.304688 268.164062 135.304688 333.292969 C 135.304688 398.421875 188.101562 451.222656 253.230469 451.222656 C 318.359375 451.222656 371.15625 398.421875 371.15625 333.292969 C 371.15625 310.5 364.6875 289.214844 353.488281 271.175781 L 408.050781 216.609375 L 408.050781 290.949219 L 461.984375 237.015625 L 461.984375 124.539062 Z M 253.230469 399.550781 C 216.644531 399.550781 186.984375 369.890625 186.984375 333.304688 C 186.984375 296.71875 216.644531 267.058594 253.230469 267.058594 C 289.816406 267.058594 319.476562 296.71875 319.476562 333.304688 C 319.476562 369.890625 289.816406 399.550781 253.230469 399.550781 Z M 253.230469 399.550781 " fill-opacity="1" fill-rule="nonzero"/></g></svg>